M48
; DRILL file {KiCad 7.0.9} date Thu Dec 28 10:44:16 2023
; FORMAT={-:-/ absolute / metric / decimal}
; #@! TF.CreationDate,2023-12-28T10:44:16-05:00
; #@! TF.GenerationSoftware,Kicad,Pcbnew,7.0.9
; #@! TF.FileFunction,Plated,1,4,PTH
FMAT,2
METRIC
; #@! TA.AperFunction,Plated,PTH,ViaDrill
T1C0.300
; #@! TA.AperFunction,Plated,PTH,ComponentDrill
T2C0.950
; #@! TA.AperFunction,Plated,PTH,ComponentDrill
T3C1.000
%
G90
G05
T1
X22.452Y-57.404
X24.638Y-42.012
X28.548Y-38.1
X29.972Y-45.212
X29.972Y-56.388
X31.75Y-60.198
X31.977Y-54.61
X32.512Y-33.401
X33.882Y-41.656
X34.442Y-66.04
X35.56Y-66.04
X38.962Y-44.958
X39.216Y-35.306
X39.216Y-36.576
X39.216Y-42.037
X39.243Y-43.652
X39.47Y-39.116
X39.846Y-49.53
X40.74Y-46.228
X41.656Y-54.864
X41.91Y-68.072
X41.91Y-70.104
X42.01Y-30.988
X42.264Y-41.148
X42.264Y-46.228
X42.91Y-68.072
X43.028Y-70.053
X43.153Y-29.464
X43.28Y-37.338
X43.534Y-38.608
X44.042Y-52.206
X44.042Y-69.596
X44.957Y-37.338
X44.957Y-38.608
X45.058Y-34.29
X45.058Y-42.926
X45.263Y-52.476
X46.431Y-43.536
X46.455Y-53.213
X47.852Y-44.196
X47.904Y-41.046
X48.666Y-31.14
X48.868Y-35.56
X48.92Y-34.239
X49.494Y-65.405
X50.138Y-34.036
X50.138Y-49.784
X50.138Y-53.848
X50.572Y-65.355
X50.646Y-41.402
X50.808Y-56.388
X50.837Y-46.291
X50.9Y-44.196
X51.054Y-31.191
X51.408Y-67.056
X51.765Y-52.375
X51.789Y-55.88
X52.197Y-33.309
X52.375Y-45.11
X52.424Y-39.624
X52.424Y-42.164
X52.678Y-51.562
X52.932Y-44.196
X55.472Y-55.499
X55.626Y-30.226
X55.71Y-52.216
X56.388Y-36.83
X56.388Y-39.116
X56.388Y-41.148
X56.49Y-53.34
X56.845Y-34.696
X57.25Y-46.736
X57.277Y-52.197
X57.404Y-31.496
X57.404Y-42.799
X58.166Y-48.768
X58.52Y-56.388
X59.028Y-33.02
X59.182Y-30.226
X59.182Y-45.339
X59.309Y-52.197
X59.69Y-59.182
X59.944Y-43.307
T2
X25.146Y-60.826
X25.146Y-63.326
X25.146Y-65.826
X25.146Y-68.326
X25.4Y-48.641
X25.4Y-51.141
X25.4Y-53.641
X46.956Y-74.676
X49.456Y-74.676
X51.956Y-74.676
X54.456Y-74.676
X56.956Y-74.676
T3
X25.4Y-31.496
X25.4Y-33.996
X32.258Y-74.676
X34.798Y-74.676
X37.338Y-74.676
X39.878Y-74.676
X41.121Y-61.468
X41.121Y-64.008
X64.516Y-65.024
X64.516Y-67.524
X64.77Y-31.75
X64.77Y-34.29
X64.77Y-36.83
X64.77Y-39.37
X64.77Y-41.91
X64.77Y-44.45
X64.77Y-46.99
X64.77Y-49.53
X64.77Y-52.07
X64.77Y-54.61
X67.31Y-31.75
X67.31Y-34.29
X67.31Y-36.83
X67.31Y-39.37
X67.31Y-41.91
X67.31Y-44.45
X67.31Y-46.99
X67.31Y-49.53
X67.31Y-52.07
X67.31Y-54.61
T0
M30
