%TF.GenerationSoftware,KiCad,Pcbnew,7.0.9*%
%TF.CreationDate,2023-12-28T11:13:04-05:00*%
%TF.ProjectId,esp32_sensor_node,65737033-325f-4736-956e-736f725f6e6f,rev?*%
%TF.SameCoordinates,Original*%
%TF.FileFunction,Copper,L4,Bot*%
%TF.FilePolarity,Positive*%
%FSLAX46Y46*%
G04 Gerber Fmt 4.6, Leading zero omitted, Abs format (unit mm)*
G04 Created by KiCad (PCBNEW 7.0.9) date 2023-12-28 11:13:04*
%MOMM*%
%LPD*%
G01*
G04 APERTURE LIST*
G04 Aperture macros list*
%AMRoundRect*
0 Rectangle with rounded corners*
0 $1 Rounding radius*
0 $2 $3 $4 $5 $6 $7 $8 $9 X,Y pos of 4 corners*
0 Add a 4 corners polygon primitive as box body*
4,1,4,$2,$3,$4,$5,$6,$7,$8,$9,$2,$3,0*
0 Add four circle primitives for the rounded corners*
1,1,$1+$1,$2,$3*
1,1,$1+$1,$4,$5*
1,1,$1+$1,$6,$7*
1,1,$1+$1,$8,$9*
0 Add four rect primitives between the rounded corners*
20,1,$1+$1,$2,$3,$4,$5,0*
20,1,$1+$1,$4,$5,$6,$7,0*
20,1,$1+$1,$6,$7,$8,$9,0*
20,1,$1+$1,$8,$9,$2,$3,0*%
G04 Aperture macros list end*
%TA.AperFunction,ComponentPad*%
%ADD10RoundRect,0.250000X0.750000X-0.600000X0.750000X0.600000X-0.750000X0.600000X-0.750000X-0.600000X0*%
%TD*%
%TA.AperFunction,ComponentPad*%
%ADD11O,2.000000X1.700000*%
%TD*%
%TA.AperFunction,ComponentPad*%
%ADD12RoundRect,0.250000X0.725000X-0.600000X0.725000X0.600000X-0.725000X0.600000X-0.725000X-0.600000X0*%
%TD*%
%TA.AperFunction,ComponentPad*%
%ADD13O,1.950000X1.700000*%
%TD*%
%TA.AperFunction,ComponentPad*%
%ADD14R,1.700000X1.700000*%
%TD*%
%TA.AperFunction,ComponentPad*%
%ADD15O,1.700000X1.700000*%
%TD*%
%TA.AperFunction,ComponentPad*%
%ADD16RoundRect,0.250000X-0.750000X0.600000X-0.750000X-0.600000X0.750000X-0.600000X0.750000X0.600000X0*%
%TD*%
%TA.AperFunction,ComponentPad*%
%ADD17RoundRect,0.250000X0.600000X0.725000X-0.600000X0.725000X-0.600000X-0.725000X0.600000X-0.725000X0*%
%TD*%
%TA.AperFunction,ComponentPad*%
%ADD18O,1.700000X1.950000*%
%TD*%
%TA.AperFunction,ViaPad*%
%ADD19C,0.800000*%
%TD*%
%TA.AperFunction,Conductor*%
%ADD20C,0.500000*%
%TD*%
%TA.AperFunction,Conductor*%
%ADD21C,0.254000*%
%TD*%
G04 APERTURE END LIST*
D10*
%TO.P,J_PWRIN1,1,Pin_1*%
%TO.N,+5V*%
X25400000Y-33996000D03*
D11*
%TO.P,J_PWRIN1,2,Pin_2*%
%TO.N,GND*%
X25400000Y-31496000D03*
%TD*%
D12*
%TO.P,JST_XH_AIR1,1,Pin_1*%
%TO.N,+3.3V*%
X25400000Y-53641000D03*
D13*
%TO.P,JST_XH_AIR1,2,Pin_2*%
%TO.N,Net-(JST_XH_AIR1-Pin_2)*%
X25400000Y-51141000D03*
%TO.P,JST_XH_AIR1,3,Pin_3*%
%TO.N,GND*%
X25400000Y-48641000D03*
%TD*%
D12*
%TO.P,JST_XH_SOIL5V1,1,Pin_1*%
%TO.N,+5V*%
X25146000Y-68326000D03*
D13*
%TO.P,JST_XH_SOIL5V1,2,Pin_2*%
%TO.N,Net-(JST_XH_SOIL5V1-Pin_2)*%
X25146000Y-65826000D03*
%TO.P,JST_XH_SOIL5V1,3,Pin_3*%
%TO.N,Net-(JST_XH_SOIL5V1-Pin_3)*%
X25146000Y-63326000D03*
%TO.P,JST_XH_SOIL5V1,4,Pin_4*%
%TO.N,Net-(JST_XH_SOIL5V1-Pin_4)*%
X25146000Y-60826000D03*
%TD*%
D14*
%TO.P,J_PROG1,1,Pin_1*%
%TO.N,Net-(J_PROG1-Pin_1)*%
X39878000Y-74676000D03*
D15*
%TO.P,J_PROG1,2,Pin_2*%
%TO.N,Net-(J_PROG1-Pin_2)*%
X37338000Y-74676000D03*
%TO.P,J_PROG1,3,Pin_3*%
%TO.N,+5V*%
X34798000Y-74676000D03*
%TO.P,J_PROG1,4,Pin_4*%
%TO.N,GND*%
X32258000Y-74676000D03*
%TD*%
D16*
%TO.P,J_ACT_OUT1,1,Pin_1*%
%TO.N,Net-(J_ACT_OUT1-Pin_1)*%
X64516000Y-65024000D03*
D11*
%TO.P,J_ACT_OUT1,2,Pin_2*%
%TO.N,GND*%
X64516000Y-67524000D03*
%TD*%
D14*
%TO.P,JP1,1,A*%
%TO.N,GND*%
X41121000Y-64008000D03*
D15*
%TO.P,JP1,2,B*%
%TO.N,Net-(JP1-B)*%
X41121000Y-61468000D03*
%TD*%
D14*
%TO.P,J1,1,Pin_1*%
%TO.N,GPIO13*%
X64770000Y-54610000D03*
D15*
%TO.P,J1,2,Pin_2*%
%TO.N,+3.3V*%
X67310000Y-54610000D03*
%TO.P,J1,3,Pin_3*%
%TO.N,GPIO18*%
X64770000Y-52070000D03*
%TO.P,J1,4,Pin_4*%
%TO.N,+3.3V*%
X67310000Y-52070000D03*
%TO.P,J1,5,Pin_5*%
%TO.N,GPIO19*%
X64770000Y-49530000D03*
%TO.P,J1,6,Pin_6*%
%TO.N,GND*%
X67310000Y-49530000D03*
%TO.P,J1,7,Pin_7*%
%TO.N,GPIO21*%
X64770000Y-46990000D03*
%TO.P,J1,8,Pin_8*%
%TO.N,GND*%
X67310000Y-46990000D03*
%TO.P,J1,9,Pin_9*%
%TO.N,GPIO23*%
X64770000Y-44450000D03*
%TO.P,J1,10,Pin_10*%
%TO.N,GND*%
X67310000Y-44450000D03*
%TO.P,J1,11,Pin_11*%
%TO.N,GPIO26*%
X64770000Y-41910000D03*
%TO.P,J1,12,Pin_12*%
%TO.N,GND*%
X67310000Y-41910000D03*
%TO.P,J1,13,Pin_13*%
%TO.N,GPIO34*%
X64770000Y-39370000D03*
%TO.P,J1,14,Pin_14*%
%TO.N,GND*%
X67310000Y-39370000D03*
%TO.P,J1,15,Pin_15*%
%TO.N,GPIO35*%
X64770000Y-36830000D03*
%TO.P,J1,16,Pin_16*%
%TO.N,GND*%
X67310000Y-36830000D03*
%TO.P,J1,17,Pin_17*%
%TO.N,GPIO36*%
X64770000Y-34290000D03*
%TO.P,J1,18,Pin_18*%
%TO.N,GND*%
X67310000Y-34290000D03*
%TO.P,J1,19,Pin_19*%
%TO.N,GPIO39*%
X64770000Y-31750000D03*
%TO.P,J1,20,Pin_20*%
%TO.N,GND*%
X67310000Y-31750000D03*
%TD*%
D17*
%TO.P,JST_XH_CC1,1,Pin_1*%
%TO.N,ACT_IN*%
X56956000Y-74676000D03*
D18*
%TO.P,JST_XH_CC1,2,Pin_2*%
%TO.N,TX_CC*%
X54456000Y-74676000D03*
%TO.P,JST_XH_CC1,3,Pin_3*%
%TO.N,RX_CC*%
X51956000Y-74676000D03*
%TO.P,JST_XH_CC1,4,Pin_4*%
%TO.N,RDY*%
X49456000Y-74676000D03*
%TO.P,JST_XH_CC1,5,Pin_5*%
%TO.N,WKP*%
X46956000Y-74676000D03*
%TD*%
D19*
%TO.N,+5V*%
X22452000Y-57404000D03*
X29972000Y-56388000D03*
X29972000Y-45212000D03*
%TO.N,+3.3V*%
X31750000Y-60198000D03*
X55472000Y-55499000D03*
X32512000Y-33401000D03*
X41656000Y-54864000D03*
%TO.N,GPIO18*%
X56388000Y-41148000D03*
X59182000Y-45339000D03*
%TO.N,GPIO19*%
X56388000Y-39116000D03*
X59944000Y-43307000D03*
%TO.N,GPIO21*%
X56845200Y-34696400D03*
%TO.N,GPIO23*%
X59182000Y-30226000D03*
%TO.N,GPIO26*%
X45058000Y-42926000D03*
X52424000Y-42164000D03*
X57404000Y-42799000D03*
X47904400Y-41046400D03*
%TO.N,ACT_IN*%
X42264000Y-46228000D03*
X50836500Y-46291500D03*
X42264000Y-41148000D03*
%TO.N,TX_CC*%
X52678000Y-51562000D03*
%TO.N,RX_CC*%
X44042000Y-52205500D03*
X44042000Y-69596000D03*
%TO.N,GPIO34*%
X52424000Y-39624000D03*
X56388000Y-36830000D03*
X39216000Y-36576000D03*
X45058000Y-34290000D03*
%TO.N,RDY*%
X50646000Y-41402000D03*
%TO.N,GPIO35*%
X59028000Y-33020000D03*
X52197000Y-33309500D03*
%TO.N,WKP*%
X46455000Y-53213000D03*
%TO.N,GPIO36*%
X57404000Y-31496000D03*
X51054000Y-31191200D03*
%TO.N,GPIO39*%
X39216000Y-35306000D03*
X43153000Y-29464000D03*
%TO.N,Net-(JST_XH_AIR1-Pin_2)*%
X42010000Y-30988000D03*
%TO.N,Net-(J_PROG1-Pin_1)*%
X48868000Y-35560000D03*
%TO.N,Net-(J_PROG1-Pin_2)*%
X47852000Y-44196000D03*
X50138000Y-34036000D03*
X38962000Y-44958000D03*
%TO.N,SENSOR_EN*%
X31977000Y-54610000D03*
X33882000Y-41656000D03*
%TO.N,RS485_\u002ARE*%
X50138000Y-49784000D03*
X50138000Y-53848000D03*
%TO.N,GND*%
X51765200Y-52374800D03*
X56489600Y-53340000D03*
X50808500Y-56388000D03*
X43027600Y-70053200D03*
X52374800Y-45110400D03*
X44957500Y-37338000D03*
X51408000Y-67056000D03*
X44957500Y-38608000D03*
X55626000Y-30226000D03*
X45262800Y-52476400D03*
X28548000Y-38100000D03*
X48920400Y-34239200D03*
X46431200Y-43535600D03*
X50572064Y-65354864D03*
X42909503Y-68072000D03*
X24638000Y-42011600D03*
X43534000Y-38608000D03*
X39846000Y-49530000D03*
X43280000Y-37338000D03*
X34442400Y-66040000D03*
X39242511Y-43652500D03*
%TO.N,RESET*%
X48666400Y-31140400D03*
X57277000Y-52197000D03*
%TO.N,GPIO0{slash}BOOT*%
X57250000Y-46736000D03*
X59309000Y-52197000D03*
%TO.N,Net-(U2-ADC2_CH0{slash}GPIO4)*%
X58520000Y-56388000D03*
X58166000Y-48768000D03*
%TO.N,Net-(U2-GPIO16)*%
X51789000Y-55880000D03*
X41910000Y-70104000D03*
X41910000Y-68072000D03*
X55709545Y-52215912D03*
X52932000Y-44196000D03*
X49494500Y-65405000D03*
%TO.N,Net-(U2-GPIO17)*%
X35560000Y-66040000D03*
X39216000Y-42037000D03*
%TO.N,Net-(J_ACT_OUT1-Pin_1)*%
X39470000Y-39116000D03*
X50900000Y-44196000D03*
X59690000Y-59182000D03*
X40740000Y-46228000D03*
%TD*%
D20*
%TO.N,+5V*%
X28448000Y-68326000D02*
X25146000Y-68326000D01*
X34798000Y-74676000D02*
X28448000Y-68326000D01*
X24638000Y-68326000D02*
X22452000Y-66140000D01*
X29972000Y-56388000D02*
X29972000Y-45212000D01*
X22452000Y-66140000D02*
X22452000Y-57404000D01*
X34684000Y-74435000D02*
X34684000Y-74676000D01*
D21*
%TO.N,GPIO18*%
X57250000Y-41148000D02*
X56388000Y-41148000D01*
X59182000Y-45339000D02*
X59182000Y-43080000D01*
X59182000Y-43080000D02*
X57250000Y-41148000D01*
%TO.N,GPIO19*%
X59944000Y-43307000D02*
X59944000Y-41656000D01*
X59944000Y-41656000D02*
X57404000Y-39116000D01*
X57404000Y-39116000D02*
X56388000Y-39116000D01*
%TO.N,GPIO21*%
X60706000Y-37238000D02*
X60706000Y-46736000D01*
X60960000Y-46990000D02*
X64770000Y-46990000D01*
X60706000Y-46736000D02*
X60960000Y-46990000D01*
X58164400Y-34696400D02*
X60706000Y-37238000D01*
X56845200Y-34696400D02*
X58164400Y-34696400D01*
%TO.N,GPIO23*%
X64770000Y-44450000D02*
X63373000Y-44450000D01*
X60552000Y-30226000D02*
X59182000Y-30226000D01*
X63373000Y-44450000D02*
X62865000Y-43942000D01*
X62865000Y-43942000D02*
X62865000Y-32539000D01*
X62865000Y-32539000D02*
X60552000Y-30226000D01*
%TO.N,GPIO26*%
X56769000Y-42164000D02*
X52424000Y-42164000D01*
X47904400Y-41046400D02*
X46937600Y-41046400D01*
X46937600Y-41046400D02*
X45058000Y-42926000D01*
X57404000Y-42799000D02*
X56769000Y-42164000D01*
%TO.N,ACT_IN*%
X53694000Y-70458000D02*
X56956000Y-73720000D01*
X53694000Y-49149000D02*
X53694000Y-70458000D01*
X56956000Y-73720000D02*
X56956000Y-74676000D01*
X42264000Y-46228000D02*
X42264000Y-41148000D01*
X50836500Y-46291500D02*
X53694000Y-49149000D01*
%TO.N,TX_CC*%
X52678000Y-51562000D02*
X52932000Y-51816000D01*
X52932000Y-72136000D02*
X54456000Y-73660000D01*
X54456000Y-73660000D02*
X54456000Y-74676000D01*
X52932000Y-51816000D02*
X52932000Y-72136000D01*
%TO.N,RX_CC*%
X44042000Y-69596000D02*
X44042000Y-52205500D01*
%TO.N,GPIO34*%
X53594000Y-39624000D02*
X52424000Y-39624000D01*
X45058000Y-34290000D02*
X42772000Y-36576000D01*
X56388000Y-36830000D02*
X53594000Y-39624000D01*
X42772000Y-36576000D02*
X39216000Y-36576000D01*
%TO.N,RDY*%
X50646000Y-41402000D02*
X50646000Y-42953000D01*
X48514000Y-45085000D02*
X48514000Y-73734000D01*
X50646000Y-42953000D02*
X48514000Y-45085000D01*
X48514000Y-73734000D02*
X49456000Y-74676000D01*
%TO.N,GPIO35*%
X58520000Y-33528000D02*
X52415500Y-33528000D01*
X52415500Y-33528000D02*
X52197000Y-33309500D01*
X58520000Y-33528000D02*
X59028000Y-33020000D01*
%TO.N,WKP*%
X46455000Y-53213000D02*
X46956000Y-53714000D01*
X46956000Y-53714000D02*
X46956000Y-74676000D01*
%TO.N,GPIO36*%
X56642000Y-32258000D02*
X57404000Y-31496000D01*
X52120800Y-32258000D02*
X56642000Y-32258000D01*
X51054000Y-31191200D02*
X52120800Y-32258000D01*
%TO.N,GPIO39*%
X39216000Y-35306000D02*
X43153000Y-31369000D01*
X43153000Y-31369000D02*
X43153000Y-29464000D01*
%TO.N,Net-(JST_XH_AIR1-Pin_2)*%
X29210000Y-38962000D02*
X37184000Y-30988000D01*
X26583000Y-51141000D02*
X29210000Y-48514000D01*
X37184000Y-30988000D02*
X42010000Y-30988000D01*
X25400000Y-51141000D02*
X26583000Y-51141000D01*
X29210000Y-48514000D02*
X29210000Y-38962000D01*
%TO.N,Net-(J_PROG1-Pin_1)*%
X40748000Y-67685288D02*
X40748000Y-73806000D01*
X40748000Y-73806000D02*
X39878000Y-74676000D01*
X43180000Y-41876933D02*
X43180000Y-66395600D01*
X43180000Y-66395600D02*
X42037688Y-66395600D01*
X42037688Y-66395600D02*
X40748000Y-67685288D01*
X48868000Y-36188933D02*
X43180000Y-41876933D01*
X48868000Y-35560000D02*
X48868000Y-36188933D01*
%TO.N,Net-(J_PROG1-Pin_2)*%
X37338000Y-48414000D02*
X37338000Y-74676000D01*
X50138000Y-34036000D02*
X49884000Y-34290000D01*
X49884000Y-34290000D02*
X49884000Y-42164000D01*
X38962000Y-44958000D02*
X38962000Y-46790000D01*
X49884000Y-42164000D02*
X47852000Y-44196000D01*
X38962000Y-46790000D02*
X37338000Y-48414000D01*
%TO.N,SENSOR_EN*%
X33882000Y-41656000D02*
X33882000Y-43815000D01*
X33882000Y-43815000D02*
X31977000Y-45720000D01*
X31977000Y-45720000D02*
X31977000Y-54610000D01*
%TO.N,RS485_\u002ARE*%
X50138000Y-53848000D02*
X50138000Y-49784000D01*
D20*
%TO.N,GND*%
X64516000Y-28956000D02*
X67310000Y-31750000D01*
X56896000Y-28956000D02*
X64516000Y-28956000D01*
X55626000Y-30226000D02*
X56896000Y-28956000D01*
D21*
%TO.N,RESET*%
X51373000Y-41100866D02*
X51373000Y-41703134D01*
X48666400Y-31140400D02*
X51181000Y-33655000D01*
X51181000Y-33655000D02*
X51181000Y-40908866D01*
X56523000Y-43964866D02*
X56523000Y-51443000D01*
X51181000Y-40908866D02*
X51373000Y-41100866D01*
X55738134Y-43180000D02*
X56523000Y-43964866D01*
X51373000Y-41703134D02*
X51181000Y-41895134D01*
X51181000Y-42191000D02*
X52170000Y-43180000D01*
X52170000Y-43180000D02*
X55738134Y-43180000D01*
X51181000Y-41895134D02*
X51181000Y-42191000D01*
X56523000Y-51443000D02*
X57277000Y-52197000D01*
%TO.N,GPIO0{slash}BOOT*%
X59055000Y-51943000D02*
X59055000Y-48387000D01*
X59309000Y-52197000D02*
X59055000Y-51943000D01*
X57404000Y-46736000D02*
X57250000Y-46736000D01*
X59055000Y-48387000D02*
X57404000Y-46736000D01*
%TO.N,Net-(U2-ADC2_CH0{slash}GPIO4)*%
X58166000Y-48768000D02*
X58420000Y-49022000D01*
X58420000Y-49022000D02*
X58420000Y-56288000D01*
X58420000Y-56288000D02*
X58520000Y-56388000D01*
%TO.N,Net-(U2-GPIO16)*%
X51535000Y-63364500D02*
X51535000Y-56134000D01*
X41910000Y-68072000D02*
X41910000Y-70104000D01*
X49494500Y-65405000D02*
X51535000Y-63364500D01*
X55709545Y-46465545D02*
X55709545Y-52215912D01*
X51535000Y-56134000D02*
X51789000Y-55880000D01*
X52932000Y-44196000D02*
X53440000Y-44196000D01*
X53440000Y-44196000D02*
X55709545Y-46465545D01*
%TO.N,Net-(U2-GPIO17)*%
X36422000Y-65178000D02*
X36422000Y-54089866D01*
X36676000Y-42926000D02*
X38327000Y-42926000D01*
X35660000Y-43942000D02*
X36676000Y-42926000D01*
X36422000Y-54089866D02*
X35660000Y-53327866D01*
X35660000Y-53327866D02*
X35660000Y-43942000D01*
X38327000Y-42926000D02*
X39216000Y-42037000D01*
X35560000Y-66040000D02*
X36422000Y-65178000D01*
%TO.N,Net-(J_ACT_OUT1-Pin_1)*%
X40740000Y-46228000D02*
X41248000Y-45720000D01*
X59690000Y-59182000D02*
X57023000Y-56515000D01*
X59690000Y-59182000D02*
X59690000Y-59082000D01*
X41248000Y-45720000D02*
X41248000Y-40894000D01*
X56896000Y-54610000D02*
X54483000Y-54610000D01*
X54483000Y-54610000D02*
X54483000Y-48691800D01*
X41248000Y-40894000D02*
X39470000Y-39116000D01*
X50900000Y-45108800D02*
X50900000Y-44196000D01*
X57023000Y-56515000D02*
X56896000Y-56515000D01*
X56896000Y-56515000D02*
X56896000Y-54610000D01*
X54483000Y-48691800D02*
X50900000Y-45108800D01*
%TD*%
M02*
