%TF.GenerationSoftware,KiCad,Pcbnew,7.0.9*%
%TF.CreationDate,2023-12-28T11:13:05-05:00*%
%TF.ProjectId,esp32_sensor_node,65737033-325f-4736-956e-736f725f6e6f,rev?*%
%TF.SameCoordinates,Original*%
%TF.FileFunction,Soldermask,Bot*%
%TF.FilePolarity,Negative*%
%FSLAX46Y46*%
G04 Gerber Fmt 4.6, Leading zero omitted, Abs format (unit mm)*
G04 Created by KiCad (PCBNEW 7.0.9) date 2023-12-28 11:13:05*
%MOMM*%
%LPD*%
G01*
G04 APERTURE LIST*
G04 Aperture macros list*
%AMRoundRect*
0 Rectangle with rounded corners*
0 $1 Rounding radius*
0 $2 $3 $4 $5 $6 $7 $8 $9 X,Y pos of 4 corners*
0 Add a 4 corners polygon primitive as box body*
4,1,4,$2,$3,$4,$5,$6,$7,$8,$9,$2,$3,0*
0 Add four circle primitives for the rounded corners*
1,1,$1+$1,$2,$3*
1,1,$1+$1,$4,$5*
1,1,$1+$1,$6,$7*
1,1,$1+$1,$8,$9*
0 Add four rect primitives between the rounded corners*
20,1,$1+$1,$2,$3,$4,$5,0*
20,1,$1+$1,$4,$5,$6,$7,0*
20,1,$1+$1,$6,$7,$8,$9,0*
20,1,$1+$1,$8,$9,$2,$3,0*%
G04 Aperture macros list end*
%ADD10RoundRect,0.250000X0.750000X-0.600000X0.750000X0.600000X-0.750000X0.600000X-0.750000X-0.600000X0*%
%ADD11O,2.000000X1.700000*%
%ADD12RoundRect,0.250000X0.725000X-0.600000X0.725000X0.600000X-0.725000X0.600000X-0.725000X-0.600000X0*%
%ADD13O,1.950000X1.700000*%
%ADD14C,3.200000*%
%ADD15R,1.700000X1.700000*%
%ADD16O,1.700000X1.700000*%
%ADD17RoundRect,0.250000X-0.750000X0.600000X-0.750000X-0.600000X0.750000X-0.600000X0.750000X0.600000X0*%
%ADD18RoundRect,0.250000X0.600000X0.725000X-0.600000X0.725000X-0.600000X-0.725000X0.600000X-0.725000X0*%
%ADD19O,1.700000X1.950000*%
G04 APERTURE END LIST*
D10*
%TO.C,J_PWRIN1*%
X25400000Y-33996000D03*
D11*
X25400000Y-31496000D03*
%TD*%
D12*
%TO.C,JST_XH_AIR1*%
X25400000Y-53641000D03*
D13*
X25400000Y-51141000D03*
X25400000Y-48641000D03*
%TD*%
D14*
%TO.C,H4*%
X65532000Y-24384000D03*
%TD*%
D12*
%TO.C,JST_XH_SOIL5V1*%
X25146000Y-68326000D03*
D13*
X25146000Y-65826000D03*
X25146000Y-63326000D03*
X25146000Y-60826000D03*
%TD*%
D15*
%TO.C,J_PROG1*%
X39878000Y-74676000D03*
D16*
X37338000Y-74676000D03*
X34798000Y-74676000D03*
X32258000Y-74676000D03*
%TD*%
D17*
%TO.C,J_ACT_OUT1*%
X64516000Y-65024000D03*
D11*
X64516000Y-67524000D03*
%TD*%
D15*
%TO.C,JP1*%
X41121000Y-64008000D03*
D16*
X41121000Y-61468000D03*
%TD*%
D15*
%TO.C,J1*%
X64770000Y-54610000D03*
D16*
X67310000Y-54610000D03*
X64770000Y-52070000D03*
X67310000Y-52070000D03*
X64770000Y-49530000D03*
X67310000Y-49530000D03*
X64770000Y-46990000D03*
X67310000Y-46990000D03*
X64770000Y-44450000D03*
X67310000Y-44450000D03*
X64770000Y-41910000D03*
X67310000Y-41910000D03*
X64770000Y-39370000D03*
X67310000Y-39370000D03*
X64770000Y-36830000D03*
X67310000Y-36830000D03*
X64770000Y-34290000D03*
X67310000Y-34290000D03*
X64770000Y-31750000D03*
X67310000Y-31750000D03*
%TD*%
D14*
%TO.C,H3*%
X24384000Y-24384000D03*
%TD*%
%TO.C,H2*%
X65632000Y-75692000D03*
%TD*%
D18*
%TO.C,JST_XH_CC1*%
X56956000Y-74676000D03*
D19*
X54456000Y-74676000D03*
X51956000Y-74676000D03*
X49456000Y-74676000D03*
X46956000Y-74676000D03*
%TD*%
D14*
%TO.C,H1*%
X24384000Y-75692000D03*
%TD*%
M02*
