%TF.GenerationSoftware,KiCad,Pcbnew,7.0.9*%
%TF.CreationDate,2023-12-28T11:13:05-05:00*%
%TF.ProjectId,esp32_sensor_node,65737033-325f-4736-956e-736f725f6e6f,rev?*%
%TF.SameCoordinates,Original*%
%TF.FileFunction,Soldermask,Top*%
%TF.FilePolarity,Negative*%
%FSLAX46Y46*%
G04 Gerber Fmt 4.6, Leading zero omitted, Abs format (unit mm)*
G04 Created by KiCad (PCBNEW 7.0.9) date 2023-12-28 11:13:05*
%MOMM*%
%LPD*%
G01*
G04 APERTURE LIST*
G04 Aperture macros list*
%AMRoundRect*
0 Rectangle with rounded corners*
0 $1 Rounding radius*
0 $2 $3 $4 $5 $6 $7 $8 $9 X,Y pos of 4 corners*
0 Add a 4 corners polygon primitive as box body*
4,1,4,$2,$3,$4,$5,$6,$7,$8,$9,$2,$3,0*
0 Add four circle primitives for the rounded corners*
1,1,$1+$1,$2,$3*
1,1,$1+$1,$4,$5*
1,1,$1+$1,$6,$7*
1,1,$1+$1,$8,$9*
0 Add four rect primitives between the rounded corners*
20,1,$1+$1,$2,$3,$4,$5,0*
20,1,$1+$1,$4,$5,$6,$7,0*
20,1,$1+$1,$6,$7,$8,$9,0*
20,1,$1+$1,$8,$9,$2,$3,0*%
G04 Aperture macros list end*
%ADD10R,1.000000X1.250000*%
%ADD11RoundRect,0.225000X-0.225000X-0.250000X0.225000X-0.250000X0.225000X0.250000X-0.225000X0.250000X0*%
%ADD12RoundRect,0.250000X0.750000X-0.600000X0.750000X0.600000X-0.750000X0.600000X-0.750000X-0.600000X0*%
%ADD13O,2.000000X1.700000*%
%ADD14RoundRect,0.250000X0.725000X-0.600000X0.725000X0.600000X-0.725000X0.600000X-0.725000X-0.600000X0*%
%ADD15O,1.950000X1.700000*%
%ADD16C,3.200000*%
%ADD17RoundRect,0.200000X0.200000X0.275000X-0.200000X0.275000X-0.200000X-0.275000X0.200000X-0.275000X0*%
%ADD18RoundRect,0.250000X0.475000X-0.250000X0.475000X0.250000X-0.475000X0.250000X-0.475000X-0.250000X0*%
%ADD19RoundRect,0.225000X0.225000X0.250000X-0.225000X0.250000X-0.225000X-0.250000X0.225000X-0.250000X0*%
%ADD20R,1.700000X1.700000*%
%ADD21O,1.700000X1.700000*%
%ADD22RoundRect,0.150000X-0.512500X-0.150000X0.512500X-0.150000X0.512500X0.150000X-0.512500X0.150000X0*%
%ADD23RoundRect,0.250000X-0.750000X0.600000X-0.750000X-0.600000X0.750000X-0.600000X0.750000X0.600000X0*%
%ADD24RoundRect,0.150000X-0.587500X-0.150000X0.587500X-0.150000X0.587500X0.150000X-0.587500X0.150000X0*%
%ADD25RoundRect,0.225000X0.250000X-0.225000X0.250000X0.225000X-0.250000X0.225000X-0.250000X-0.225000X0*%
%ADD26RoundRect,0.250000X0.600000X0.725000X-0.600000X0.725000X-0.600000X-0.725000X0.600000X-0.725000X0*%
%ADD27O,1.700000X1.950000*%
%ADD28R,1.500000X0.900000*%
%ADD29R,0.900000X1.500000*%
%ADD30R,0.900000X0.900000*%
%ADD31R,0.533400X1.460500*%
%ADD32RoundRect,0.218750X-0.218750X-0.256250X0.218750X-0.256250X0.218750X0.256250X-0.218750X0.256250X0*%
%ADD33RoundRect,0.200000X-0.200000X-0.275000X0.200000X-0.275000X0.200000X0.275000X-0.200000X0.275000X0*%
G04 APERTURE END LIST*
D10*
%TO.C,SW2*%
X48360000Y-67186000D03*
X48360000Y-59436000D03*
%TD*%
D11*
%TO.C,C6*%
X48374000Y-57277000D03*
X49924000Y-57277000D03*
%TD*%
D12*
%TO.C,J_PWRIN1*%
X25400000Y-33996000D03*
D13*
X25400000Y-31496000D03*
%TD*%
D14*
%TO.C,JST_XH_AIR1*%
X25400000Y-53641000D03*
D15*
X25400000Y-51141000D03*
X25400000Y-48641000D03*
%TD*%
D11*
%TO.C,C7_MAXDECOUP1*%
X33007000Y-60198000D03*
X34557000Y-60198000D03*
%TD*%
D16*
%TO.C,H4*%
X65532000Y-24384000D03*
%TD*%
D14*
%TO.C,JST_XH_SOIL5V1*%
X25146000Y-68326000D03*
D15*
X25146000Y-65826000D03*
X25146000Y-63326000D03*
X25146000Y-60826000D03*
%TD*%
D17*
%TO.C,R2*%
X41882000Y-58166000D03*
X40232000Y-58166000D03*
%TD*%
D18*
%TO.C,C4*%
X32512000Y-30292000D03*
X32512000Y-32192000D03*
%TD*%
D19*
%TO.C,C5*%
X56514000Y-57404000D03*
X54964000Y-57404000D03*
%TD*%
D20*
%TO.C,J_PROG1*%
X39878000Y-74676000D03*
D21*
X37338000Y-74676000D03*
X34798000Y-74676000D03*
X32258000Y-74676000D03*
%TD*%
D22*
%TO.C,U1*%
X23531400Y-41076800D03*
X23531400Y-42026800D03*
X23531400Y-42976800D03*
X25806400Y-42976800D03*
X25806400Y-41076800D03*
%TD*%
D10*
%TO.C,SW1*%
X55472000Y-67186000D03*
X55472000Y-59436000D03*
%TD*%
D23*
%TO.C,J_ACT_OUT1*%
X64516000Y-65024000D03*
D13*
X64516000Y-67524000D03*
%TD*%
D20*
%TO.C,JP1*%
X41121000Y-64008000D03*
D21*
X41121000Y-61468000D03*
%TD*%
D11*
%TO.C,C1*%
X24204000Y-38100000D03*
X25754000Y-38100000D03*
%TD*%
D18*
%TO.C,C2*%
X29210000Y-43762000D03*
X29210000Y-41862000D03*
%TD*%
D20*
%TO.C,J1*%
X64770000Y-54610000D03*
D21*
X67310000Y-54610000D03*
X64770000Y-52070000D03*
X67310000Y-52070000D03*
X64770000Y-49530000D03*
X67310000Y-49530000D03*
X64770000Y-46990000D03*
X67310000Y-46990000D03*
X64770000Y-44450000D03*
X67310000Y-44450000D03*
X64770000Y-41910000D03*
X67310000Y-41910000D03*
X64770000Y-39370000D03*
X67310000Y-39370000D03*
X64770000Y-36830000D03*
X67310000Y-36830000D03*
X64770000Y-34290000D03*
X67310000Y-34290000D03*
X64770000Y-31750000D03*
X67310000Y-31750000D03*
%TD*%
D24*
%TO.C,Q1*%
X32844500Y-56454000D03*
X32844500Y-58354000D03*
X34719500Y-57404000D03*
%TD*%
D25*
%TO.C,C3*%
X34644000Y-30213000D03*
X34644000Y-31763000D03*
%TD*%
D16*
%TO.C,H3*%
X24384000Y-24384000D03*
%TD*%
%TO.C,H2*%
X65632000Y-75692000D03*
%TD*%
D26*
%TO.C,JST_XH_CC1*%
X56956000Y-74676000D03*
D27*
X54456000Y-74676000D03*
X51956000Y-74676000D03*
X49456000Y-74676000D03*
X46956000Y-74676000D03*
%TD*%
D28*
%TO.C,U2*%
X36816000Y-30226000D03*
X36816000Y-31496000D03*
X36816000Y-32766000D03*
X36816000Y-34036000D03*
X36816000Y-35306000D03*
X36816000Y-36576000D03*
X36816000Y-37846000D03*
X36816000Y-39116000D03*
X36816000Y-40386000D03*
X36816000Y-41656000D03*
X36816000Y-42926000D03*
X36816000Y-44196000D03*
X36816000Y-45466000D03*
X36816000Y-46736000D03*
D29*
X39846000Y-47986000D03*
X41116000Y-47986000D03*
X42386000Y-47986000D03*
X43656000Y-47986000D03*
X44926000Y-47986000D03*
X46196000Y-47986000D03*
X47466000Y-47986000D03*
X48736000Y-47986000D03*
X50006000Y-47986000D03*
X51276000Y-47986000D03*
D28*
X54316000Y-46736000D03*
X54316000Y-45466000D03*
X54316000Y-44196000D03*
X54316000Y-42926000D03*
X54316000Y-41656000D03*
X54316000Y-40386000D03*
X54316000Y-39116000D03*
X54316000Y-37846000D03*
X54316000Y-36576000D03*
X54316000Y-35306000D03*
X54316000Y-34036000D03*
X54316000Y-32766000D03*
X54316000Y-31496000D03*
X54316000Y-30226000D03*
D30*
X42666000Y-36546000D03*
X42666000Y-36546000D03*
X42666000Y-37946000D03*
X42666000Y-39346000D03*
X42666000Y-39346000D03*
X44066000Y-36546000D03*
X44066000Y-37946000D03*
X44066000Y-39346000D03*
X44066000Y-39346000D03*
X45466000Y-36546000D03*
X45466000Y-37946000D03*
X45466000Y-39346000D03*
%TD*%
D31*
%TO.C,U3*%
X31877000Y-67748150D03*
X33147000Y-67748150D03*
X34417000Y-67748150D03*
X35687000Y-67748150D03*
X35687000Y-62299850D03*
X34417000Y-62299850D03*
X33147000Y-62299850D03*
X31877000Y-62299850D03*
%TD*%
D16*
%TO.C,H1*%
X24384000Y-75692000D03*
%TD*%
D32*
%TO.C,D1*%
X40232000Y-56134000D03*
X41807000Y-56134000D03*
%TD*%
D33*
%TO.C,R1*%
X55563000Y-54711600D03*
X57213000Y-54711600D03*
%TD*%
M02*
