%TF.GenerationSoftware,KiCad,Pcbnew,7.0.9*%
%TF.CreationDate,2023-12-28T11:13:05-05:00*%
%TF.ProjectId,esp32_sensor_node,65737033-325f-4736-956e-736f725f6e6f,rev?*%
%TF.SameCoordinates,Original*%
%TF.FileFunction,Legend,Top*%
%TF.FilePolarity,Positive*%
%FSLAX46Y46*%
G04 Gerber Fmt 4.6, Leading zero omitted, Abs format (unit mm)*
G04 Created by KiCad (PCBNEW 7.0.9) date 2023-12-28 11:13:05*
%MOMM*%
%LPD*%
G01*
G04 APERTURE LIST*
G04 Aperture macros list*
%AMRoundRect*
0 Rectangle with rounded corners*
0 $1 Rounding radius*
0 $2 $3 $4 $5 $6 $7 $8 $9 X,Y pos of 4 corners*
0 Add a 4 corners polygon primitive as box body*
4,1,4,$2,$3,$4,$5,$6,$7,$8,$9,$2,$3,0*
0 Add four circle primitives for the rounded corners*
1,1,$1+$1,$2,$3*
1,1,$1+$1,$4,$5*
1,1,$1+$1,$6,$7*
1,1,$1+$1,$8,$9*
0 Add four rect primitives between the rounded corners*
20,1,$1+$1,$2,$3,$4,$5,0*
20,1,$1+$1,$4,$5,$6,$7,0*
20,1,$1+$1,$6,$7,$8,$9,0*
20,1,$1+$1,$8,$9,$2,$3,0*%
G04 Aperture macros list end*
%ADD10C,0.290526*%
%ADD11C,0.150000*%
%ADD12C,0.250000*%
%ADD13C,0.120000*%
%ADD14C,0.152400*%
%ADD15R,1.000000X1.250000*%
%ADD16RoundRect,0.225000X-0.225000X-0.250000X0.225000X-0.250000X0.225000X0.250000X-0.225000X0.250000X0*%
%ADD17RoundRect,0.250000X0.750000X-0.600000X0.750000X0.600000X-0.750000X0.600000X-0.750000X-0.600000X0*%
%ADD18O,2.000000X1.700000*%
%ADD19RoundRect,0.250000X0.725000X-0.600000X0.725000X0.600000X-0.725000X0.600000X-0.725000X-0.600000X0*%
%ADD20O,1.950000X1.700000*%
%ADD21C,3.200000*%
%ADD22RoundRect,0.200000X0.200000X0.275000X-0.200000X0.275000X-0.200000X-0.275000X0.200000X-0.275000X0*%
%ADD23RoundRect,0.250000X0.475000X-0.250000X0.475000X0.250000X-0.475000X0.250000X-0.475000X-0.250000X0*%
%ADD24RoundRect,0.225000X0.225000X0.250000X-0.225000X0.250000X-0.225000X-0.250000X0.225000X-0.250000X0*%
%ADD25R,1.700000X1.700000*%
%ADD26O,1.700000X1.700000*%
%ADD27RoundRect,0.150000X-0.512500X-0.150000X0.512500X-0.150000X0.512500X0.150000X-0.512500X0.150000X0*%
%ADD28RoundRect,0.250000X-0.750000X0.600000X-0.750000X-0.600000X0.750000X-0.600000X0.750000X0.600000X0*%
%ADD29RoundRect,0.150000X-0.587500X-0.150000X0.587500X-0.150000X0.587500X0.150000X-0.587500X0.150000X0*%
%ADD30RoundRect,0.225000X0.250000X-0.225000X0.250000X0.225000X-0.250000X0.225000X-0.250000X-0.225000X0*%
%ADD31RoundRect,0.250000X0.600000X0.725000X-0.600000X0.725000X-0.600000X-0.725000X0.600000X-0.725000X0*%
%ADD32O,1.700000X1.950000*%
%ADD33R,1.500000X0.900000*%
%ADD34R,0.900000X1.500000*%
%ADD35R,0.900000X0.900000*%
%ADD36R,0.533400X1.460500*%
%ADD37RoundRect,0.218750X-0.218750X-0.256250X0.218750X-0.256250X0.218750X0.256250X-0.218750X0.256250X0*%
%ADD38RoundRect,0.200000X-0.200000X-0.275000X0.200000X-0.275000X0.200000X0.275000X-0.200000X0.275000X0*%
G04 APERTURE END LIST*
D10*
X31285663Y-69189600D02*
G75*
G03*
X31285663Y-69189600I-145263J0D01*
G01*
D11*
X69189600Y-30420000D02*
X69189600Y-29083000D01*
X68640000Y-30429200D02*
X69189600Y-30429200D01*
X60198000Y-32258000D02*
X59690000Y-31750000D01*
X60198000Y-31242000D01*
X60198000Y-32258000D01*
G36*
X60198000Y-32258000D02*
G01*
X59690000Y-31750000D01*
X60198000Y-31242000D01*
X60198000Y-32258000D01*
G37*
X68707000Y-51054000D02*
X69215000Y-51054000D01*
X69215000Y-55930800D01*
X68707000Y-55930800D01*
X68707000Y-51054000D01*
G36*
X68707000Y-51054000D02*
G01*
X69215000Y-51054000D01*
X69215000Y-55930800D01*
X68707000Y-55930800D01*
X68707000Y-51054000D01*
G37*
X60198000Y-39878000D02*
X59690000Y-39370000D01*
X60198000Y-38862000D01*
X60198000Y-39878000D01*
G36*
X60198000Y-39878000D02*
G01*
X59690000Y-39370000D01*
X60198000Y-38862000D01*
X60198000Y-39878000D01*
G37*
X69189600Y-30420000D02*
X69189600Y-49580800D01*
X60706000Y-55880000D02*
X62992000Y-55880000D01*
X60198000Y-34925000D02*
X59690000Y-34417000D01*
X60198000Y-33909000D01*
X60198000Y-34925000D01*
G36*
X60198000Y-34925000D02*
G01*
X59690000Y-34417000D01*
X60198000Y-33909000D01*
X60198000Y-34925000D01*
G37*
X62992000Y-30420000D02*
X60706000Y-30420000D01*
X69215000Y-52070000D02*
X68707000Y-52070000D01*
X60706000Y-30420000D02*
X60706000Y-55880000D01*
X69189600Y-49580800D02*
X68681600Y-49580800D01*
X68834000Y-29083000D02*
X69189600Y-29083000D01*
X69215000Y-57531000D02*
X69215000Y-52070000D01*
X60198000Y-37338000D02*
X59690000Y-36830000D01*
X60198000Y-36322000D01*
X60198000Y-37338000D01*
G36*
X60198000Y-37338000D02*
G01*
X59690000Y-36830000D01*
X60198000Y-36322000D01*
X60198000Y-37338000D01*
G37*
X69215000Y-57531000D02*
X68453000Y-57531000D01*
D12*
X61886377Y-52696619D02*
X61314949Y-52696619D01*
X61600663Y-52696619D02*
X61600663Y-51696619D01*
X61600663Y-51696619D02*
X61505425Y-51839476D01*
X61505425Y-51839476D02*
X61410187Y-51934714D01*
X61410187Y-51934714D02*
X61314949Y-51982333D01*
X62457806Y-52125190D02*
X62362568Y-52077571D01*
X62362568Y-52077571D02*
X62314949Y-52029952D01*
X62314949Y-52029952D02*
X62267330Y-51934714D01*
X62267330Y-51934714D02*
X62267330Y-51887095D01*
X62267330Y-51887095D02*
X62314949Y-51791857D01*
X62314949Y-51791857D02*
X62362568Y-51744238D01*
X62362568Y-51744238D02*
X62457806Y-51696619D01*
X62457806Y-51696619D02*
X62648282Y-51696619D01*
X62648282Y-51696619D02*
X62743520Y-51744238D01*
X62743520Y-51744238D02*
X62791139Y-51791857D01*
X62791139Y-51791857D02*
X62838758Y-51887095D01*
X62838758Y-51887095D02*
X62838758Y-51934714D01*
X62838758Y-51934714D02*
X62791139Y-52029952D01*
X62791139Y-52029952D02*
X62743520Y-52077571D01*
X62743520Y-52077571D02*
X62648282Y-52125190D01*
X62648282Y-52125190D02*
X62457806Y-52125190D01*
X62457806Y-52125190D02*
X62362568Y-52172809D01*
X62362568Y-52172809D02*
X62314949Y-52220428D01*
X62314949Y-52220428D02*
X62267330Y-52315666D01*
X62267330Y-52315666D02*
X62267330Y-52506142D01*
X62267330Y-52506142D02*
X62314949Y-52601380D01*
X62314949Y-52601380D02*
X62362568Y-52649000D01*
X62362568Y-52649000D02*
X62457806Y-52696619D01*
X62457806Y-52696619D02*
X62648282Y-52696619D01*
X62648282Y-52696619D02*
X62743520Y-52649000D01*
X62743520Y-52649000D02*
X62791139Y-52601380D01*
X62791139Y-52601380D02*
X62838758Y-52506142D01*
X62838758Y-52506142D02*
X62838758Y-52315666D01*
X62838758Y-52315666D02*
X62791139Y-52220428D01*
X62791139Y-52220428D02*
X62743520Y-52172809D01*
X62743520Y-52172809D02*
X62648282Y-52125190D01*
D11*
X48879303Y-79117819D02*
X48612636Y-78641628D01*
X48422160Y-79117819D02*
X48422160Y-78117819D01*
X48422160Y-78117819D02*
X48726922Y-78117819D01*
X48726922Y-78117819D02*
X48803112Y-78165438D01*
X48803112Y-78165438D02*
X48841207Y-78213057D01*
X48841207Y-78213057D02*
X48879303Y-78308295D01*
X48879303Y-78308295D02*
X48879303Y-78451152D01*
X48879303Y-78451152D02*
X48841207Y-78546390D01*
X48841207Y-78546390D02*
X48803112Y-78594009D01*
X48803112Y-78594009D02*
X48726922Y-78641628D01*
X48726922Y-78641628D02*
X48422160Y-78641628D01*
X49222160Y-79117819D02*
X49222160Y-78117819D01*
X49222160Y-78117819D02*
X49412636Y-78117819D01*
X49412636Y-78117819D02*
X49526922Y-78165438D01*
X49526922Y-78165438D02*
X49603112Y-78260676D01*
X49603112Y-78260676D02*
X49641207Y-78355914D01*
X49641207Y-78355914D02*
X49679303Y-78546390D01*
X49679303Y-78546390D02*
X49679303Y-78689247D01*
X49679303Y-78689247D02*
X49641207Y-78879723D01*
X49641207Y-78879723D02*
X49603112Y-78974961D01*
X49603112Y-78974961D02*
X49526922Y-79070200D01*
X49526922Y-79070200D02*
X49412636Y-79117819D01*
X49412636Y-79117819D02*
X49222160Y-79117819D01*
X50174541Y-78641628D02*
X50174541Y-79117819D01*
X49907874Y-78117819D02*
X50174541Y-78641628D01*
X50174541Y-78641628D02*
X50441207Y-78117819D01*
X20761438Y-49075792D02*
X20713819Y-49151982D01*
X20713819Y-49151982D02*
X20713819Y-49266268D01*
X20713819Y-49266268D02*
X20761438Y-49380554D01*
X20761438Y-49380554D02*
X20856676Y-49456744D01*
X20856676Y-49456744D02*
X20951914Y-49494839D01*
X20951914Y-49494839D02*
X21142390Y-49532935D01*
X21142390Y-49532935D02*
X21285247Y-49532935D01*
X21285247Y-49532935D02*
X21475723Y-49494839D01*
X21475723Y-49494839D02*
X21570961Y-49456744D01*
X21570961Y-49456744D02*
X21666200Y-49380554D01*
X21666200Y-49380554D02*
X21713819Y-49266268D01*
X21713819Y-49266268D02*
X21713819Y-49190077D01*
X21713819Y-49190077D02*
X21666200Y-49075792D01*
X21666200Y-49075792D02*
X21618580Y-49037696D01*
X21618580Y-49037696D02*
X21285247Y-49037696D01*
X21285247Y-49037696D02*
X21285247Y-49190077D01*
X21713819Y-48694839D02*
X20713819Y-48694839D01*
X20713819Y-48694839D02*
X21713819Y-48237696D01*
X21713819Y-48237696D02*
X20713819Y-48237696D01*
X21713819Y-47856744D02*
X20713819Y-47856744D01*
X20713819Y-47856744D02*
X20713819Y-47666268D01*
X20713819Y-47666268D02*
X20761438Y-47551982D01*
X20761438Y-47551982D02*
X20856676Y-47475792D01*
X20856676Y-47475792D02*
X20951914Y-47437697D01*
X20951914Y-47437697D02*
X21142390Y-47399601D01*
X21142390Y-47399601D02*
X21285247Y-47399601D01*
X21285247Y-47399601D02*
X21475723Y-47437697D01*
X21475723Y-47437697D02*
X21570961Y-47475792D01*
X21570961Y-47475792D02*
X21666200Y-47551982D01*
X21666200Y-47551982D02*
X21713819Y-47666268D01*
X21713819Y-47666268D02*
X21713819Y-47856744D01*
D12*
X61314949Y-46711857D02*
X61362568Y-46664238D01*
X61362568Y-46664238D02*
X61457806Y-46616619D01*
X61457806Y-46616619D02*
X61695901Y-46616619D01*
X61695901Y-46616619D02*
X61791139Y-46664238D01*
X61791139Y-46664238D02*
X61838758Y-46711857D01*
X61838758Y-46711857D02*
X61886377Y-46807095D01*
X61886377Y-46807095D02*
X61886377Y-46902333D01*
X61886377Y-46902333D02*
X61838758Y-47045190D01*
X61838758Y-47045190D02*
X61267330Y-47616619D01*
X61267330Y-47616619D02*
X61886377Y-47616619D01*
X62838758Y-47616619D02*
X62267330Y-47616619D01*
X62553044Y-47616619D02*
X62553044Y-46616619D01*
X62553044Y-46616619D02*
X62457806Y-46759476D01*
X62457806Y-46759476D02*
X62362568Y-46854714D01*
X62362568Y-46854714D02*
X62267330Y-46902333D01*
D11*
X20713819Y-68671887D02*
X20713819Y-69052839D01*
X20713819Y-69052839D02*
X21190009Y-69090935D01*
X21190009Y-69090935D02*
X21142390Y-69052839D01*
X21142390Y-69052839D02*
X21094771Y-68976649D01*
X21094771Y-68976649D02*
X21094771Y-68786173D01*
X21094771Y-68786173D02*
X21142390Y-68709982D01*
X21142390Y-68709982D02*
X21190009Y-68671887D01*
X21190009Y-68671887D02*
X21285247Y-68633792D01*
X21285247Y-68633792D02*
X21523342Y-68633792D01*
X21523342Y-68633792D02*
X21618580Y-68671887D01*
X21618580Y-68671887D02*
X21666200Y-68709982D01*
X21666200Y-68709982D02*
X21713819Y-68786173D01*
X21713819Y-68786173D02*
X21713819Y-68976649D01*
X21713819Y-68976649D02*
X21666200Y-69052839D01*
X21666200Y-69052839D02*
X21618580Y-69090935D01*
X20713819Y-68405220D02*
X21713819Y-68138553D01*
X21713819Y-68138553D02*
X20713819Y-67871887D01*
X20761438Y-61267792D02*
X20713819Y-61343982D01*
X20713819Y-61343982D02*
X20713819Y-61458268D01*
X20713819Y-61458268D02*
X20761438Y-61572554D01*
X20761438Y-61572554D02*
X20856676Y-61648744D01*
X20856676Y-61648744D02*
X20951914Y-61686839D01*
X20951914Y-61686839D02*
X21142390Y-61724935D01*
X21142390Y-61724935D02*
X21285247Y-61724935D01*
X21285247Y-61724935D02*
X21475723Y-61686839D01*
X21475723Y-61686839D02*
X21570961Y-61648744D01*
X21570961Y-61648744D02*
X21666200Y-61572554D01*
X21666200Y-61572554D02*
X21713819Y-61458268D01*
X21713819Y-61458268D02*
X21713819Y-61382077D01*
X21713819Y-61382077D02*
X21666200Y-61267792D01*
X21666200Y-61267792D02*
X21618580Y-61229696D01*
X21618580Y-61229696D02*
X21285247Y-61229696D01*
X21285247Y-61229696D02*
X21285247Y-61382077D01*
X21713819Y-60886839D02*
X20713819Y-60886839D01*
X20713819Y-60886839D02*
X21713819Y-60429696D01*
X21713819Y-60429696D02*
X20713819Y-60429696D01*
X21713819Y-60048744D02*
X20713819Y-60048744D01*
X20713819Y-60048744D02*
X20713819Y-59858268D01*
X20713819Y-59858268D02*
X20761438Y-59743982D01*
X20761438Y-59743982D02*
X20856676Y-59667792D01*
X20856676Y-59667792D02*
X20951914Y-59629697D01*
X20951914Y-59629697D02*
X21142390Y-59591601D01*
X21142390Y-59591601D02*
X21285247Y-59591601D01*
X21285247Y-59591601D02*
X21475723Y-59629697D01*
X21475723Y-59629697D02*
X21570961Y-59667792D01*
X21570961Y-59667792D02*
X21666200Y-59743982D01*
X21666200Y-59743982D02*
X21713819Y-59858268D01*
X21713819Y-59858268D02*
X21713819Y-60048744D01*
X31315207Y-78165438D02*
X31239017Y-78117819D01*
X31239017Y-78117819D02*
X31124731Y-78117819D01*
X31124731Y-78117819D02*
X31010445Y-78165438D01*
X31010445Y-78165438D02*
X30934255Y-78260676D01*
X30934255Y-78260676D02*
X30896160Y-78355914D01*
X30896160Y-78355914D02*
X30858064Y-78546390D01*
X30858064Y-78546390D02*
X30858064Y-78689247D01*
X30858064Y-78689247D02*
X30896160Y-78879723D01*
X30896160Y-78879723D02*
X30934255Y-78974961D01*
X30934255Y-78974961D02*
X31010445Y-79070200D01*
X31010445Y-79070200D02*
X31124731Y-79117819D01*
X31124731Y-79117819D02*
X31200922Y-79117819D01*
X31200922Y-79117819D02*
X31315207Y-79070200D01*
X31315207Y-79070200D02*
X31353303Y-79022580D01*
X31353303Y-79022580D02*
X31353303Y-78689247D01*
X31353303Y-78689247D02*
X31200922Y-78689247D01*
X31696160Y-79117819D02*
X31696160Y-78117819D01*
X31696160Y-78117819D02*
X32153303Y-79117819D01*
X32153303Y-79117819D02*
X32153303Y-78117819D01*
X32534255Y-79117819D02*
X32534255Y-78117819D01*
X32534255Y-78117819D02*
X32724731Y-78117819D01*
X32724731Y-78117819D02*
X32839017Y-78165438D01*
X32839017Y-78165438D02*
X32915207Y-78260676D01*
X32915207Y-78260676D02*
X32953302Y-78355914D01*
X32953302Y-78355914D02*
X32991398Y-78546390D01*
X32991398Y-78546390D02*
X32991398Y-78689247D01*
X32991398Y-78689247D02*
X32953302Y-78879723D01*
X32953302Y-78879723D02*
X32915207Y-78974961D01*
X32915207Y-78974961D02*
X32839017Y-79070200D01*
X32839017Y-79070200D02*
X32724731Y-79117819D01*
X32724731Y-79117819D02*
X32534255Y-79117819D01*
D12*
X61267330Y-36456619D02*
X61886377Y-36456619D01*
X61886377Y-36456619D02*
X61553044Y-36837571D01*
X61553044Y-36837571D02*
X61695901Y-36837571D01*
X61695901Y-36837571D02*
X61791139Y-36885190D01*
X61791139Y-36885190D02*
X61838758Y-36932809D01*
X61838758Y-36932809D02*
X61886377Y-37028047D01*
X61886377Y-37028047D02*
X61886377Y-37266142D01*
X61886377Y-37266142D02*
X61838758Y-37361380D01*
X61838758Y-37361380D02*
X61791139Y-37409000D01*
X61791139Y-37409000D02*
X61695901Y-37456619D01*
X61695901Y-37456619D02*
X61410187Y-37456619D01*
X61410187Y-37456619D02*
X61314949Y-37409000D01*
X61314949Y-37409000D02*
X61267330Y-37361380D01*
X62791139Y-36456619D02*
X62314949Y-36456619D01*
X62314949Y-36456619D02*
X62267330Y-36932809D01*
X62267330Y-36932809D02*
X62314949Y-36885190D01*
X62314949Y-36885190D02*
X62410187Y-36837571D01*
X62410187Y-36837571D02*
X62648282Y-36837571D01*
X62648282Y-36837571D02*
X62743520Y-36885190D01*
X62743520Y-36885190D02*
X62791139Y-36932809D01*
X62791139Y-36932809D02*
X62838758Y-37028047D01*
X62838758Y-37028047D02*
X62838758Y-37266142D01*
X62838758Y-37266142D02*
X62791139Y-37361380D01*
X62791139Y-37361380D02*
X62743520Y-37409000D01*
X62743520Y-37409000D02*
X62648282Y-37456619D01*
X62648282Y-37456619D02*
X62410187Y-37456619D01*
X62410187Y-37456619D02*
X62314949Y-37409000D01*
X62314949Y-37409000D02*
X62267330Y-37361380D01*
D11*
X20967819Y-34877125D02*
X21967819Y-34610458D01*
X21967819Y-34610458D02*
X20967819Y-34343792D01*
X21967819Y-34077125D02*
X20967819Y-34077125D01*
X21967819Y-33696173D02*
X20967819Y-33696173D01*
X20967819Y-33696173D02*
X21967819Y-33239030D01*
X21967819Y-33239030D02*
X20967819Y-33239030D01*
G36*
X56795395Y-78757104D02*
G01*
X56609686Y-78757104D01*
X56702540Y-78408899D01*
X56795395Y-78757104D01*
G37*
G36*
X59510670Y-79335676D02*
G01*
X56220549Y-79335676D01*
X56220549Y-79098494D01*
X56363406Y-79098494D01*
X56367939Y-79149597D01*
X56404259Y-79185830D01*
X56455372Y-79190240D01*
X56497362Y-79160764D01*
X56508342Y-79137144D01*
X56569686Y-78907104D01*
X56835395Y-78907104D01*
X56896739Y-79137144D01*
X56926116Y-79179204D01*
X56975654Y-79192542D01*
X57022177Y-79170916D01*
X57043914Y-79124446D01*
X57041675Y-79098495D01*
X56932543Y-78689247D01*
X57122778Y-78689247D01*
X57123973Y-78692531D01*
X57124235Y-78703956D01*
X57162330Y-78894432D01*
X57164099Y-78897340D01*
X57166238Y-78907577D01*
X57204333Y-79002815D01*
X57206100Y-79004791D01*
X57215403Y-79021813D01*
X57291594Y-79117052D01*
X57296650Y-79120131D01*
X57299374Y-79125390D01*
X57321313Y-79139431D01*
X57435599Y-79187050D01*
X57437406Y-79187132D01*
X57438793Y-79188296D01*
X57464445Y-79192819D01*
X57540636Y-79192819D01*
X57542336Y-79192200D01*
X57544064Y-79192741D01*
X57569482Y-79187050D01*
X57683767Y-79139431D01*
X57688124Y-79135421D01*
X57693930Y-79134257D01*
X57713486Y-79117052D01*
X57751582Y-79069432D01*
X57767996Y-79020826D01*
X57749327Y-78973041D01*
X57704309Y-78948435D01*
X57654008Y-78958523D01*
X57634452Y-78975728D01*
X57608351Y-79008353D01*
X57525636Y-79042819D01*
X57479445Y-79042819D01*
X57396729Y-79008354D01*
X57339477Y-78936787D01*
X57308065Y-78858258D01*
X57272778Y-78681822D01*
X57272778Y-78553814D01*
X57308065Y-78377378D01*
X57339478Y-78298847D01*
X57396728Y-78227284D01*
X57479445Y-78192819D01*
X57525636Y-78192819D01*
X57608350Y-78227283D01*
X57634453Y-78259910D01*
X57678271Y-78286593D01*
X57728989Y-78278869D01*
X57762875Y-78240350D01*
X57764075Y-78189061D01*
X57751582Y-78166205D01*
X57713486Y-78118585D01*
X57708429Y-78115505D01*
X57705707Y-78110249D01*
X57697185Y-78104795D01*
X57847727Y-78104795D01*
X57856636Y-78155319D01*
X57895936Y-78188296D01*
X57921588Y-78192819D01*
X58075159Y-78192819D01*
X58075159Y-79117819D01*
X58092706Y-79166028D01*
X58137135Y-79191680D01*
X58187659Y-79182771D01*
X58220636Y-79143471D01*
X58225159Y-79117819D01*
X58225159Y-79104795D01*
X58533441Y-79104795D01*
X58536368Y-79121396D01*
X58535126Y-79138205D01*
X58540695Y-79145935D01*
X58542350Y-79155319D01*
X58555261Y-79166153D01*
X58565115Y-79179830D01*
X58574351Y-79182171D01*
X58581650Y-79188296D01*
X58607302Y-79192819D01*
X59293017Y-79192819D01*
X59301969Y-79189560D01*
X59311450Y-79190519D01*
X59325388Y-79181036D01*
X59341226Y-79175272D01*
X59345989Y-79167021D01*
X59353868Y-79161662D01*
X59358449Y-79145440D01*
X59366878Y-79130843D01*
X59365223Y-79121458D01*
X59367813Y-79112290D01*
X59361411Y-79087042D01*
X59018554Y-78325137D01*
X59011212Y-78317595D01*
X59007613Y-78307705D01*
X58998499Y-78302442D01*
X58992347Y-78293904D01*
X58986776Y-78292491D01*
X58982769Y-78288375D01*
X58972300Y-78287316D01*
X58963184Y-78282053D01*
X58952816Y-78283881D01*
X58942617Y-78281295D01*
X58937444Y-78283792D01*
X58931727Y-78283214D01*
X58923024Y-78289134D01*
X58912660Y-78290962D01*
X58905895Y-78299024D01*
X58896417Y-78303600D01*
X58891812Y-78310368D01*
X58889309Y-78312072D01*
X58888354Y-78315452D01*
X58881766Y-78325137D01*
X58538908Y-79087042D01*
X58538205Y-79096542D01*
X58533441Y-79104795D01*
X58225159Y-79104795D01*
X58225159Y-78192819D01*
X58378731Y-78192819D01*
X58426940Y-78175272D01*
X58452592Y-78130843D01*
X58443683Y-78080319D01*
X58404383Y-78047342D01*
X58378731Y-78042819D01*
X57921588Y-78042819D01*
X57873379Y-78060366D01*
X57847727Y-78104795D01*
X57697185Y-78104795D01*
X57683767Y-78096207D01*
X57569482Y-78048588D01*
X57567674Y-78048505D01*
X57566288Y-78047342D01*
X57540636Y-78042819D01*
X57464445Y-78042819D01*
X57462745Y-78043437D01*
X57461018Y-78042897D01*
X57435599Y-78048588D01*
X57321313Y-78096207D01*
X57316955Y-78100216D01*
X57311150Y-78101381D01*
X57291594Y-78118586D01*
X57215404Y-78213824D01*
X57214556Y-78216333D01*
X57204333Y-78232822D01*
X57166238Y-78328060D01*
X57166131Y-78331460D01*
X57162330Y-78341205D01*
X57124235Y-78531681D01*
X57124762Y-78535133D01*
X57122778Y-78546390D01*
X57122778Y-78689247D01*
X56932543Y-78689247D01*
X56775009Y-78098494D01*
X56771081Y-78092871D01*
X56770476Y-78086041D01*
X56756740Y-78072338D01*
X56745632Y-78056434D01*
X56739010Y-78054651D01*
X56734156Y-78049808D01*
X56714829Y-78048140D01*
X56696094Y-78043096D01*
X56689874Y-78045987D01*
X56683043Y-78045398D01*
X56667165Y-78056543D01*
X56649572Y-78064722D01*
X56646666Y-78070933D01*
X56641053Y-78074874D01*
X56630073Y-78098494D01*
X56363406Y-79098494D01*
X56220549Y-79098494D01*
X56220549Y-77899962D01*
X59510670Y-77899962D01*
X59510670Y-79335676D01*
G37*
X37808819Y-64833238D02*
X38523104Y-64833238D01*
X38523104Y-64833238D02*
X38665961Y-64880857D01*
X38665961Y-64880857D02*
X38761200Y-64976095D01*
X38761200Y-64976095D02*
X38808819Y-65118952D01*
X38808819Y-65118952D02*
X38808819Y-65214190D01*
X38808819Y-64357047D02*
X37808819Y-64357047D01*
X37808819Y-64357047D02*
X37808819Y-63976095D01*
X37808819Y-63976095D02*
X37856438Y-63880857D01*
X37856438Y-63880857D02*
X37904057Y-63833238D01*
X37904057Y-63833238D02*
X37999295Y-63785619D01*
X37999295Y-63785619D02*
X38142152Y-63785619D01*
X38142152Y-63785619D02*
X38237390Y-63833238D01*
X38237390Y-63833238D02*
X38285009Y-63880857D01*
X38285009Y-63880857D02*
X38332628Y-63976095D01*
X38332628Y-63976095D02*
X38332628Y-64357047D01*
X38904057Y-63595143D02*
X38904057Y-62833238D01*
X38808819Y-62118952D02*
X38808819Y-62595142D01*
X38808819Y-62595142D02*
X37808819Y-62595142D01*
X38285009Y-61785618D02*
X38285009Y-61452285D01*
X38808819Y-61309428D02*
X38808819Y-61785618D01*
X38808819Y-61785618D02*
X37808819Y-61785618D01*
X37808819Y-61785618D02*
X37808819Y-61309428D01*
X38808819Y-60880856D02*
X37808819Y-60880856D01*
X37808819Y-60880856D02*
X37808819Y-60642761D01*
X37808819Y-60642761D02*
X37856438Y-60499904D01*
X37856438Y-60499904D02*
X37951676Y-60404666D01*
X37951676Y-60404666D02*
X38046914Y-60357047D01*
X38046914Y-60357047D02*
X38237390Y-60309428D01*
X38237390Y-60309428D02*
X38380247Y-60309428D01*
X38380247Y-60309428D02*
X38570723Y-60357047D01*
X38570723Y-60357047D02*
X38665961Y-60404666D01*
X38665961Y-60404666D02*
X38761200Y-60499904D01*
X38761200Y-60499904D02*
X38808819Y-60642761D01*
X38808819Y-60642761D02*
X38808819Y-60880856D01*
D12*
G36*
X63986904Y-28732970D02*
G01*
X64043315Y-28789381D01*
X64078805Y-28931341D01*
X64078805Y-29233896D01*
X64043315Y-29375855D01*
X63986901Y-29432269D01*
X63936202Y-29457619D01*
X63804743Y-29457619D01*
X63754042Y-29432268D01*
X63697628Y-29375855D01*
X63662139Y-29233896D01*
X63662139Y-28931341D01*
X63697629Y-28789381D01*
X63754039Y-28732970D01*
X63804743Y-28707619D01*
X63936202Y-28707619D01*
X63986904Y-28732970D01*
G37*
G36*
X62510713Y-28732969D02*
G01*
X62529645Y-28751902D01*
X62554996Y-28802603D01*
X62554996Y-28886443D01*
X62529645Y-28937144D01*
X62510713Y-28956077D01*
X62460012Y-28981428D01*
X62233568Y-28981428D01*
X62233568Y-28707619D01*
X62460012Y-28707619D01*
X62510713Y-28732969D01*
G37*
G36*
X64471662Y-29850476D02*
G01*
X60793092Y-29850476D01*
X60793092Y-29154047D01*
X60935949Y-29154047D01*
X60936907Y-29157310D01*
X60939681Y-29184364D01*
X60987300Y-29374840D01*
X60989519Y-29378622D01*
X60996765Y-29400425D01*
X61044383Y-29495662D01*
X61045977Y-29497376D01*
X61046476Y-29499667D01*
X61067798Y-29528149D01*
X61163036Y-29623388D01*
X61172980Y-29628818D01*
X61180088Y-29637646D01*
X61211897Y-29653585D01*
X61354753Y-29701204D01*
X61357092Y-29701288D01*
X61359065Y-29702556D01*
X61394282Y-29707619D01*
X61489520Y-29707619D01*
X61491766Y-29706959D01*
X61494038Y-29707538D01*
X61529048Y-29701204D01*
X61671905Y-29653586D01*
X61681210Y-29647119D01*
X61692284Y-29644710D01*
X61720766Y-29623387D01*
X61761534Y-29582619D01*
X61983568Y-29582619D01*
X62003411Y-29650199D01*
X62056641Y-29696323D01*
X62126357Y-29706347D01*
X62190426Y-29677088D01*
X62228505Y-29617836D01*
X62233568Y-29582619D01*
X62983568Y-29582619D01*
X63003411Y-29650199D01*
X63056641Y-29696323D01*
X63126357Y-29706347D01*
X63190426Y-29677088D01*
X63228505Y-29617836D01*
X63233568Y-29582619D01*
X63233568Y-29249285D01*
X63412139Y-29249285D01*
X63413097Y-29252548D01*
X63415871Y-29279602D01*
X63463490Y-29470078D01*
X63471627Y-29483948D01*
X63475047Y-29499667D01*
X63496369Y-29528149D01*
X63591607Y-29623388D01*
X63593663Y-29624511D01*
X63594860Y-29626525D01*
X63624094Y-29646803D01*
X63719332Y-29694422D01*
X63730482Y-29696428D01*
X63740017Y-29702556D01*
X63775234Y-29707619D01*
X63965710Y-29707619D01*
X63976582Y-29704426D01*
X63987848Y-29705643D01*
X64021612Y-29694422D01*
X64116849Y-29646804D01*
X64118564Y-29645208D01*
X64120855Y-29644710D01*
X64149337Y-29623388D01*
X64244575Y-29528149D01*
X64252281Y-29514034D01*
X64264001Y-29503016D01*
X64277454Y-29470078D01*
X64325073Y-29279602D01*
X64324934Y-29276204D01*
X64328805Y-29249285D01*
X64328805Y-28915952D01*
X64327846Y-28912689D01*
X64325073Y-28885635D01*
X64277454Y-28695159D01*
X64269316Y-28681288D01*
X64265897Y-28665570D01*
X64244574Y-28637088D01*
X64149336Y-28541850D01*
X64147281Y-28540728D01*
X64146084Y-28538712D01*
X64116849Y-28518434D01*
X64021612Y-28470816D01*
X64010461Y-28468809D01*
X64000927Y-28462682D01*
X63965710Y-28457619D01*
X63775234Y-28457619D01*
X63764361Y-28460811D01*
X63753095Y-28459595D01*
X63719332Y-28470816D01*
X63624094Y-28518435D01*
X63622380Y-28520028D01*
X63620090Y-28520527D01*
X63591608Y-28541850D01*
X63496370Y-28637088D01*
X63488662Y-28651202D01*
X63476943Y-28662222D01*
X63463490Y-28695159D01*
X63415871Y-28885635D01*
X63416009Y-28889032D01*
X63412139Y-28915952D01*
X63412139Y-29249285D01*
X63233568Y-29249285D01*
X63233568Y-28582619D01*
X63213725Y-28515039D01*
X63160495Y-28468915D01*
X63090779Y-28458891D01*
X63026710Y-28488150D01*
X62988631Y-28547402D01*
X62983568Y-28582619D01*
X62983568Y-29582619D01*
X62233568Y-29582619D01*
X62233568Y-29231428D01*
X62489520Y-29231428D01*
X62500392Y-29228235D01*
X62511658Y-29229452D01*
X62545422Y-29218231D01*
X62640659Y-29170613D01*
X62642374Y-29169016D01*
X62644664Y-29168519D01*
X62673146Y-29147197D01*
X62720765Y-29099579D01*
X62721888Y-29097522D01*
X62723902Y-29096326D01*
X62744180Y-29067092D01*
X62791799Y-28971854D01*
X62793805Y-28960703D01*
X62799933Y-28951169D01*
X62804996Y-28915952D01*
X62804996Y-28773095D01*
X62801803Y-28762222D01*
X62803020Y-28750956D01*
X62791799Y-28717193D01*
X62744180Y-28621955D01*
X62742585Y-28620240D01*
X62742087Y-28617951D01*
X62720765Y-28589468D01*
X62673146Y-28541850D01*
X62671091Y-28540728D01*
X62669894Y-28538712D01*
X62640659Y-28518434D01*
X62545422Y-28470816D01*
X62534271Y-28468809D01*
X62524737Y-28462682D01*
X62489520Y-28457619D01*
X62108568Y-28457619D01*
X62099812Y-28460189D01*
X62090779Y-28458891D01*
X62066546Y-28469957D01*
X62040988Y-28477462D01*
X62035012Y-28484358D01*
X62026710Y-28488150D01*
X62012306Y-28510562D01*
X61994864Y-28530692D01*
X61993565Y-28539724D01*
X61988631Y-28547402D01*
X61983568Y-28582619D01*
X61983568Y-29582619D01*
X61761534Y-29582619D01*
X61768385Y-29575768D01*
X61783207Y-29548621D01*
X61799933Y-29522597D01*
X61800831Y-29516346D01*
X61802140Y-29513950D01*
X61801819Y-29509473D01*
X61804996Y-29487380D01*
X61804996Y-29154047D01*
X61802425Y-29145291D01*
X61803724Y-29136258D01*
X61792657Y-29112025D01*
X61785153Y-29086467D01*
X61778256Y-29080491D01*
X61774465Y-29072189D01*
X61752052Y-29057785D01*
X61731923Y-29040343D01*
X61722890Y-29039044D01*
X61715213Y-29034110D01*
X61679996Y-29029047D01*
X61489520Y-29029047D01*
X61421940Y-29048890D01*
X61375816Y-29102120D01*
X61365792Y-29171836D01*
X61395051Y-29235905D01*
X61454303Y-29273984D01*
X61489520Y-29279047D01*
X61554996Y-29279047D01*
X61554996Y-29429032D01*
X61469237Y-29457619D01*
X61414568Y-29457619D01*
X61318949Y-29425746D01*
X61258918Y-29365715D01*
X61226508Y-29300896D01*
X61185949Y-29138658D01*
X61185949Y-29026579D01*
X61226508Y-28864341D01*
X61258919Y-28799520D01*
X61318947Y-28739491D01*
X61414568Y-28707619D01*
X61507631Y-28707619D01*
X61576475Y-28742041D01*
X61645794Y-28754516D01*
X61710854Y-28727533D01*
X61750998Y-28669660D01*
X61753480Y-28599270D01*
X61717513Y-28538712D01*
X61688278Y-28518434D01*
X61593041Y-28470816D01*
X61581890Y-28468809D01*
X61572356Y-28462682D01*
X61537139Y-28457619D01*
X61394282Y-28457619D01*
X61392035Y-28458278D01*
X61389764Y-28457700D01*
X61354753Y-28464034D01*
X61211897Y-28511653D01*
X61202594Y-28518117D01*
X61191519Y-28520527D01*
X61163037Y-28541850D01*
X61067799Y-28637088D01*
X61066677Y-28639142D01*
X61064661Y-28640340D01*
X61044383Y-28669575D01*
X60996765Y-28764812D01*
X60995989Y-28769123D01*
X60987300Y-28790397D01*
X60939681Y-28980873D01*
X60939819Y-28984270D01*
X60935949Y-29011190D01*
X60935949Y-29154047D01*
X60793092Y-29154047D01*
X60793092Y-28314762D01*
X64471662Y-28314762D01*
X64471662Y-29850476D01*
G37*
G36*
X68295616Y-28739491D02*
G01*
X68355644Y-28799519D01*
X68388055Y-28864342D01*
X68428615Y-29026579D01*
X68428615Y-29138658D01*
X68388055Y-29300894D01*
X68355645Y-29365715D01*
X68295615Y-29425746D01*
X68199999Y-29457619D01*
X68107187Y-29457619D01*
X68107187Y-28707619D01*
X68199999Y-28707619D01*
X68295616Y-28739491D01*
G37*
G36*
X68821472Y-29850476D02*
G01*
X65619092Y-29850476D01*
X65619092Y-29154047D01*
X65761949Y-29154047D01*
X65762907Y-29157310D01*
X65765681Y-29184364D01*
X65813300Y-29374840D01*
X65815519Y-29378622D01*
X65822765Y-29400425D01*
X65870383Y-29495662D01*
X65871977Y-29497376D01*
X65872476Y-29499667D01*
X65893798Y-29528149D01*
X65989036Y-29623388D01*
X65998980Y-29628818D01*
X66006088Y-29637646D01*
X66037897Y-29653585D01*
X66180753Y-29701204D01*
X66183092Y-29701288D01*
X66185065Y-29702556D01*
X66220282Y-29707619D01*
X66315520Y-29707619D01*
X66317766Y-29706959D01*
X66320038Y-29707538D01*
X66355048Y-29701204D01*
X66497905Y-29653586D01*
X66507210Y-29647119D01*
X66518284Y-29644710D01*
X66546766Y-29623387D01*
X66587534Y-29582619D01*
X66809568Y-29582619D01*
X66829411Y-29650199D01*
X66882641Y-29696323D01*
X66952357Y-29706347D01*
X67016426Y-29677088D01*
X67054505Y-29617836D01*
X67059568Y-29582619D01*
X67059568Y-29053313D01*
X67397466Y-29644636D01*
X67399890Y-29646968D01*
X67400839Y-29650199D01*
X67425098Y-29671219D01*
X67448223Y-29693467D01*
X67451525Y-29694118D01*
X67454069Y-29696323D01*
X67485838Y-29700890D01*
X67517324Y-29707105D01*
X67520454Y-29705868D01*
X67523785Y-29706347D01*
X67552977Y-29693015D01*
X67582828Y-29681219D01*
X67584792Y-29678486D01*
X67587854Y-29677088D01*
X67605208Y-29650084D01*
X67623938Y-29624028D01*
X67624113Y-29620667D01*
X67625933Y-29617836D01*
X67630996Y-29582619D01*
X67857187Y-29582619D01*
X67859757Y-29591374D01*
X67858459Y-29600408D01*
X67869525Y-29624640D01*
X67877030Y-29650199D01*
X67883926Y-29656174D01*
X67887718Y-29664477D01*
X67910130Y-29678880D01*
X67930260Y-29696323D01*
X67939292Y-29697621D01*
X67946970Y-29702556D01*
X67982187Y-29707619D01*
X68220282Y-29707619D01*
X68222528Y-29706959D01*
X68224800Y-29707538D01*
X68259810Y-29701204D01*
X68402667Y-29653586D01*
X68411972Y-29647118D01*
X68423046Y-29644710D01*
X68451528Y-29623388D01*
X68546766Y-29528149D01*
X68547888Y-29526092D01*
X68549902Y-29524897D01*
X68570180Y-29495663D01*
X68617799Y-29400425D01*
X68618574Y-29396114D01*
X68627264Y-29374840D01*
X68674883Y-29184364D01*
X68674744Y-29180966D01*
X68678615Y-29154047D01*
X68678615Y-29011190D01*
X68677656Y-29007927D01*
X68674883Y-28980873D01*
X68627264Y-28790397D01*
X68625045Y-28786614D01*
X68617799Y-28764812D01*
X68570180Y-28669574D01*
X68568586Y-28667860D01*
X68568088Y-28665570D01*
X68546765Y-28637088D01*
X68451527Y-28541850D01*
X68441583Y-28536420D01*
X68434476Y-28527592D01*
X68402667Y-28511652D01*
X68259810Y-28464034D01*
X68257471Y-28463949D01*
X68255499Y-28462682D01*
X68220282Y-28457619D01*
X67982187Y-28457619D01*
X67973431Y-28460189D01*
X67964398Y-28458891D01*
X67940165Y-28469957D01*
X67914607Y-28477462D01*
X67908631Y-28484358D01*
X67900329Y-28488150D01*
X67885925Y-28510562D01*
X67868483Y-28530692D01*
X67867184Y-28539724D01*
X67862250Y-28547402D01*
X67857187Y-28582619D01*
X67857187Y-29582619D01*
X67630996Y-29582619D01*
X67630996Y-28582619D01*
X67611153Y-28515039D01*
X67557923Y-28468915D01*
X67488207Y-28458891D01*
X67424138Y-28488150D01*
X67386059Y-28547402D01*
X67380996Y-28582619D01*
X67380996Y-29111923D01*
X67043098Y-28520602D01*
X67040673Y-28518269D01*
X67039725Y-28515039D01*
X67015465Y-28494018D01*
X66992341Y-28471771D01*
X66989038Y-28471119D01*
X66986495Y-28468915D01*
X66954725Y-28464347D01*
X66923240Y-28458133D01*
X66920109Y-28459369D01*
X66916779Y-28458891D01*
X66887582Y-28472224D01*
X66857737Y-28484019D01*
X66855773Y-28486751D01*
X66852710Y-28488150D01*
X66835351Y-28515159D01*
X66816626Y-28541210D01*
X66816450Y-28544570D01*
X66814631Y-28547402D01*
X66809568Y-28582619D01*
X66809568Y-29582619D01*
X66587534Y-29582619D01*
X66594385Y-29575768D01*
X66609207Y-29548621D01*
X66625933Y-29522597D01*
X66626831Y-29516346D01*
X66628140Y-29513950D01*
X66627819Y-29509473D01*
X66630996Y-29487380D01*
X66630996Y-29154047D01*
X66628425Y-29145291D01*
X66629724Y-29136258D01*
X66618657Y-29112025D01*
X66611153Y-29086467D01*
X66604256Y-29080491D01*
X66600465Y-29072189D01*
X66578052Y-29057785D01*
X66557923Y-29040343D01*
X66548890Y-29039044D01*
X66541213Y-29034110D01*
X66505996Y-29029047D01*
X66315520Y-29029047D01*
X66247940Y-29048890D01*
X66201816Y-29102120D01*
X66191792Y-29171836D01*
X66221051Y-29235905D01*
X66280303Y-29273984D01*
X66315520Y-29279047D01*
X66380996Y-29279047D01*
X66380996Y-29429032D01*
X66295237Y-29457619D01*
X66240568Y-29457619D01*
X66144949Y-29425746D01*
X66084918Y-29365715D01*
X66052508Y-29300896D01*
X66011949Y-29138658D01*
X66011949Y-29026579D01*
X66052508Y-28864341D01*
X66084919Y-28799520D01*
X66144947Y-28739491D01*
X66240568Y-28707619D01*
X66333631Y-28707619D01*
X66402475Y-28742041D01*
X66471794Y-28754516D01*
X66536854Y-28727533D01*
X66576998Y-28669660D01*
X66579480Y-28599270D01*
X66543513Y-28538712D01*
X66514278Y-28518434D01*
X66419041Y-28470816D01*
X66407890Y-28468809D01*
X66398356Y-28462682D01*
X66363139Y-28457619D01*
X66220282Y-28457619D01*
X66218035Y-28458278D01*
X66215764Y-28457700D01*
X66180753Y-28464034D01*
X66037897Y-28511653D01*
X66028594Y-28518117D01*
X66017519Y-28520527D01*
X65989037Y-28541850D01*
X65893799Y-28637088D01*
X65892677Y-28639142D01*
X65890661Y-28640340D01*
X65870383Y-28669575D01*
X65822765Y-28764812D01*
X65821989Y-28769123D01*
X65813300Y-28790397D01*
X65765681Y-28980873D01*
X65765819Y-28984270D01*
X65761949Y-29011190D01*
X65761949Y-29154047D01*
X65619092Y-29154047D01*
X65619092Y-28314762D01*
X68821472Y-28314762D01*
X68821472Y-29850476D01*
G37*
X61267330Y-38996619D02*
X61886377Y-38996619D01*
X61886377Y-38996619D02*
X61553044Y-39377571D01*
X61553044Y-39377571D02*
X61695901Y-39377571D01*
X61695901Y-39377571D02*
X61791139Y-39425190D01*
X61791139Y-39425190D02*
X61838758Y-39472809D01*
X61838758Y-39472809D02*
X61886377Y-39568047D01*
X61886377Y-39568047D02*
X61886377Y-39806142D01*
X61886377Y-39806142D02*
X61838758Y-39901380D01*
X61838758Y-39901380D02*
X61791139Y-39949000D01*
X61791139Y-39949000D02*
X61695901Y-39996619D01*
X61695901Y-39996619D02*
X61410187Y-39996619D01*
X61410187Y-39996619D02*
X61314949Y-39949000D01*
X61314949Y-39949000D02*
X61267330Y-39901380D01*
X62743520Y-39329952D02*
X62743520Y-39996619D01*
X62505425Y-38949000D02*
X62267330Y-39663285D01*
X62267330Y-39663285D02*
X62886377Y-39663285D01*
D11*
X20713819Y-54651030D02*
X20713819Y-54155792D01*
X20713819Y-54155792D02*
X21094771Y-54422458D01*
X21094771Y-54422458D02*
X21094771Y-54308173D01*
X21094771Y-54308173D02*
X21142390Y-54231982D01*
X21142390Y-54231982D02*
X21190009Y-54193887D01*
X21190009Y-54193887D02*
X21285247Y-54155792D01*
X21285247Y-54155792D02*
X21523342Y-54155792D01*
X21523342Y-54155792D02*
X21618580Y-54193887D01*
X21618580Y-54193887D02*
X21666200Y-54231982D01*
X21666200Y-54231982D02*
X21713819Y-54308173D01*
X21713819Y-54308173D02*
X21713819Y-54536744D01*
X21713819Y-54536744D02*
X21666200Y-54612935D01*
X21666200Y-54612935D02*
X21618580Y-54651030D01*
X20713819Y-53927220D02*
X21713819Y-53660553D01*
X21713819Y-53660553D02*
X20713819Y-53393887D01*
X20713819Y-53203411D02*
X20713819Y-52708173D01*
X20713819Y-52708173D02*
X21094771Y-52974839D01*
X21094771Y-52974839D02*
X21094771Y-52860554D01*
X21094771Y-52860554D02*
X21142390Y-52784363D01*
X21142390Y-52784363D02*
X21190009Y-52746268D01*
X21190009Y-52746268D02*
X21285247Y-52708173D01*
X21285247Y-52708173D02*
X21523342Y-52708173D01*
X21523342Y-52708173D02*
X21618580Y-52746268D01*
X21618580Y-52746268D02*
X21666200Y-52784363D01*
X21666200Y-52784363D02*
X21713819Y-52860554D01*
X21713819Y-52860554D02*
X21713819Y-53089125D01*
X21713819Y-53089125D02*
X21666200Y-53165316D01*
X21666200Y-53165316D02*
X21618580Y-53203411D01*
D12*
X61886377Y-49902619D02*
X61314949Y-49902619D01*
X61600663Y-49902619D02*
X61600663Y-48902619D01*
X61600663Y-48902619D02*
X61505425Y-49045476D01*
X61505425Y-49045476D02*
X61410187Y-49140714D01*
X61410187Y-49140714D02*
X61314949Y-49188333D01*
X62362568Y-49902619D02*
X62553044Y-49902619D01*
X62553044Y-49902619D02*
X62648282Y-49855000D01*
X62648282Y-49855000D02*
X62695901Y-49807380D01*
X62695901Y-49807380D02*
X62791139Y-49664523D01*
X62791139Y-49664523D02*
X62838758Y-49474047D01*
X62838758Y-49474047D02*
X62838758Y-49093095D01*
X62838758Y-49093095D02*
X62791139Y-48997857D01*
X62791139Y-48997857D02*
X62743520Y-48950238D01*
X62743520Y-48950238D02*
X62648282Y-48902619D01*
X62648282Y-48902619D02*
X62457806Y-48902619D01*
X62457806Y-48902619D02*
X62362568Y-48950238D01*
X62362568Y-48950238D02*
X62314949Y-48997857D01*
X62314949Y-48997857D02*
X62267330Y-49093095D01*
X62267330Y-49093095D02*
X62267330Y-49331190D01*
X62267330Y-49331190D02*
X62314949Y-49426428D01*
X62314949Y-49426428D02*
X62362568Y-49474047D01*
X62362568Y-49474047D02*
X62457806Y-49521666D01*
X62457806Y-49521666D02*
X62648282Y-49521666D01*
X62648282Y-49521666D02*
X62743520Y-49474047D01*
X62743520Y-49474047D02*
X62791139Y-49426428D01*
X62791139Y-49426428D02*
X62838758Y-49331190D01*
G36*
X68535758Y-58298476D02*
G01*
X65571791Y-58298476D01*
X65571791Y-57926461D01*
X65714648Y-57926461D01*
X65729619Y-57995285D01*
X65750941Y-58023767D01*
X65798560Y-58071387D01*
X65800616Y-58072509D01*
X65801813Y-58074525D01*
X65831047Y-58094803D01*
X65926285Y-58142422D01*
X65937435Y-58144428D01*
X65946970Y-58150556D01*
X65982187Y-58155619D01*
X66267901Y-58155619D01*
X66278773Y-58152426D01*
X66290039Y-58153643D01*
X66323803Y-58142422D01*
X66419040Y-58094804D01*
X66420755Y-58093208D01*
X66423046Y-58092710D01*
X66451528Y-58071387D01*
X66499147Y-58023768D01*
X66500269Y-58021711D01*
X66502283Y-58020516D01*
X66522561Y-57991282D01*
X66570180Y-57896044D01*
X66572186Y-57884893D01*
X66578314Y-57875359D01*
X66583377Y-57840142D01*
X66583377Y-57602047D01*
X66580184Y-57591174D01*
X66581401Y-57579908D01*
X66570180Y-57546145D01*
X66522561Y-57450907D01*
X66520966Y-57449192D01*
X66520468Y-57446903D01*
X66499146Y-57418420D01*
X66451527Y-57370802D01*
X66449472Y-57369680D01*
X66448275Y-57367664D01*
X66419040Y-57347386D01*
X66369134Y-57322433D01*
X66552449Y-57112932D01*
X66560118Y-57096351D01*
X66572081Y-57082546D01*
X66574596Y-57065050D01*
X66582018Y-57049006D01*
X66580092Y-57035137D01*
X66619173Y-57035137D01*
X66625507Y-57070147D01*
X66958839Y-58070147D01*
X66976462Y-58095505D01*
X66992206Y-58122067D01*
X66996374Y-58124156D01*
X66999035Y-58127984D01*
X67027561Y-58139784D01*
X67055175Y-58153623D01*
X67059812Y-58153126D01*
X67064119Y-58154908D01*
X67094493Y-58149414D01*
X67125209Y-58146126D01*
X67128841Y-58143201D01*
X67133427Y-58142372D01*
X67156009Y-58121328D01*
X67180071Y-58101956D01*
X67182937Y-58096234D01*
X67184956Y-58094354D01*
X67186068Y-58089986D01*
X67196010Y-58070147D01*
X67529343Y-57070148D01*
X67529762Y-57058559D01*
X67554385Y-57112477D01*
X67613637Y-57150556D01*
X67648854Y-57155619D01*
X67992430Y-57155619D01*
X67840496Y-57329258D01*
X67832827Y-57345837D01*
X67820864Y-57359644D01*
X67818348Y-57377141D01*
X67810928Y-57393184D01*
X67813440Y-57411277D01*
X67810840Y-57429360D01*
X67818183Y-57445439D01*
X67820614Y-57462948D01*
X67832510Y-57476811D01*
X67840099Y-57493429D01*
X67854969Y-57502985D01*
X67866480Y-57516400D01*
X67883982Y-57521631D01*
X67899351Y-57531508D01*
X67933410Y-57536404D01*
X67933964Y-57536570D01*
X67934162Y-57536512D01*
X67934568Y-57536571D01*
X68047917Y-57536571D01*
X68098618Y-57561921D01*
X68117550Y-57580854D01*
X68142901Y-57631555D01*
X68142901Y-57810633D01*
X68117549Y-57861336D01*
X68098618Y-57880268D01*
X68047917Y-57905619D01*
X67821220Y-57905619D01*
X67770518Y-57880268D01*
X67737243Y-57846993D01*
X67675426Y-57813237D01*
X67605172Y-57818261D01*
X67548787Y-57860469D01*
X67524172Y-57926461D01*
X67539143Y-57995285D01*
X67560465Y-58023767D01*
X67608084Y-58071387D01*
X67610140Y-58072509D01*
X67611337Y-58074525D01*
X67640571Y-58094803D01*
X67735809Y-58142422D01*
X67746959Y-58144428D01*
X67756494Y-58150556D01*
X67791711Y-58155619D01*
X68077425Y-58155619D01*
X68088297Y-58152426D01*
X68099563Y-58153643D01*
X68133327Y-58142422D01*
X68228564Y-58094804D01*
X68230279Y-58093208D01*
X68232570Y-58092710D01*
X68261052Y-58071387D01*
X68308671Y-58023768D01*
X68309793Y-58021711D01*
X68311807Y-58020516D01*
X68332085Y-57991282D01*
X68379704Y-57896044D01*
X68381710Y-57884893D01*
X68387838Y-57875359D01*
X68392901Y-57840142D01*
X68392901Y-57602047D01*
X68389708Y-57591174D01*
X68390925Y-57579908D01*
X68379704Y-57546145D01*
X68332085Y-57450907D01*
X68330490Y-57449192D01*
X68329992Y-57446903D01*
X68308670Y-57418420D01*
X68261051Y-57370802D01*
X68258996Y-57369680D01*
X68257799Y-57367664D01*
X68228564Y-57347386D01*
X68178658Y-57322433D01*
X68361973Y-57112932D01*
X68369642Y-57096351D01*
X68381605Y-57082546D01*
X68384120Y-57065050D01*
X68391542Y-57049006D01*
X68389029Y-57030910D01*
X68391629Y-57012830D01*
X68384286Y-56996751D01*
X68381855Y-56979242D01*
X68369958Y-56965378D01*
X68362370Y-56948761D01*
X68347499Y-56939204D01*
X68335989Y-56925790D01*
X68318486Y-56920558D01*
X68303118Y-56910682D01*
X68269058Y-56905785D01*
X68268505Y-56905620D01*
X68268306Y-56905677D01*
X68267901Y-56905619D01*
X67648854Y-56905619D01*
X67581274Y-56925462D01*
X67535150Y-56978692D01*
X67531811Y-57001913D01*
X67531889Y-56999761D01*
X67495976Y-56939171D01*
X67433008Y-56907615D01*
X67362974Y-56915113D01*
X67308112Y-56959282D01*
X67292172Y-56991091D01*
X67077424Y-57635334D01*
X66862677Y-56991091D01*
X66822482Y-56933253D01*
X66757398Y-56906329D01*
X66688090Y-56918866D01*
X66636561Y-56966884D01*
X66619173Y-57035137D01*
X66580092Y-57035137D01*
X66579505Y-57030910D01*
X66582105Y-57012830D01*
X66574762Y-56996751D01*
X66572331Y-56979242D01*
X66560434Y-56965378D01*
X66552846Y-56948761D01*
X66537975Y-56939204D01*
X66526465Y-56925790D01*
X66508962Y-56920558D01*
X66493594Y-56910682D01*
X66459534Y-56905785D01*
X66458981Y-56905620D01*
X66458782Y-56905677D01*
X66458377Y-56905619D01*
X65839330Y-56905619D01*
X65771750Y-56925462D01*
X65725626Y-56978692D01*
X65715602Y-57048408D01*
X65744861Y-57112477D01*
X65804113Y-57150556D01*
X65839330Y-57155619D01*
X66182906Y-57155619D01*
X66030972Y-57329258D01*
X66023303Y-57345837D01*
X66011340Y-57359644D01*
X66008824Y-57377141D01*
X66001404Y-57393184D01*
X66003916Y-57411277D01*
X66001316Y-57429360D01*
X66008659Y-57445439D01*
X66011090Y-57462948D01*
X66022986Y-57476811D01*
X66030575Y-57493429D01*
X66045445Y-57502985D01*
X66056956Y-57516400D01*
X66074458Y-57521631D01*
X66089827Y-57531508D01*
X66123886Y-57536404D01*
X66124440Y-57536570D01*
X66124638Y-57536512D01*
X66125044Y-57536571D01*
X66238393Y-57536571D01*
X66289094Y-57561921D01*
X66308026Y-57580854D01*
X66333377Y-57631555D01*
X66333377Y-57810633D01*
X66308025Y-57861336D01*
X66289094Y-57880268D01*
X66238393Y-57905619D01*
X66011696Y-57905619D01*
X65960994Y-57880268D01*
X65927719Y-57846993D01*
X65865902Y-57813237D01*
X65795648Y-57818261D01*
X65739263Y-57860469D01*
X65714648Y-57926461D01*
X65571791Y-57926461D01*
X65571791Y-56762762D01*
X68535758Y-56762762D01*
X68535758Y-58298476D01*
G37*
G36*
X30441904Y-54335621D02*
G01*
X30247903Y-54270955D01*
X30441904Y-54206288D01*
X30441904Y-54335621D01*
G37*
G36*
X30207145Y-52707020D02*
G01*
X30226077Y-52725953D01*
X30251428Y-52776654D01*
X30251428Y-53003098D01*
X29977619Y-53003098D01*
X29977619Y-52776654D01*
X30002969Y-52725952D01*
X30021902Y-52707020D01*
X30072604Y-52681670D01*
X30156444Y-52681670D01*
X30207145Y-52707020D01*
G37*
G36*
X31120476Y-54868276D02*
G01*
X29584762Y-54868276D01*
X29584762Y-54257649D01*
X29728329Y-54257649D01*
X29733824Y-54288031D01*
X29737112Y-54318739D01*
X29740036Y-54322371D01*
X29740866Y-54326957D01*
X29761909Y-54349539D01*
X29781282Y-54373601D01*
X29787003Y-54376467D01*
X29788884Y-54378486D01*
X29793251Y-54379598D01*
X29813091Y-54389540D01*
X30813090Y-54722873D01*
X30883477Y-54725419D01*
X30944067Y-54689506D01*
X30975623Y-54626538D01*
X30968125Y-54556504D01*
X30923956Y-54501642D01*
X30892147Y-54485702D01*
X30691904Y-54418954D01*
X30691904Y-54122955D01*
X30892147Y-54056208D01*
X30949984Y-54016012D01*
X30976908Y-53950928D01*
X30964372Y-53881620D01*
X30916354Y-53830091D01*
X30848101Y-53812703D01*
X30813090Y-53819037D01*
X29813091Y-54152370D01*
X29787734Y-54169991D01*
X29761171Y-54185736D01*
X29759082Y-54189903D01*
X29755253Y-54192565D01*
X29743447Y-54221102D01*
X29729615Y-54248705D01*
X29730111Y-54253340D01*
X29728329Y-54257649D01*
X29584762Y-54257649D01*
X29584762Y-53622077D01*
X29728891Y-53622077D01*
X29758150Y-53686146D01*
X29817402Y-53724225D01*
X29852619Y-53729288D01*
X30852619Y-53729288D01*
X30920199Y-53709445D01*
X30966323Y-53656215D01*
X30976347Y-53586499D01*
X30947088Y-53522430D01*
X30887836Y-53484351D01*
X30852619Y-53479288D01*
X29852619Y-53479288D01*
X29785039Y-53499131D01*
X29738915Y-53552361D01*
X29728891Y-53622077D01*
X29584762Y-53622077D01*
X29584762Y-53128098D01*
X29727619Y-53128098D01*
X29730189Y-53136853D01*
X29728891Y-53145887D01*
X29739957Y-53170119D01*
X29747462Y-53195678D01*
X29754358Y-53201653D01*
X29758150Y-53209956D01*
X29780562Y-53224359D01*
X29800692Y-53241802D01*
X29809724Y-53243100D01*
X29817402Y-53248035D01*
X29852619Y-53253098D01*
X30852619Y-53253098D01*
X30920199Y-53233255D01*
X30966323Y-53180025D01*
X30976347Y-53110309D01*
X30947088Y-53046240D01*
X30887836Y-53008161D01*
X30852619Y-53003098D01*
X30501428Y-53003098D01*
X30501428Y-52955085D01*
X30924302Y-52659074D01*
X30968286Y-52604063D01*
X30975547Y-52534005D01*
X30943780Y-52471143D01*
X30883069Y-52435435D01*
X30812691Y-52438218D01*
X30780936Y-52454266D01*
X30476347Y-52667477D01*
X30440612Y-52596006D01*
X30439017Y-52594291D01*
X30438519Y-52592002D01*
X30417197Y-52563519D01*
X30369578Y-52515901D01*
X30367523Y-52514779D01*
X30366326Y-52512763D01*
X30337091Y-52492485D01*
X30241854Y-52444867D01*
X30230703Y-52442860D01*
X30221169Y-52436733D01*
X30185952Y-52431670D01*
X30043095Y-52431670D01*
X30032222Y-52434862D01*
X30020956Y-52433646D01*
X29987193Y-52444867D01*
X29891955Y-52492486D01*
X29890240Y-52494080D01*
X29887951Y-52494579D01*
X29859468Y-52515901D01*
X29811850Y-52563520D01*
X29810728Y-52565574D01*
X29808712Y-52566772D01*
X29788434Y-52596007D01*
X29740816Y-52691244D01*
X29738809Y-52702394D01*
X29732682Y-52711929D01*
X29727619Y-52747146D01*
X29727619Y-53128098D01*
X29584762Y-53128098D01*
X29584762Y-51223336D01*
X29727619Y-51223336D01*
X29730811Y-51234208D01*
X29729595Y-51245474D01*
X29740816Y-51279238D01*
X29788434Y-51374475D01*
X29790030Y-51376190D01*
X29790528Y-51378480D01*
X29811850Y-51406962D01*
X29859468Y-51454581D01*
X29861524Y-51455704D01*
X29862721Y-51457718D01*
X29891955Y-51477996D01*
X29987193Y-51525615D01*
X29998343Y-51527621D01*
X30007878Y-51533749D01*
X30043095Y-51538812D01*
X30138333Y-51538812D01*
X30149205Y-51535619D01*
X30160471Y-51536836D01*
X30194235Y-51525615D01*
X30289472Y-51477997D01*
X30291187Y-51476400D01*
X30293477Y-51475903D01*
X30321959Y-51454581D01*
X30369578Y-51406963D01*
X30370701Y-51404906D01*
X30372715Y-51403710D01*
X30392993Y-51374476D01*
X30440612Y-51279238D01*
X30441387Y-51274927D01*
X30450077Y-51253653D01*
X30494368Y-51076487D01*
X30526778Y-51011666D01*
X30545711Y-50992734D01*
X30596413Y-50967384D01*
X30632634Y-50967384D01*
X30683336Y-50992735D01*
X30702268Y-51011667D01*
X30727619Y-51062368D01*
X30727619Y-51250669D01*
X30686415Y-51374284D01*
X30683869Y-51444670D01*
X30719781Y-51505260D01*
X30782750Y-51536816D01*
X30852784Y-51529319D01*
X30907646Y-51485149D01*
X30923585Y-51453340D01*
X30971204Y-51310484D01*
X30971288Y-51308144D01*
X30972556Y-51306172D01*
X30977619Y-51270955D01*
X30977619Y-51032860D01*
X30974426Y-51021987D01*
X30975643Y-51010721D01*
X30964422Y-50976958D01*
X30916803Y-50881720D01*
X30915208Y-50880005D01*
X30914710Y-50877715D01*
X30893387Y-50849233D01*
X30845767Y-50801614D01*
X30843713Y-50800492D01*
X30842516Y-50798477D01*
X30813281Y-50778199D01*
X30718044Y-50730581D01*
X30706893Y-50728574D01*
X30697359Y-50722447D01*
X30662142Y-50717384D01*
X30566904Y-50717384D01*
X30556031Y-50720576D01*
X30544765Y-50719360D01*
X30511002Y-50730581D01*
X30415764Y-50778200D01*
X30414049Y-50779794D01*
X30411760Y-50780293D01*
X30383277Y-50801615D01*
X30335659Y-50849234D01*
X30334537Y-50851288D01*
X30332521Y-50852486D01*
X30312243Y-50881721D01*
X30264625Y-50976958D01*
X30263849Y-50981269D01*
X30255160Y-51002543D01*
X30210868Y-51179707D01*
X30178458Y-51244528D01*
X30159526Y-51263461D01*
X30108825Y-51288812D01*
X30072604Y-51288812D01*
X30021902Y-51263461D01*
X30002969Y-51244529D01*
X29977619Y-51193828D01*
X29977619Y-51005524D01*
X30018823Y-50881913D01*
X30021369Y-50811526D01*
X29985456Y-50750936D01*
X29922488Y-50719380D01*
X29852454Y-50726878D01*
X29797592Y-50771047D01*
X29781652Y-50802856D01*
X29734034Y-50945713D01*
X29733949Y-50948051D01*
X29732682Y-50950024D01*
X29727619Y-50985241D01*
X29727619Y-51223336D01*
X29584762Y-51223336D01*
X29584762Y-50413812D01*
X29727619Y-50413812D01*
X29730189Y-50422567D01*
X29728891Y-50431601D01*
X29739957Y-50455833D01*
X29747462Y-50481392D01*
X29754358Y-50487367D01*
X29758150Y-50495670D01*
X29780562Y-50510073D01*
X29800692Y-50527516D01*
X29809724Y-50528814D01*
X29817402Y-50533749D01*
X29852619Y-50538812D01*
X30852619Y-50538812D01*
X30861374Y-50536241D01*
X30870408Y-50537540D01*
X30894640Y-50526473D01*
X30920199Y-50518969D01*
X30926174Y-50512072D01*
X30934477Y-50508281D01*
X30948880Y-50485868D01*
X30966323Y-50465739D01*
X30967621Y-50456706D01*
X30972556Y-50449029D01*
X30977619Y-50413812D01*
X30977619Y-49937622D01*
X30957776Y-49870042D01*
X30904546Y-49823918D01*
X30834830Y-49813894D01*
X30770761Y-49843153D01*
X30732682Y-49902405D01*
X30727619Y-49937622D01*
X30727619Y-50288812D01*
X30453809Y-50288812D01*
X30453809Y-50080479D01*
X30433966Y-50012899D01*
X30380736Y-49966775D01*
X30311020Y-49956751D01*
X30246951Y-49986010D01*
X30208872Y-50045262D01*
X30203809Y-50080479D01*
X30203809Y-50288812D01*
X29977619Y-50288812D01*
X29977619Y-49937622D01*
X29957776Y-49870042D01*
X29904546Y-49823918D01*
X29834830Y-49813894D01*
X29770761Y-49843153D01*
X29732682Y-49902405D01*
X29727619Y-49937622D01*
X29727619Y-50413812D01*
X29584762Y-50413812D01*
X29584762Y-49520378D01*
X29728133Y-49520378D01*
X29729369Y-49523508D01*
X29728891Y-49526839D01*
X29742224Y-49556035D01*
X29754019Y-49585881D01*
X29756751Y-49587844D01*
X29758150Y-49590908D01*
X29785159Y-49608266D01*
X29811210Y-49626992D01*
X29814570Y-49627167D01*
X29817402Y-49628987D01*
X29852619Y-49634050D01*
X30852619Y-49634050D01*
X30920199Y-49614207D01*
X30966323Y-49560977D01*
X30976347Y-49491261D01*
X30947088Y-49427192D01*
X30887836Y-49389113D01*
X30852619Y-49384050D01*
X30323314Y-49384050D01*
X30914636Y-49046152D01*
X30916968Y-49043727D01*
X30920199Y-49042779D01*
X30941219Y-49018519D01*
X30963467Y-48995395D01*
X30964118Y-48992092D01*
X30966323Y-48989549D01*
X30970890Y-48957779D01*
X30977105Y-48926294D01*
X30975868Y-48923163D01*
X30976347Y-48919833D01*
X30963015Y-48890640D01*
X30951219Y-48860790D01*
X30948486Y-48858825D01*
X30947088Y-48855764D01*
X30920084Y-48838409D01*
X30894028Y-48819680D01*
X30890667Y-48819504D01*
X30887836Y-48817685D01*
X30852619Y-48812622D01*
X29852619Y-48812622D01*
X29785039Y-48832465D01*
X29738915Y-48885695D01*
X29728891Y-48955411D01*
X29758150Y-49019480D01*
X29817402Y-49057559D01*
X29852619Y-49062622D01*
X30381923Y-49062622D01*
X29790602Y-49400520D01*
X29788269Y-49402944D01*
X29785039Y-49403893D01*
X29764018Y-49428152D01*
X29741771Y-49451277D01*
X29741119Y-49454579D01*
X29738915Y-49457123D01*
X29734347Y-49488892D01*
X29728133Y-49520378D01*
X29584762Y-49520378D01*
X29584762Y-48318574D01*
X29727619Y-48318574D01*
X29730811Y-48329446D01*
X29729595Y-48340712D01*
X29740816Y-48374476D01*
X29788434Y-48469713D01*
X29790030Y-48471428D01*
X29790528Y-48473718D01*
X29811850Y-48502200D01*
X29859468Y-48549819D01*
X29861524Y-48550942D01*
X29862721Y-48552956D01*
X29891955Y-48573234D01*
X29987193Y-48620853D01*
X29998343Y-48622859D01*
X30007878Y-48628987D01*
X30043095Y-48634050D01*
X30138333Y-48634050D01*
X30149205Y-48630857D01*
X30160471Y-48632074D01*
X30194235Y-48620853D01*
X30289472Y-48573235D01*
X30291187Y-48571638D01*
X30293477Y-48571141D01*
X30321959Y-48549819D01*
X30369578Y-48502201D01*
X30370701Y-48500144D01*
X30372715Y-48498948D01*
X30392993Y-48469714D01*
X30440612Y-48374476D01*
X30441387Y-48370165D01*
X30450077Y-48348891D01*
X30494368Y-48171725D01*
X30526778Y-48106904D01*
X30545711Y-48087972D01*
X30596413Y-48062622D01*
X30632634Y-48062622D01*
X30683336Y-48087973D01*
X30702268Y-48106905D01*
X30727619Y-48157606D01*
X30727619Y-48345907D01*
X30686415Y-48469522D01*
X30683869Y-48539908D01*
X30719781Y-48600498D01*
X30782750Y-48632054D01*
X30852784Y-48624557D01*
X30907646Y-48580387D01*
X30923585Y-48548578D01*
X30971204Y-48405722D01*
X30971288Y-48403382D01*
X30972556Y-48401410D01*
X30977619Y-48366193D01*
X30977619Y-48128098D01*
X30974426Y-48117225D01*
X30975643Y-48105959D01*
X30964422Y-48072196D01*
X30916803Y-47976958D01*
X30915208Y-47975243D01*
X30914710Y-47972953D01*
X30893387Y-47944471D01*
X30845767Y-47896852D01*
X30843713Y-47895730D01*
X30842516Y-47893715D01*
X30813281Y-47873437D01*
X30718044Y-47825819D01*
X30706893Y-47823812D01*
X30697359Y-47817685D01*
X30662142Y-47812622D01*
X30566904Y-47812622D01*
X30556031Y-47815814D01*
X30544765Y-47814598D01*
X30511002Y-47825819D01*
X30415764Y-47873438D01*
X30414049Y-47875032D01*
X30411760Y-47875531D01*
X30383277Y-47896853D01*
X30335659Y-47944472D01*
X30334537Y-47946526D01*
X30332521Y-47947724D01*
X30312243Y-47976959D01*
X30264625Y-48072196D01*
X30263849Y-48076507D01*
X30255160Y-48097781D01*
X30210868Y-48274945D01*
X30178458Y-48339766D01*
X30159526Y-48358699D01*
X30108825Y-48384050D01*
X30072604Y-48384050D01*
X30021902Y-48358699D01*
X30002969Y-48339767D01*
X29977619Y-48289066D01*
X29977619Y-48100762D01*
X30018823Y-47977151D01*
X30021369Y-47906764D01*
X29985456Y-47846174D01*
X29922488Y-47814618D01*
X29852454Y-47822116D01*
X29797592Y-47866285D01*
X29781652Y-47898094D01*
X29734034Y-48040951D01*
X29733949Y-48043289D01*
X29732682Y-48045262D01*
X29727619Y-48080479D01*
X29727619Y-48318574D01*
X29584762Y-48318574D01*
X29584762Y-47509050D01*
X29727619Y-47509050D01*
X29730189Y-47517805D01*
X29728891Y-47526839D01*
X29739957Y-47551071D01*
X29747462Y-47576630D01*
X29754358Y-47582605D01*
X29758150Y-47590908D01*
X29780562Y-47605311D01*
X29800692Y-47622754D01*
X29809724Y-47624052D01*
X29817402Y-47628987D01*
X29852619Y-47634050D01*
X30852619Y-47634050D01*
X30861374Y-47631479D01*
X30870408Y-47632778D01*
X30894640Y-47621711D01*
X30920199Y-47614207D01*
X30926174Y-47607310D01*
X30934477Y-47603519D01*
X30948880Y-47581106D01*
X30966323Y-47560977D01*
X30967621Y-47551944D01*
X30972556Y-47544267D01*
X30977619Y-47509050D01*
X30977619Y-47032860D01*
X30957776Y-46965280D01*
X30904546Y-46919156D01*
X30834830Y-46909132D01*
X30770761Y-46938391D01*
X30732682Y-46997643D01*
X30727619Y-47032860D01*
X30727619Y-47384050D01*
X30453809Y-47384050D01*
X30453809Y-47175717D01*
X30433966Y-47108137D01*
X30380736Y-47062013D01*
X30311020Y-47051989D01*
X30246951Y-47081248D01*
X30208872Y-47140500D01*
X30203809Y-47175717D01*
X30203809Y-47384050D01*
X29977619Y-47384050D01*
X29977619Y-47032860D01*
X29957776Y-46965280D01*
X29904546Y-46919156D01*
X29834830Y-46909132D01*
X29770761Y-46938391D01*
X29732682Y-46997643D01*
X29727619Y-47032860D01*
X29727619Y-47509050D01*
X29584762Y-47509050D01*
X29584762Y-46766275D01*
X31120476Y-46766275D01*
X31120476Y-54868276D01*
G37*
D11*
G36*
X21056599Y-63403396D02*
G01*
X21085560Y-63426565D01*
X21115009Y-63473682D01*
X21115009Y-63643839D01*
X20788819Y-63643839D01*
X20788819Y-63473682D01*
X20818267Y-63426565D01*
X20847229Y-63403395D01*
X20918739Y-63374792D01*
X20985089Y-63374792D01*
X21056599Y-63403396D01*
G37*
G36*
X21580408Y-63365301D02*
G01*
X21609371Y-63388471D01*
X21638819Y-63435587D01*
X21638819Y-63643839D01*
X21265009Y-63643839D01*
X21265009Y-63467173D01*
X21299474Y-63384456D01*
X21323418Y-63365301D01*
X21394928Y-63336696D01*
X21508897Y-63336696D01*
X21580408Y-63365301D01*
G37*
G36*
X21931676Y-63936696D02*
G01*
X20495962Y-63936696D01*
X20495962Y-63718839D01*
X20638819Y-63718839D01*
X20645482Y-63737147D01*
X20648867Y-63756339D01*
X20654051Y-63760689D01*
X20656366Y-63767048D01*
X20673239Y-63776790D01*
X20688167Y-63789316D01*
X20697909Y-63791033D01*
X20700795Y-63792700D01*
X20704077Y-63792121D01*
X20713819Y-63793839D01*
X21713819Y-63793839D01*
X21732127Y-63787175D01*
X21751319Y-63783791D01*
X21755669Y-63778606D01*
X21762028Y-63776292D01*
X21771770Y-63759418D01*
X21784296Y-63744491D01*
X21786013Y-63734748D01*
X21787680Y-63731863D01*
X21787101Y-63728580D01*
X21788819Y-63718839D01*
X21788819Y-63414077D01*
X21786054Y-63406482D01*
X21787179Y-63398477D01*
X21777419Y-63374327D01*
X21729800Y-63298137D01*
X21729177Y-63297650D01*
X21713052Y-63279321D01*
X21665431Y-63241226D01*
X21662918Y-63240377D01*
X21646435Y-63230157D01*
X21551197Y-63192060D01*
X21549949Y-63192020D01*
X21548994Y-63191219D01*
X21523342Y-63186696D01*
X21380485Y-63186696D01*
X21379312Y-63187122D01*
X21378127Y-63186733D01*
X21352630Y-63192060D01*
X21257392Y-63230156D01*
X21255414Y-63231924D01*
X21238395Y-63241227D01*
X21190776Y-63279322D01*
X21187696Y-63284378D01*
X21182438Y-63287102D01*
X21171910Y-63303551D01*
X21141623Y-63279322D01*
X21139113Y-63278474D01*
X21122625Y-63268251D01*
X21027387Y-63230156D01*
X21026140Y-63230116D01*
X21025185Y-63229315D01*
X20999533Y-63224792D01*
X20904295Y-63224792D01*
X20903122Y-63225218D01*
X20901938Y-63224829D01*
X20876440Y-63230156D01*
X20781203Y-63268251D01*
X20779227Y-63270017D01*
X20762205Y-63279322D01*
X20714586Y-63317417D01*
X20714177Y-63318088D01*
X20697838Y-63336232D01*
X20650219Y-63412423D01*
X20648537Y-63420328D01*
X20643342Y-63426521D01*
X20638819Y-63452173D01*
X20638819Y-63718839D01*
X20495962Y-63718839D01*
X20495962Y-63043839D01*
X21931676Y-63043839D01*
X21931676Y-63936696D01*
G37*
D12*
G36*
X44891526Y-64247972D02*
G01*
X44910458Y-64266905D01*
X44935809Y-64317606D01*
X44935809Y-64496431D01*
X44709619Y-64496431D01*
X44709619Y-64317606D01*
X44734969Y-64266904D01*
X44753902Y-64247972D01*
X44804604Y-64222622D01*
X44840825Y-64222622D01*
X44891526Y-64247972D01*
G37*
G36*
X45415336Y-64200354D02*
G01*
X45434268Y-64219286D01*
X45459619Y-64269987D01*
X45459619Y-64496431D01*
X45185809Y-64496431D01*
X45185809Y-64308381D01*
X45217681Y-64212763D01*
X45230092Y-64200353D01*
X45280794Y-64175003D01*
X45364634Y-64175003D01*
X45415336Y-64200354D01*
G37*
G36*
X45377855Y-63162873D02*
G01*
X45434268Y-63219287D01*
X45459619Y-63269987D01*
X45459619Y-63401446D01*
X45434268Y-63452146D01*
X45377855Y-63508560D01*
X45235896Y-63544050D01*
X44933341Y-63544050D01*
X44791381Y-63508560D01*
X44734970Y-63452149D01*
X44709619Y-63401447D01*
X44709619Y-63269987D01*
X44734970Y-63219285D01*
X44791381Y-63162874D01*
X44933341Y-63127384D01*
X45235896Y-63127384D01*
X45377855Y-63162873D01*
G37*
G36*
X45377855Y-62115254D02*
G01*
X45434268Y-62171668D01*
X45459619Y-62222368D01*
X45459619Y-62353827D01*
X45434268Y-62404527D01*
X45377855Y-62460941D01*
X45235896Y-62496431D01*
X44933341Y-62496431D01*
X44791381Y-62460941D01*
X44734970Y-62404530D01*
X44709619Y-62353828D01*
X44709619Y-62222368D01*
X44734970Y-62171666D01*
X44791381Y-62115255D01*
X44933341Y-62079765D01*
X45235896Y-62079765D01*
X45377855Y-62115254D01*
G37*
G36*
X45852476Y-64889288D02*
G01*
X44316762Y-64889288D01*
X44316762Y-64621431D01*
X44459619Y-64621431D01*
X44462189Y-64630186D01*
X44460891Y-64639220D01*
X44471957Y-64663452D01*
X44479462Y-64689011D01*
X44486358Y-64694986D01*
X44490150Y-64703289D01*
X44512562Y-64717692D01*
X44532692Y-64735135D01*
X44541724Y-64736433D01*
X44549402Y-64741368D01*
X44584619Y-64746431D01*
X45584619Y-64746431D01*
X45593374Y-64743860D01*
X45602408Y-64745159D01*
X45626640Y-64734092D01*
X45652199Y-64726588D01*
X45658174Y-64719691D01*
X45666477Y-64715900D01*
X45680880Y-64693487D01*
X45698323Y-64673358D01*
X45699621Y-64664325D01*
X45704556Y-64656648D01*
X45709619Y-64621431D01*
X45709619Y-64240479D01*
X45706426Y-64229606D01*
X45707643Y-64218340D01*
X45696422Y-64184577D01*
X45648803Y-64089339D01*
X45647208Y-64087624D01*
X45646710Y-64085334D01*
X45625387Y-64056852D01*
X45577767Y-64009233D01*
X45575713Y-64008111D01*
X45574516Y-64006096D01*
X45545281Y-63985818D01*
X45450044Y-63938200D01*
X45438893Y-63936193D01*
X45429359Y-63930066D01*
X45394142Y-63925003D01*
X45251285Y-63925003D01*
X45240412Y-63928195D01*
X45229146Y-63926979D01*
X45195383Y-63938200D01*
X45100145Y-63985819D01*
X45098430Y-63987413D01*
X45096141Y-63987912D01*
X45067658Y-64009234D01*
X45034452Y-64042440D01*
X45021472Y-64033437D01*
X44926235Y-63985819D01*
X44915084Y-63983812D01*
X44905550Y-63977685D01*
X44870333Y-63972622D01*
X44775095Y-63972622D01*
X44764222Y-63975814D01*
X44752956Y-63974598D01*
X44719193Y-63985819D01*
X44623955Y-64033438D01*
X44622240Y-64035032D01*
X44619951Y-64035531D01*
X44591468Y-64056853D01*
X44543850Y-64104472D01*
X44542728Y-64106526D01*
X44540712Y-64107724D01*
X44520434Y-64136959D01*
X44472816Y-64232196D01*
X44470809Y-64243346D01*
X44464682Y-64252881D01*
X44459619Y-64288098D01*
X44459619Y-64621431D01*
X44316762Y-64621431D01*
X44316762Y-63430955D01*
X44459619Y-63430955D01*
X44462811Y-63441827D01*
X44461595Y-63453093D01*
X44472816Y-63486857D01*
X44520434Y-63582094D01*
X44522030Y-63583809D01*
X44522528Y-63586099D01*
X44543850Y-63614581D01*
X44639088Y-63709819D01*
X44653200Y-63717525D01*
X44664221Y-63729246D01*
X44697159Y-63742699D01*
X44887635Y-63790318D01*
X44891032Y-63790179D01*
X44917952Y-63794050D01*
X45251285Y-63794050D01*
X45254548Y-63793091D01*
X45281602Y-63790318D01*
X45472078Y-63742699D01*
X45485948Y-63734561D01*
X45501667Y-63731142D01*
X45530149Y-63709820D01*
X45625388Y-63614582D01*
X45626511Y-63612525D01*
X45628525Y-63611329D01*
X45648803Y-63582095D01*
X45696422Y-63486857D01*
X45698428Y-63475706D01*
X45704556Y-63466172D01*
X45709619Y-63430955D01*
X45709619Y-63240479D01*
X45706426Y-63229606D01*
X45707643Y-63218340D01*
X45696422Y-63184577D01*
X45648803Y-63089339D01*
X45647208Y-63087624D01*
X45646710Y-63085335D01*
X45625388Y-63056852D01*
X45530149Y-62961614D01*
X45516033Y-62953906D01*
X45505015Y-62942188D01*
X45472078Y-62928735D01*
X45281602Y-62881116D01*
X45278204Y-62881254D01*
X45251285Y-62877384D01*
X44917952Y-62877384D01*
X44914689Y-62878342D01*
X44887635Y-62881116D01*
X44697159Y-62928735D01*
X44683288Y-62936872D01*
X44667570Y-62940292D01*
X44639088Y-62961615D01*
X44543850Y-63056853D01*
X44542728Y-63058907D01*
X44540712Y-63060105D01*
X44520434Y-63089340D01*
X44472816Y-63184577D01*
X44470809Y-63195727D01*
X44464682Y-63205262D01*
X44459619Y-63240479D01*
X44459619Y-63430955D01*
X44316762Y-63430955D01*
X44316762Y-62383336D01*
X44459619Y-62383336D01*
X44462811Y-62394208D01*
X44461595Y-62405474D01*
X44472816Y-62439238D01*
X44520434Y-62534475D01*
X44522030Y-62536190D01*
X44522528Y-62538480D01*
X44543850Y-62566962D01*
X44639088Y-62662200D01*
X44653200Y-62669906D01*
X44664221Y-62681627D01*
X44697159Y-62695080D01*
X44887635Y-62742699D01*
X44891032Y-62742560D01*
X44917952Y-62746431D01*
X45251285Y-62746431D01*
X45254548Y-62745472D01*
X45281602Y-62742699D01*
X45472078Y-62695080D01*
X45485948Y-62686942D01*
X45501667Y-62683523D01*
X45530149Y-62662201D01*
X45625388Y-62566963D01*
X45626511Y-62564906D01*
X45628525Y-62563710D01*
X45648803Y-62534476D01*
X45696422Y-62439238D01*
X45698428Y-62428087D01*
X45704556Y-62418553D01*
X45709619Y-62383336D01*
X45709619Y-62192860D01*
X45706426Y-62181987D01*
X45707643Y-62170721D01*
X45696422Y-62136958D01*
X45648803Y-62041720D01*
X45647208Y-62040005D01*
X45646710Y-62037716D01*
X45625388Y-62009233D01*
X45530149Y-61913995D01*
X45516033Y-61906287D01*
X45505015Y-61894569D01*
X45472078Y-61881116D01*
X45281602Y-61833497D01*
X45278204Y-61833635D01*
X45251285Y-61829765D01*
X44917952Y-61829765D01*
X44914689Y-61830723D01*
X44887635Y-61833497D01*
X44697159Y-61881116D01*
X44683288Y-61889253D01*
X44667570Y-61892673D01*
X44639088Y-61913996D01*
X44543850Y-62009234D01*
X44542728Y-62011288D01*
X44540712Y-62012486D01*
X44520434Y-62041721D01*
X44472816Y-62136958D01*
X44470809Y-62148108D01*
X44464682Y-62157643D01*
X44459619Y-62192860D01*
X44459619Y-62383336D01*
X44316762Y-62383336D01*
X44316762Y-61669050D01*
X44459619Y-61669050D01*
X44479462Y-61736630D01*
X44532692Y-61782754D01*
X44602408Y-61792778D01*
X44666477Y-61763519D01*
X44704556Y-61704267D01*
X44709619Y-61669050D01*
X44709619Y-61508336D01*
X45584619Y-61508336D01*
X45652199Y-61488493D01*
X45698323Y-61435263D01*
X45708347Y-61365547D01*
X45679088Y-61301478D01*
X45619836Y-61263399D01*
X45584619Y-61258336D01*
X44709619Y-61258336D01*
X44709619Y-61097622D01*
X44689776Y-61030042D01*
X44636546Y-60983918D01*
X44566830Y-60973894D01*
X44502761Y-61003153D01*
X44464682Y-61062405D01*
X44459619Y-61097622D01*
X44459619Y-61669050D01*
X44316762Y-61669050D01*
X44316762Y-60831037D01*
X45852476Y-60831037D01*
X45852476Y-64889288D01*
G37*
G36*
X53223808Y-69499969D02*
G01*
X53242740Y-69518902D01*
X53268091Y-69569603D01*
X53268091Y-69653443D01*
X53242740Y-69704144D01*
X53223808Y-69723077D01*
X53173107Y-69748428D01*
X52946663Y-69748428D01*
X52946663Y-69474619D01*
X53173107Y-69474619D01*
X53223808Y-69499969D01*
G37*
G36*
X55564438Y-70617476D02*
G01*
X48220473Y-70617476D01*
X48220473Y-69921047D01*
X48363330Y-69921047D01*
X48364288Y-69924310D01*
X48367062Y-69951364D01*
X48414681Y-70141840D01*
X48416900Y-70145622D01*
X48424146Y-70167425D01*
X48471764Y-70262662D01*
X48473358Y-70264376D01*
X48473857Y-70266667D01*
X48495179Y-70295149D01*
X48590417Y-70390388D01*
X48600361Y-70395818D01*
X48607469Y-70404646D01*
X48639278Y-70420585D01*
X48782134Y-70468204D01*
X48784473Y-70468288D01*
X48786446Y-70469556D01*
X48821663Y-70474619D01*
X48916901Y-70474619D01*
X48919147Y-70473959D01*
X48921419Y-70474538D01*
X48956429Y-70468204D01*
X49099286Y-70420586D01*
X49108591Y-70414119D01*
X49119665Y-70411710D01*
X49148147Y-70390387D01*
X49195766Y-70342768D01*
X49229521Y-70280950D01*
X49224495Y-70210696D01*
X49182286Y-70154312D01*
X49116293Y-70129698D01*
X49047470Y-70144670D01*
X49018988Y-70165993D01*
X48992235Y-70192746D01*
X48896618Y-70224619D01*
X48841949Y-70224619D01*
X48746330Y-70192746D01*
X48686299Y-70132715D01*
X48653889Y-70067896D01*
X48617177Y-69921047D01*
X49363330Y-69921047D01*
X49364288Y-69924310D01*
X49367062Y-69951364D01*
X49414681Y-70141840D01*
X49416900Y-70145622D01*
X49424146Y-70167425D01*
X49471764Y-70262662D01*
X49473358Y-70264376D01*
X49473857Y-70266667D01*
X49495179Y-70295149D01*
X49590417Y-70390388D01*
X49600361Y-70395818D01*
X49607469Y-70404646D01*
X49639278Y-70420585D01*
X49782134Y-70468204D01*
X49784473Y-70468288D01*
X49786446Y-70469556D01*
X49821663Y-70474619D01*
X49916901Y-70474619D01*
X49919147Y-70473959D01*
X49921419Y-70474538D01*
X49956429Y-70468204D01*
X50099286Y-70420586D01*
X50108591Y-70414119D01*
X50119665Y-70411710D01*
X50148147Y-70390387D01*
X50188915Y-70349619D01*
X51172854Y-70349619D01*
X51192697Y-70417199D01*
X51245927Y-70463323D01*
X51315643Y-70473347D01*
X51379712Y-70444088D01*
X51417791Y-70384836D01*
X51422854Y-70349619D01*
X51649044Y-70349619D01*
X51668887Y-70417199D01*
X51722117Y-70463323D01*
X51791833Y-70473347D01*
X51855902Y-70444088D01*
X51893981Y-70384836D01*
X51899044Y-70349619D01*
X51899044Y-69820313D01*
X52236942Y-70411636D01*
X52239366Y-70413968D01*
X52240315Y-70417199D01*
X52264574Y-70438219D01*
X52287699Y-70460467D01*
X52291001Y-70461118D01*
X52293545Y-70463323D01*
X52325314Y-70467890D01*
X52356800Y-70474105D01*
X52359930Y-70472868D01*
X52363261Y-70473347D01*
X52392453Y-70460015D01*
X52422304Y-70448219D01*
X52424268Y-70445486D01*
X52427330Y-70444088D01*
X52444684Y-70417084D01*
X52463414Y-70391028D01*
X52463589Y-70387667D01*
X52465409Y-70384836D01*
X52470472Y-70349619D01*
X52696663Y-70349619D01*
X52716506Y-70417199D01*
X52769736Y-70463323D01*
X52839452Y-70473347D01*
X52903521Y-70444088D01*
X52941600Y-70384836D01*
X52946663Y-70349619D01*
X52946663Y-70159142D01*
X53696663Y-70159142D01*
X53699855Y-70170014D01*
X53698639Y-70181280D01*
X53709860Y-70215044D01*
X53757478Y-70310281D01*
X53759073Y-70311995D01*
X53759571Y-70314285D01*
X53780893Y-70342767D01*
X53828512Y-70390387D01*
X53830568Y-70391509D01*
X53831765Y-70393525D01*
X53860999Y-70413803D01*
X53956237Y-70461422D01*
X53967387Y-70463428D01*
X53976922Y-70469556D01*
X54012139Y-70474619D01*
X54202615Y-70474619D01*
X54213487Y-70471426D01*
X54224753Y-70472643D01*
X54258517Y-70461422D01*
X54353754Y-70413804D01*
X54355469Y-70412208D01*
X54357760Y-70411710D01*
X54386242Y-70390387D01*
X54433861Y-70342768D01*
X54434983Y-70340711D01*
X54436997Y-70339516D01*
X54457275Y-70310282D01*
X54504894Y-70215044D01*
X54506900Y-70203893D01*
X54513028Y-70194359D01*
X54518091Y-70159142D01*
X54518091Y-69367408D01*
X54602697Y-69367408D01*
X54631956Y-69431477D01*
X54691208Y-69469556D01*
X54726425Y-69474619D01*
X54887139Y-69474619D01*
X54887139Y-70349619D01*
X54906982Y-70417199D01*
X54960212Y-70463323D01*
X55029928Y-70473347D01*
X55093997Y-70444088D01*
X55132076Y-70384836D01*
X55137139Y-70349619D01*
X55137139Y-69474619D01*
X55297853Y-69474619D01*
X55365433Y-69454776D01*
X55411557Y-69401546D01*
X55421581Y-69331830D01*
X55392322Y-69267761D01*
X55333070Y-69229682D01*
X55297853Y-69224619D01*
X54726425Y-69224619D01*
X54658845Y-69244462D01*
X54612721Y-69297692D01*
X54602697Y-69367408D01*
X54518091Y-69367408D01*
X54518091Y-69349619D01*
X54498248Y-69282039D01*
X54445018Y-69235915D01*
X54375302Y-69225891D01*
X54311233Y-69255150D01*
X54273154Y-69314402D01*
X54268091Y-69349619D01*
X54268091Y-70129633D01*
X54242739Y-70180336D01*
X54223808Y-70199268D01*
X54173107Y-70224619D01*
X54041648Y-70224619D01*
X53990946Y-70199268D01*
X53972014Y-70180336D01*
X53946663Y-70129634D01*
X53946663Y-69349619D01*
X53926820Y-69282039D01*
X53873590Y-69235915D01*
X53803874Y-69225891D01*
X53739805Y-69255150D01*
X53701726Y-69314402D01*
X53696663Y-69349619D01*
X53696663Y-70159142D01*
X52946663Y-70159142D01*
X52946663Y-69998428D01*
X53202615Y-69998428D01*
X53213487Y-69995235D01*
X53224753Y-69996452D01*
X53258517Y-69985231D01*
X53353754Y-69937613D01*
X53355469Y-69936016D01*
X53357759Y-69935519D01*
X53386241Y-69914197D01*
X53433860Y-69866579D01*
X53434983Y-69864522D01*
X53436997Y-69863326D01*
X53457275Y-69834092D01*
X53504894Y-69738854D01*
X53506900Y-69727703D01*
X53513028Y-69718169D01*
X53518091Y-69682952D01*
X53518091Y-69540095D01*
X53514898Y-69529222D01*
X53516115Y-69517956D01*
X53504894Y-69484193D01*
X53457275Y-69388955D01*
X53455680Y-69387240D01*
X53455182Y-69384951D01*
X53433860Y-69356468D01*
X53386241Y-69308850D01*
X53384186Y-69307728D01*
X53382989Y-69305712D01*
X53353754Y-69285434D01*
X53258517Y-69237816D01*
X53247366Y-69235809D01*
X53237832Y-69229682D01*
X53202615Y-69224619D01*
X52821663Y-69224619D01*
X52812907Y-69227189D01*
X52803874Y-69225891D01*
X52779641Y-69236957D01*
X52754083Y-69244462D01*
X52748107Y-69251358D01*
X52739805Y-69255150D01*
X52725401Y-69277562D01*
X52707959Y-69297692D01*
X52706660Y-69306724D01*
X52701726Y-69314402D01*
X52696663Y-69349619D01*
X52696663Y-70349619D01*
X52470472Y-70349619D01*
X52470472Y-69349619D01*
X52450629Y-69282039D01*
X52397399Y-69235915D01*
X52327683Y-69225891D01*
X52263614Y-69255150D01*
X52225535Y-69314402D01*
X52220472Y-69349619D01*
X52220472Y-69878923D01*
X51882574Y-69287602D01*
X51880149Y-69285269D01*
X51879201Y-69282039D01*
X51854941Y-69261018D01*
X51831817Y-69238771D01*
X51828514Y-69238119D01*
X51825971Y-69235915D01*
X51794201Y-69231347D01*
X51762716Y-69225133D01*
X51759585Y-69226369D01*
X51756255Y-69225891D01*
X51727058Y-69239224D01*
X51697213Y-69251019D01*
X51695249Y-69253751D01*
X51692186Y-69255150D01*
X51674827Y-69282159D01*
X51656102Y-69308210D01*
X51655926Y-69311570D01*
X51654107Y-69314402D01*
X51649044Y-69349619D01*
X51649044Y-70349619D01*
X51422854Y-70349619D01*
X51422854Y-69349619D01*
X51403011Y-69282039D01*
X51349781Y-69235915D01*
X51280065Y-69225891D01*
X51215996Y-69255150D01*
X51177917Y-69314402D01*
X51172854Y-69349619D01*
X51172854Y-70349619D01*
X50188915Y-70349619D01*
X50195766Y-70342768D01*
X50229521Y-70280950D01*
X50224495Y-70210696D01*
X50182286Y-70154312D01*
X50116293Y-70129698D01*
X50047470Y-70144670D01*
X50018988Y-70165993D01*
X49992235Y-70192746D01*
X49896618Y-70224619D01*
X49841949Y-70224619D01*
X49746330Y-70192746D01*
X49686299Y-70132715D01*
X49653889Y-70067896D01*
X49613330Y-69905658D01*
X49613330Y-69793579D01*
X49653889Y-69631341D01*
X49686300Y-69566520D01*
X49746328Y-69506491D01*
X49841949Y-69474619D01*
X49896618Y-69474619D01*
X49992235Y-69506491D01*
X50018988Y-69533245D01*
X50080806Y-69567000D01*
X50151060Y-69561975D01*
X50207444Y-69519767D01*
X50232059Y-69453774D01*
X50217087Y-69384951D01*
X50195765Y-69356468D01*
X50148146Y-69308850D01*
X50138202Y-69303420D01*
X50131095Y-69294592D01*
X50099286Y-69278652D01*
X49956429Y-69231034D01*
X49954090Y-69230949D01*
X49952118Y-69229682D01*
X49916901Y-69224619D01*
X49821663Y-69224619D01*
X49819416Y-69225278D01*
X49817145Y-69224700D01*
X49782134Y-69231034D01*
X49639278Y-69278653D01*
X49629975Y-69285117D01*
X49618900Y-69287527D01*
X49590418Y-69308850D01*
X49495180Y-69404088D01*
X49494058Y-69406142D01*
X49492042Y-69407340D01*
X49471764Y-69436575D01*
X49424146Y-69531812D01*
X49423370Y-69536123D01*
X49414681Y-69557397D01*
X49367062Y-69747873D01*
X49367200Y-69751270D01*
X49363330Y-69778190D01*
X49363330Y-69921047D01*
X48617177Y-69921047D01*
X48613330Y-69905658D01*
X48613330Y-69793579D01*
X48653889Y-69631341D01*
X48686300Y-69566520D01*
X48746328Y-69506491D01*
X48841949Y-69474619D01*
X48896618Y-69474619D01*
X48992235Y-69506491D01*
X49018988Y-69533245D01*
X49080806Y-69567000D01*
X49151060Y-69561975D01*
X49207444Y-69519767D01*
X49232059Y-69453774D01*
X49217087Y-69384951D01*
X49195765Y-69356468D01*
X49148146Y-69308850D01*
X49138202Y-69303420D01*
X49131095Y-69294592D01*
X49099286Y-69278652D01*
X48956429Y-69231034D01*
X48954090Y-69230949D01*
X48952118Y-69229682D01*
X48916901Y-69224619D01*
X48821663Y-69224619D01*
X48819416Y-69225278D01*
X48817145Y-69224700D01*
X48782134Y-69231034D01*
X48639278Y-69278653D01*
X48629975Y-69285117D01*
X48618900Y-69287527D01*
X48590418Y-69308850D01*
X48495180Y-69404088D01*
X48494058Y-69406142D01*
X48492042Y-69407340D01*
X48471764Y-69436575D01*
X48424146Y-69531812D01*
X48423370Y-69536123D01*
X48414681Y-69557397D01*
X48367062Y-69747873D01*
X48367200Y-69751270D01*
X48363330Y-69778190D01*
X48363330Y-69921047D01*
X48220473Y-69921047D01*
X48220473Y-69081762D01*
X55564438Y-69081762D01*
X55564438Y-70617476D01*
G37*
D11*
G36*
X37732781Y-78227284D02*
G01*
X37790032Y-78298848D01*
X37821443Y-78377377D01*
X37856732Y-78553818D01*
X37856732Y-78681818D01*
X37821443Y-78858259D01*
X37790032Y-78936788D01*
X37732779Y-79008354D01*
X37650065Y-79042819D01*
X37549589Y-79042819D01*
X37549589Y-78192819D01*
X37650065Y-78192819D01*
X37732781Y-78227284D01*
G37*
G36*
X38149589Y-79335676D02*
G01*
X35772156Y-79335676D01*
X35772156Y-78104795D01*
X35915013Y-78104795D01*
X35923922Y-78155319D01*
X35963222Y-78188296D01*
X35988874Y-78192819D01*
X36142445Y-78192819D01*
X36142445Y-79117819D01*
X36159992Y-79166028D01*
X36204421Y-79191680D01*
X36254945Y-79182771D01*
X36287922Y-79143471D01*
X36292445Y-79117819D01*
X36292445Y-78192819D01*
X36446017Y-78192819D01*
X36494226Y-78175272D01*
X36519878Y-78130843D01*
X36519439Y-78128351D01*
X36562236Y-78128351D01*
X36570317Y-78153113D01*
X36818160Y-78617819D01*
X36570317Y-79082525D01*
X36563113Y-79133320D01*
X36590243Y-79176862D01*
X36639016Y-79192777D01*
X36686607Y-79173619D01*
X36702669Y-79153113D01*
X36903160Y-78777193D01*
X37103651Y-79153113D01*
X37141820Y-79187393D01*
X37193094Y-79189120D01*
X37233481Y-79157483D01*
X37241859Y-79117819D01*
X37399589Y-79117819D01*
X37406252Y-79136127D01*
X37409637Y-79155319D01*
X37414821Y-79159669D01*
X37417136Y-79166028D01*
X37434009Y-79175770D01*
X37448937Y-79188296D01*
X37458679Y-79190013D01*
X37461565Y-79191680D01*
X37464847Y-79191101D01*
X37474589Y-79192819D01*
X37665065Y-79192819D01*
X37666765Y-79192200D01*
X37668493Y-79192741D01*
X37693911Y-79187050D01*
X37808197Y-79139431D01*
X37812554Y-79135421D01*
X37818360Y-79134257D01*
X37837917Y-79117052D01*
X37914107Y-79021812D01*
X37914955Y-79019299D01*
X37925177Y-79002815D01*
X37963272Y-78907578D01*
X37963379Y-78904173D01*
X37967179Y-78894432D01*
X38005275Y-78703956D01*
X38004747Y-78700503D01*
X38006732Y-78689247D01*
X38006732Y-78546390D01*
X38005536Y-78543105D01*
X38005275Y-78531681D01*
X37967179Y-78341205D01*
X37965411Y-78338298D01*
X37963272Y-78328059D01*
X37925177Y-78232822D01*
X37923410Y-78230846D01*
X37914106Y-78213824D01*
X37837916Y-78118586D01*
X37832859Y-78115506D01*
X37830136Y-78110248D01*
X37808197Y-78096207D01*
X37693911Y-78048588D01*
X37692103Y-78048505D01*
X37690717Y-78047342D01*
X37665065Y-78042819D01*
X37474589Y-78042819D01*
X37456280Y-78049482D01*
X37437089Y-78052867D01*
X37432738Y-78058051D01*
X37426380Y-78060366D01*
X37416637Y-78077239D01*
X37404112Y-78092167D01*
X37402394Y-78101909D01*
X37400728Y-78104795D01*
X37401306Y-78108077D01*
X37399589Y-78117819D01*
X37399589Y-79117819D01*
X37241859Y-79117819D01*
X37244084Y-79107288D01*
X37236004Y-79082525D01*
X36988160Y-78617819D01*
X37236004Y-78153113D01*
X37243208Y-78102318D01*
X37216077Y-78058776D01*
X37167305Y-78042861D01*
X37119713Y-78062019D01*
X37103651Y-78082525D01*
X36903160Y-78458444D01*
X36702669Y-78082525D01*
X36664500Y-78048245D01*
X36613227Y-78046519D01*
X36572839Y-78078156D01*
X36562236Y-78128351D01*
X36519439Y-78128351D01*
X36510969Y-78080319D01*
X36471669Y-78047342D01*
X36446017Y-78042819D01*
X35988874Y-78042819D01*
X35940665Y-78060366D01*
X35915013Y-78104795D01*
X35772156Y-78104795D01*
X35772156Y-77899962D01*
X38149589Y-77899962D01*
X38149589Y-79335676D01*
G37*
G36*
X21538359Y-50758709D02*
G01*
X21609370Y-50815518D01*
X21638819Y-50862635D01*
X21638819Y-50971996D01*
X21609371Y-51019113D01*
X21538356Y-51075923D01*
X21373061Y-51108983D01*
X21054581Y-51108983D01*
X20889278Y-51075922D01*
X20818267Y-51019113D01*
X20788819Y-50971996D01*
X20788819Y-50862635D01*
X20818267Y-50815518D01*
X20889278Y-50758709D01*
X21054581Y-50725649D01*
X21373056Y-50725649D01*
X21538359Y-50758709D01*
G37*
G36*
X21931676Y-51744696D02*
G01*
X20495962Y-51744696D01*
X20495962Y-51513815D01*
X20639958Y-51513815D01*
X20648867Y-51564339D01*
X20688167Y-51597316D01*
X20713819Y-51601839D01*
X21713819Y-51601839D01*
X21762028Y-51584292D01*
X21787680Y-51539863D01*
X21778771Y-51489339D01*
X21739471Y-51456362D01*
X21713819Y-51451839D01*
X20713819Y-51451839D01*
X20665610Y-51469386D01*
X20639958Y-51513815D01*
X20495962Y-51513815D01*
X20495962Y-50993506D01*
X20638819Y-50993506D01*
X20641583Y-51001100D01*
X20640459Y-51009106D01*
X20650219Y-51033256D01*
X20697838Y-51109447D01*
X20698461Y-51109933D01*
X20714586Y-51128262D01*
X20809824Y-51204452D01*
X20814568Y-51206054D01*
X20817700Y-51209964D01*
X20841967Y-51219430D01*
X21032443Y-51257526D01*
X21035895Y-51256998D01*
X21047152Y-51258983D01*
X21380485Y-51258983D01*
X21383769Y-51257787D01*
X21395194Y-51257526D01*
X21585670Y-51219431D01*
X21589949Y-51216827D01*
X21594956Y-51216945D01*
X21617813Y-51204453D01*
X21713052Y-51128262D01*
X21713462Y-51127587D01*
X21729800Y-51109447D01*
X21777419Y-51033256D01*
X21779100Y-51025350D01*
X21784296Y-51019158D01*
X21788819Y-50993506D01*
X21788819Y-50841125D01*
X21786054Y-50833530D01*
X21787179Y-50825525D01*
X21777419Y-50801375D01*
X21729800Y-50725185D01*
X21729176Y-50724698D01*
X21713052Y-50706370D01*
X21617813Y-50630179D01*
X21613067Y-50628576D01*
X21609936Y-50624666D01*
X21585670Y-50615200D01*
X21395194Y-50577105D01*
X21391738Y-50577633D01*
X21380485Y-50575649D01*
X21047152Y-50575649D01*
X21043869Y-50576843D01*
X21032443Y-50577105D01*
X20841967Y-50615200D01*
X20837687Y-50617803D01*
X20832680Y-50617686D01*
X20809824Y-50630179D01*
X20714586Y-50706370D01*
X20714177Y-50707041D01*
X20697838Y-50725185D01*
X20650219Y-50801375D01*
X20648537Y-50809280D01*
X20643342Y-50815473D01*
X20638819Y-50841125D01*
X20638819Y-50993506D01*
X20495962Y-50993506D01*
X20495962Y-50432792D01*
X21931676Y-50432792D01*
X21931676Y-51744696D01*
G37*
D12*
X61886377Y-55236619D02*
X61314949Y-55236619D01*
X61600663Y-55236619D02*
X61600663Y-54236619D01*
X61600663Y-54236619D02*
X61505425Y-54379476D01*
X61505425Y-54379476D02*
X61410187Y-54474714D01*
X61410187Y-54474714D02*
X61314949Y-54522333D01*
X62219711Y-54236619D02*
X62838758Y-54236619D01*
X62838758Y-54236619D02*
X62505425Y-54617571D01*
X62505425Y-54617571D02*
X62648282Y-54617571D01*
X62648282Y-54617571D02*
X62743520Y-54665190D01*
X62743520Y-54665190D02*
X62791139Y-54712809D01*
X62791139Y-54712809D02*
X62838758Y-54808047D01*
X62838758Y-54808047D02*
X62838758Y-55046142D01*
X62838758Y-55046142D02*
X62791139Y-55141380D01*
X62791139Y-55141380D02*
X62743520Y-55189000D01*
X62743520Y-55189000D02*
X62648282Y-55236619D01*
X62648282Y-55236619D02*
X62362568Y-55236619D01*
X62362568Y-55236619D02*
X62267330Y-55189000D01*
X62267330Y-55189000D02*
X62219711Y-55141380D01*
X61314949Y-41631857D02*
X61362568Y-41584238D01*
X61362568Y-41584238D02*
X61457806Y-41536619D01*
X61457806Y-41536619D02*
X61695901Y-41536619D01*
X61695901Y-41536619D02*
X61791139Y-41584238D01*
X61791139Y-41584238D02*
X61838758Y-41631857D01*
X61838758Y-41631857D02*
X61886377Y-41727095D01*
X61886377Y-41727095D02*
X61886377Y-41822333D01*
X61886377Y-41822333D02*
X61838758Y-41965190D01*
X61838758Y-41965190D02*
X61267330Y-42536619D01*
X61267330Y-42536619D02*
X61886377Y-42536619D01*
X62743520Y-41536619D02*
X62553044Y-41536619D01*
X62553044Y-41536619D02*
X62457806Y-41584238D01*
X62457806Y-41584238D02*
X62410187Y-41631857D01*
X62410187Y-41631857D02*
X62314949Y-41774714D01*
X62314949Y-41774714D02*
X62267330Y-41965190D01*
X62267330Y-41965190D02*
X62267330Y-42346142D01*
X62267330Y-42346142D02*
X62314949Y-42441380D01*
X62314949Y-42441380D02*
X62362568Y-42489000D01*
X62362568Y-42489000D02*
X62457806Y-42536619D01*
X62457806Y-42536619D02*
X62648282Y-42536619D01*
X62648282Y-42536619D02*
X62743520Y-42489000D01*
X62743520Y-42489000D02*
X62791139Y-42441380D01*
X62791139Y-42441380D02*
X62838758Y-42346142D01*
X62838758Y-42346142D02*
X62838758Y-42108047D01*
X62838758Y-42108047D02*
X62791139Y-42012809D01*
X62791139Y-42012809D02*
X62743520Y-41965190D01*
X62743520Y-41965190D02*
X62648282Y-41917571D01*
X62648282Y-41917571D02*
X62457806Y-41917571D01*
X62457806Y-41917571D02*
X62362568Y-41965190D01*
X62362568Y-41965190D02*
X62314949Y-42012809D01*
X62314949Y-42012809D02*
X62267330Y-42108047D01*
D11*
X21015438Y-32057792D02*
X20967819Y-32133982D01*
X20967819Y-32133982D02*
X20967819Y-32248268D01*
X20967819Y-32248268D02*
X21015438Y-32362554D01*
X21015438Y-32362554D02*
X21110676Y-32438744D01*
X21110676Y-32438744D02*
X21205914Y-32476839D01*
X21205914Y-32476839D02*
X21396390Y-32514935D01*
X21396390Y-32514935D02*
X21539247Y-32514935D01*
X21539247Y-32514935D02*
X21729723Y-32476839D01*
X21729723Y-32476839D02*
X21824961Y-32438744D01*
X21824961Y-32438744D02*
X21920200Y-32362554D01*
X21920200Y-32362554D02*
X21967819Y-32248268D01*
X21967819Y-32248268D02*
X21967819Y-32172077D01*
X21967819Y-32172077D02*
X21920200Y-32057792D01*
X21920200Y-32057792D02*
X21872580Y-32019696D01*
X21872580Y-32019696D02*
X21539247Y-32019696D01*
X21539247Y-32019696D02*
X21539247Y-32172077D01*
X21967819Y-31676839D02*
X20967819Y-31676839D01*
X20967819Y-31676839D02*
X21967819Y-31219696D01*
X21967819Y-31219696D02*
X20967819Y-31219696D01*
X21967819Y-30838744D02*
X20967819Y-30838744D01*
X20967819Y-30838744D02*
X20967819Y-30648268D01*
X20967819Y-30648268D02*
X21015438Y-30533982D01*
X21015438Y-30533982D02*
X21110676Y-30457792D01*
X21110676Y-30457792D02*
X21205914Y-30419697D01*
X21205914Y-30419697D02*
X21396390Y-30381601D01*
X21396390Y-30381601D02*
X21539247Y-30381601D01*
X21539247Y-30381601D02*
X21729723Y-30419697D01*
X21729723Y-30419697D02*
X21824961Y-30457792D01*
X21824961Y-30457792D02*
X21920200Y-30533982D01*
X21920200Y-30533982D02*
X21967819Y-30648268D01*
X21967819Y-30648268D02*
X21967819Y-30838744D01*
G36*
X55385781Y-78227284D02*
G01*
X55443032Y-78298848D01*
X55474443Y-78377377D01*
X55509732Y-78553818D01*
X55509732Y-78681818D01*
X55474443Y-78858259D01*
X55443032Y-78936788D01*
X55385779Y-79008354D01*
X55303065Y-79042819D01*
X55202589Y-79042819D01*
X55202589Y-78192819D01*
X55303065Y-78192819D01*
X55385781Y-78227284D01*
G37*
G36*
X55802589Y-79335676D02*
G01*
X53425156Y-79335676D01*
X53425156Y-78104795D01*
X53568013Y-78104795D01*
X53576922Y-78155319D01*
X53616222Y-78188296D01*
X53641874Y-78192819D01*
X53795445Y-78192819D01*
X53795445Y-79117819D01*
X53812992Y-79166028D01*
X53857421Y-79191680D01*
X53907945Y-79182771D01*
X53940922Y-79143471D01*
X53945445Y-79117819D01*
X53945445Y-78192819D01*
X54099017Y-78192819D01*
X54147226Y-78175272D01*
X54172878Y-78130843D01*
X54172439Y-78128351D01*
X54215236Y-78128351D01*
X54223317Y-78153113D01*
X54471160Y-78617819D01*
X54223317Y-79082525D01*
X54216113Y-79133320D01*
X54243243Y-79176862D01*
X54292016Y-79192777D01*
X54339607Y-79173619D01*
X54355669Y-79153113D01*
X54556160Y-78777193D01*
X54756651Y-79153113D01*
X54794820Y-79187393D01*
X54846094Y-79189120D01*
X54886481Y-79157483D01*
X54894859Y-79117819D01*
X55052589Y-79117819D01*
X55059252Y-79136127D01*
X55062637Y-79155319D01*
X55067821Y-79159669D01*
X55070136Y-79166028D01*
X55087009Y-79175770D01*
X55101937Y-79188296D01*
X55111679Y-79190013D01*
X55114565Y-79191680D01*
X55117847Y-79191101D01*
X55127589Y-79192819D01*
X55318065Y-79192819D01*
X55319765Y-79192200D01*
X55321493Y-79192741D01*
X55346911Y-79187050D01*
X55461197Y-79139431D01*
X55465554Y-79135421D01*
X55471360Y-79134257D01*
X55490917Y-79117052D01*
X55567107Y-79021812D01*
X55567955Y-79019299D01*
X55578177Y-79002815D01*
X55616272Y-78907578D01*
X55616379Y-78904173D01*
X55620179Y-78894432D01*
X55658275Y-78703956D01*
X55657747Y-78700503D01*
X55659732Y-78689247D01*
X55659732Y-78546390D01*
X55658536Y-78543105D01*
X55658275Y-78531681D01*
X55620179Y-78341205D01*
X55618411Y-78338298D01*
X55616272Y-78328059D01*
X55578177Y-78232822D01*
X55576410Y-78230846D01*
X55567106Y-78213824D01*
X55490916Y-78118586D01*
X55485859Y-78115506D01*
X55483136Y-78110248D01*
X55461197Y-78096207D01*
X55346911Y-78048588D01*
X55345103Y-78048505D01*
X55343717Y-78047342D01*
X55318065Y-78042819D01*
X55127589Y-78042819D01*
X55109280Y-78049482D01*
X55090089Y-78052867D01*
X55085738Y-78058051D01*
X55079380Y-78060366D01*
X55069637Y-78077239D01*
X55057112Y-78092167D01*
X55055394Y-78101909D01*
X55053728Y-78104795D01*
X55054306Y-78108077D01*
X55052589Y-78117819D01*
X55052589Y-79117819D01*
X54894859Y-79117819D01*
X54897084Y-79107288D01*
X54889004Y-79082525D01*
X54641160Y-78617819D01*
X54889004Y-78153113D01*
X54896208Y-78102318D01*
X54869077Y-78058776D01*
X54820305Y-78042861D01*
X54772713Y-78062019D01*
X54756651Y-78082525D01*
X54556160Y-78458444D01*
X54355669Y-78082525D01*
X54317500Y-78048245D01*
X54266227Y-78046519D01*
X54225839Y-78078156D01*
X54215236Y-78128351D01*
X54172439Y-78128351D01*
X54163969Y-78080319D01*
X54124669Y-78047342D01*
X54099017Y-78042819D01*
X53641874Y-78042819D01*
X53593665Y-78060366D01*
X53568013Y-78104795D01*
X53425156Y-78104795D01*
X53425156Y-77899962D01*
X55802589Y-77899962D01*
X55802589Y-79335676D01*
G37*
D12*
G36*
X33411714Y-71658970D02*
G01*
X33468125Y-71715381D01*
X33503615Y-71857341D01*
X33503615Y-72159896D01*
X33468125Y-72301855D01*
X33411711Y-72358269D01*
X33361012Y-72383619D01*
X33229553Y-72383619D01*
X33178852Y-72358268D01*
X33122438Y-72301855D01*
X33086949Y-72159896D01*
X33086949Y-71857341D01*
X33122439Y-71715381D01*
X33178849Y-71658970D01*
X33229553Y-71633619D01*
X33361012Y-71633619D01*
X33411714Y-71658970D01*
G37*
G36*
X36312330Y-72097904D02*
G01*
X36182996Y-72097904D01*
X36247662Y-71903903D01*
X36312330Y-72097904D01*
G37*
G36*
X31411713Y-71658969D02*
G01*
X31430645Y-71677902D01*
X31455996Y-71728603D01*
X31455996Y-71812443D01*
X31430645Y-71863144D01*
X31411713Y-71882077D01*
X31361012Y-71907428D01*
X31134568Y-71907428D01*
X31134568Y-71633619D01*
X31361012Y-71633619D01*
X31411713Y-71658969D01*
G37*
G36*
X32411713Y-71658969D02*
G01*
X32430645Y-71677902D01*
X32455996Y-71728603D01*
X32455996Y-71812443D01*
X32430645Y-71863144D01*
X32411713Y-71882077D01*
X32361012Y-71907428D01*
X32134568Y-71907428D01*
X32134568Y-71633619D01*
X32361012Y-71633619D01*
X32411713Y-71658969D01*
G37*
G36*
X35459332Y-71658969D02*
G01*
X35478264Y-71677902D01*
X35503615Y-71728603D01*
X35503615Y-71812443D01*
X35478264Y-71863144D01*
X35459332Y-71882077D01*
X35408631Y-71907428D01*
X35182187Y-71907428D01*
X35182187Y-71633619D01*
X35408631Y-71633619D01*
X35459332Y-71658969D01*
G37*
G36*
X41563138Y-72776476D02*
G01*
X30741711Y-72776476D01*
X30741711Y-72508619D01*
X30884568Y-72508619D01*
X30904411Y-72576199D01*
X30957641Y-72622323D01*
X31027357Y-72632347D01*
X31091426Y-72603088D01*
X31129505Y-72543836D01*
X31134568Y-72508619D01*
X31884568Y-72508619D01*
X31904411Y-72576199D01*
X31957641Y-72622323D01*
X32027357Y-72632347D01*
X32091426Y-72603088D01*
X32129505Y-72543836D01*
X32134568Y-72508619D01*
X32134568Y-72157428D01*
X32182581Y-72157428D01*
X32478592Y-72580302D01*
X32533603Y-72624286D01*
X32603661Y-72631547D01*
X32666523Y-72599780D01*
X32702231Y-72539069D01*
X32699448Y-72468691D01*
X32683400Y-72436936D01*
X32500245Y-72175285D01*
X32836949Y-72175285D01*
X32837907Y-72178548D01*
X32840681Y-72205602D01*
X32888300Y-72396078D01*
X32896437Y-72409948D01*
X32899857Y-72425667D01*
X32921179Y-72454149D01*
X33016417Y-72549388D01*
X33018473Y-72550511D01*
X33019670Y-72552525D01*
X33048904Y-72572803D01*
X33144142Y-72620422D01*
X33155292Y-72622428D01*
X33164827Y-72628556D01*
X33200044Y-72633619D01*
X33390520Y-72633619D01*
X33401392Y-72630426D01*
X33412658Y-72631643D01*
X33446422Y-72620422D01*
X33541659Y-72572804D01*
X33543374Y-72571208D01*
X33545665Y-72570710D01*
X33574147Y-72549388D01*
X33669385Y-72454149D01*
X33677091Y-72440034D01*
X33688811Y-72429016D01*
X33702264Y-72396078D01*
X33749883Y-72205602D01*
X33749744Y-72202204D01*
X33753615Y-72175285D01*
X33753615Y-72080047D01*
X33884568Y-72080047D01*
X33885526Y-72083310D01*
X33888300Y-72110364D01*
X33935919Y-72300840D01*
X33938138Y-72304622D01*
X33945384Y-72326425D01*
X33993002Y-72421662D01*
X33994596Y-72423376D01*
X33995095Y-72425667D01*
X34016417Y-72454149D01*
X34111655Y-72549388D01*
X34121599Y-72554818D01*
X34128707Y-72563646D01*
X34160516Y-72579585D01*
X34303372Y-72627204D01*
X34305711Y-72627288D01*
X34307684Y-72628556D01*
X34342901Y-72633619D01*
X34438139Y-72633619D01*
X34440385Y-72632959D01*
X34442657Y-72633538D01*
X34477667Y-72627204D01*
X34620524Y-72579586D01*
X34629829Y-72573119D01*
X34640903Y-72570710D01*
X34669385Y-72549387D01*
X34710153Y-72508619D01*
X34932187Y-72508619D01*
X34952030Y-72576199D01*
X35005260Y-72622323D01*
X35074976Y-72632347D01*
X35139045Y-72603088D01*
X35177124Y-72543836D01*
X35182187Y-72508619D01*
X35182187Y-72157428D01*
X35230200Y-72157428D01*
X35526211Y-72580302D01*
X35581222Y-72624286D01*
X35651280Y-72631547D01*
X35714142Y-72599780D01*
X35749610Y-72539477D01*
X35793199Y-72539477D01*
X35829111Y-72600067D01*
X35892080Y-72631623D01*
X35962114Y-72624126D01*
X36016976Y-72579956D01*
X36032915Y-72548147D01*
X36099663Y-72347904D01*
X36395663Y-72347904D01*
X36462410Y-72548147D01*
X36502606Y-72605984D01*
X36567690Y-72632908D01*
X36636998Y-72620372D01*
X36688527Y-72572354D01*
X36704764Y-72508619D01*
X36789330Y-72508619D01*
X36809173Y-72576199D01*
X36862403Y-72622323D01*
X36932119Y-72632347D01*
X36996188Y-72603088D01*
X37034267Y-72543836D01*
X37039330Y-72508619D01*
X37039330Y-72072065D01*
X37134390Y-72275765D01*
X37145605Y-72288494D01*
X37152524Y-72303981D01*
X37168403Y-72314372D01*
X37180950Y-72328613D01*
X37197264Y-72333257D01*
X37211460Y-72342547D01*
X37230439Y-72342703D01*
X37248692Y-72347900D01*
X37264928Y-72342987D01*
X37281892Y-72343127D01*
X37297941Y-72332998D01*
X37316106Y-72327502D01*
X37327109Y-72314590D01*
X37341455Y-72305537D01*
X37360936Y-72275765D01*
X37455996Y-72072064D01*
X37455996Y-72508619D01*
X37475839Y-72576199D01*
X37529069Y-72622323D01*
X37598785Y-72632347D01*
X37662854Y-72603088D01*
X37700933Y-72543836D01*
X37705996Y-72508619D01*
X37932187Y-72508619D01*
X37952030Y-72576199D01*
X38005260Y-72622323D01*
X38074976Y-72632347D01*
X38139045Y-72603088D01*
X38177124Y-72543836D01*
X38182187Y-72508619D01*
X38182187Y-72072065D01*
X38277247Y-72275765D01*
X38288462Y-72288494D01*
X38295381Y-72303981D01*
X38311260Y-72314372D01*
X38323807Y-72328613D01*
X38340121Y-72333257D01*
X38354317Y-72342547D01*
X38373296Y-72342703D01*
X38391549Y-72347900D01*
X38407785Y-72342987D01*
X38424749Y-72343127D01*
X38440798Y-72332998D01*
X38458963Y-72327502D01*
X38469966Y-72314590D01*
X38484312Y-72305537D01*
X38503793Y-72275765D01*
X38598853Y-72072064D01*
X38598853Y-72508619D01*
X38618696Y-72576199D01*
X38671926Y-72622323D01*
X38741642Y-72632347D01*
X38805711Y-72603088D01*
X38843790Y-72543836D01*
X38848853Y-72508619D01*
X39075044Y-72508619D01*
X39094887Y-72576199D01*
X39148117Y-72622323D01*
X39217833Y-72632347D01*
X39281902Y-72603088D01*
X39319981Y-72543836D01*
X39325044Y-72508619D01*
X39551234Y-72508619D01*
X39571077Y-72576199D01*
X39624307Y-72622323D01*
X39694023Y-72632347D01*
X39758092Y-72603088D01*
X39796171Y-72543836D01*
X39801234Y-72508619D01*
X39801234Y-71979313D01*
X40139132Y-72570636D01*
X40141556Y-72572968D01*
X40142505Y-72576199D01*
X40166764Y-72597219D01*
X40189889Y-72619467D01*
X40193191Y-72620118D01*
X40195735Y-72622323D01*
X40227504Y-72626890D01*
X40258990Y-72633105D01*
X40262120Y-72631868D01*
X40265451Y-72632347D01*
X40294643Y-72619015D01*
X40324494Y-72607219D01*
X40326458Y-72604486D01*
X40329520Y-72603088D01*
X40346874Y-72576084D01*
X40365604Y-72550028D01*
X40365779Y-72546667D01*
X40367599Y-72543836D01*
X40372662Y-72508619D01*
X40372662Y-72080047D01*
X40551234Y-72080047D01*
X40552192Y-72083310D01*
X40554966Y-72110364D01*
X40602585Y-72300840D01*
X40604804Y-72304622D01*
X40612050Y-72326425D01*
X40659668Y-72421662D01*
X40661262Y-72423376D01*
X40661761Y-72425667D01*
X40683083Y-72454149D01*
X40778321Y-72549388D01*
X40788265Y-72554818D01*
X40795373Y-72563646D01*
X40827182Y-72579585D01*
X40970038Y-72627204D01*
X40972377Y-72627288D01*
X40974350Y-72628556D01*
X41009567Y-72633619D01*
X41104805Y-72633619D01*
X41107051Y-72632959D01*
X41109323Y-72633538D01*
X41144333Y-72627204D01*
X41287190Y-72579586D01*
X41296495Y-72573119D01*
X41307569Y-72570710D01*
X41336051Y-72549387D01*
X41383670Y-72501768D01*
X41398492Y-72474621D01*
X41415218Y-72448597D01*
X41416116Y-72442346D01*
X41417425Y-72439950D01*
X41417104Y-72435473D01*
X41420281Y-72413380D01*
X41420281Y-72080047D01*
X41417710Y-72071291D01*
X41419009Y-72062258D01*
X41407942Y-72038025D01*
X41400438Y-72012467D01*
X41393541Y-72006491D01*
X41389750Y-71998189D01*
X41367337Y-71983785D01*
X41347208Y-71966343D01*
X41338175Y-71965044D01*
X41330498Y-71960110D01*
X41295281Y-71955047D01*
X41104805Y-71955047D01*
X41037225Y-71974890D01*
X40991101Y-72028120D01*
X40981077Y-72097836D01*
X41010336Y-72161905D01*
X41069588Y-72199984D01*
X41104805Y-72205047D01*
X41170281Y-72205047D01*
X41170281Y-72355032D01*
X41084522Y-72383619D01*
X41029853Y-72383619D01*
X40934234Y-72351746D01*
X40874203Y-72291715D01*
X40841793Y-72226896D01*
X40801234Y-72064658D01*
X40801234Y-71952579D01*
X40841793Y-71790341D01*
X40874204Y-71725520D01*
X40934232Y-71665491D01*
X41029853Y-71633619D01*
X41122916Y-71633619D01*
X41191760Y-71668041D01*
X41261079Y-71680516D01*
X41326139Y-71653533D01*
X41366283Y-71595660D01*
X41368765Y-71525270D01*
X41332798Y-71464712D01*
X41303563Y-71444434D01*
X41208326Y-71396816D01*
X41197175Y-71394809D01*
X41187641Y-71388682D01*
X41152424Y-71383619D01*
X41009567Y-71383619D01*
X41007320Y-71384278D01*
X41005049Y-71383700D01*
X40970038Y-71390034D01*
X40827182Y-71437653D01*
X40817879Y-71444117D01*
X40806804Y-71446527D01*
X40778322Y-71467850D01*
X40683084Y-71563088D01*
X40681962Y-71565142D01*
X40679946Y-71566340D01*
X40659668Y-71595575D01*
X40612050Y-71690812D01*
X40611274Y-71695123D01*
X40602585Y-71716397D01*
X40554966Y-71906873D01*
X40555104Y-71910270D01*
X40551234Y-71937190D01*
X40551234Y-72080047D01*
X40372662Y-72080047D01*
X40372662Y-71508619D01*
X40352819Y-71441039D01*
X40299589Y-71394915D01*
X40229873Y-71384891D01*
X40165804Y-71414150D01*
X40127725Y-71473402D01*
X40122662Y-71508619D01*
X40122662Y-72037923D01*
X39784764Y-71446602D01*
X39782339Y-71444269D01*
X39781391Y-71441039D01*
X39757131Y-71420018D01*
X39734007Y-71397771D01*
X39730704Y-71397119D01*
X39728161Y-71394915D01*
X39696391Y-71390347D01*
X39664906Y-71384133D01*
X39661775Y-71385369D01*
X39658445Y-71384891D01*
X39629248Y-71398224D01*
X39599403Y-71410019D01*
X39597439Y-71412751D01*
X39594376Y-71414150D01*
X39577017Y-71441159D01*
X39558292Y-71467210D01*
X39558116Y-71470570D01*
X39556297Y-71473402D01*
X39551234Y-71508619D01*
X39551234Y-72508619D01*
X39325044Y-72508619D01*
X39325044Y-71508619D01*
X39305201Y-71441039D01*
X39251971Y-71394915D01*
X39182255Y-71384891D01*
X39118186Y-71414150D01*
X39080107Y-71473402D01*
X39075044Y-71508619D01*
X39075044Y-72508619D01*
X38848853Y-72508619D01*
X38848853Y-71508619D01*
X38846427Y-71500359D01*
X38847723Y-71491848D01*
X38836654Y-71467073D01*
X38829010Y-71441039D01*
X38822503Y-71435401D01*
X38818992Y-71427541D01*
X38796284Y-71412682D01*
X38775780Y-71394915D01*
X38767260Y-71393689D01*
X38760056Y-71388976D01*
X38732920Y-71388752D01*
X38706064Y-71384891D01*
X38698233Y-71388466D01*
X38689624Y-71388396D01*
X38666674Y-71402879D01*
X38641995Y-71414150D01*
X38637341Y-71421391D01*
X38630061Y-71425986D01*
X38610580Y-71455758D01*
X38390519Y-71927315D01*
X38170460Y-71455758D01*
X38164769Y-71449298D01*
X38162344Y-71441039D01*
X38141837Y-71423270D01*
X38123900Y-71402910D01*
X38115620Y-71400552D01*
X38109114Y-71394915D01*
X38082256Y-71391053D01*
X38056159Y-71383623D01*
X38047919Y-71386116D01*
X38039398Y-71384891D01*
X38014717Y-71396162D01*
X37988744Y-71404021D01*
X37983159Y-71410573D01*
X37975329Y-71414150D01*
X37960659Y-71436975D01*
X37943059Y-71457629D01*
X37941903Y-71466160D01*
X37937250Y-71473402D01*
X37932187Y-71508619D01*
X37932187Y-72508619D01*
X37705996Y-72508619D01*
X37705996Y-71508619D01*
X37703570Y-71500359D01*
X37704866Y-71491848D01*
X37693797Y-71467073D01*
X37686153Y-71441039D01*
X37679646Y-71435401D01*
X37676135Y-71427541D01*
X37653427Y-71412682D01*
X37632923Y-71394915D01*
X37624403Y-71393689D01*
X37617199Y-71388976D01*
X37590063Y-71388752D01*
X37563207Y-71384891D01*
X37555376Y-71388466D01*
X37546767Y-71388396D01*
X37523817Y-71402879D01*
X37499138Y-71414150D01*
X37494484Y-71421391D01*
X37487204Y-71425986D01*
X37467723Y-71455758D01*
X37247662Y-71927315D01*
X37027603Y-71455758D01*
X37021912Y-71449298D01*
X37019487Y-71441039D01*
X36998980Y-71423270D01*
X36981043Y-71402910D01*
X36972763Y-71400552D01*
X36966257Y-71394915D01*
X36939399Y-71391053D01*
X36913302Y-71383623D01*
X36905062Y-71386116D01*
X36896541Y-71384891D01*
X36871860Y-71396162D01*
X36845887Y-71404021D01*
X36840302Y-71410573D01*
X36832472Y-71414150D01*
X36817802Y-71436975D01*
X36800202Y-71457629D01*
X36799046Y-71466160D01*
X36794393Y-71473402D01*
X36789330Y-71508619D01*
X36789330Y-72508619D01*
X36704764Y-72508619D01*
X36705915Y-72504101D01*
X36699581Y-72469090D01*
X36366248Y-71469091D01*
X36348622Y-71443729D01*
X36332881Y-71417171D01*
X36328714Y-71415083D01*
X36326053Y-71411253D01*
X36297512Y-71399446D01*
X36269913Y-71385615D01*
X36265277Y-71386111D01*
X36260969Y-71384329D01*
X36230579Y-71389826D01*
X36199879Y-71393113D01*
X36196248Y-71396036D01*
X36191661Y-71396866D01*
X36169074Y-71417913D01*
X36145017Y-71437282D01*
X36142149Y-71443003D01*
X36140132Y-71444884D01*
X36139019Y-71449249D01*
X36129077Y-71469091D01*
X35795745Y-72469091D01*
X35793199Y-72539477D01*
X35749610Y-72539477D01*
X35749850Y-72539069D01*
X35747067Y-72468691D01*
X35731019Y-72436936D01*
X35517807Y-72132347D01*
X35589278Y-72096613D01*
X35590993Y-72095016D01*
X35593283Y-72094519D01*
X35621765Y-72073197D01*
X35669384Y-72025579D01*
X35670507Y-72023522D01*
X35672521Y-72022326D01*
X35692799Y-71993092D01*
X35740418Y-71897854D01*
X35742424Y-71886703D01*
X35748552Y-71877169D01*
X35753615Y-71841952D01*
X35753615Y-71699095D01*
X35750422Y-71688222D01*
X35751639Y-71676956D01*
X35740418Y-71643193D01*
X35692799Y-71547955D01*
X35691204Y-71546240D01*
X35690706Y-71543951D01*
X35669384Y-71515468D01*
X35621765Y-71467850D01*
X35619710Y-71466728D01*
X35618513Y-71464712D01*
X35589278Y-71444434D01*
X35494041Y-71396816D01*
X35482890Y-71394809D01*
X35473356Y-71388682D01*
X35438139Y-71383619D01*
X35057187Y-71383619D01*
X35048431Y-71386189D01*
X35039398Y-71384891D01*
X35015165Y-71395957D01*
X34989607Y-71403462D01*
X34983631Y-71410358D01*
X34975329Y-71414150D01*
X34960925Y-71436562D01*
X34943483Y-71456692D01*
X34942184Y-71465724D01*
X34937250Y-71473402D01*
X34932187Y-71508619D01*
X34932187Y-72508619D01*
X34710153Y-72508619D01*
X34717004Y-72501768D01*
X34731826Y-72474621D01*
X34748552Y-72448597D01*
X34749450Y-72442346D01*
X34750759Y-72439950D01*
X34750438Y-72435473D01*
X34753615Y-72413380D01*
X34753615Y-72080047D01*
X34751044Y-72071291D01*
X34752343Y-72062258D01*
X34741276Y-72038025D01*
X34733772Y-72012467D01*
X34726875Y-72006491D01*
X34723084Y-71998189D01*
X34700671Y-71983785D01*
X34680542Y-71966343D01*
X34671509Y-71965044D01*
X34663832Y-71960110D01*
X34628615Y-71955047D01*
X34438139Y-71955047D01*
X34370559Y-71974890D01*
X34324435Y-72028120D01*
X34314411Y-72097836D01*
X34343670Y-72161905D01*
X34402922Y-72199984D01*
X34438139Y-72205047D01*
X34503615Y-72205047D01*
X34503615Y-72355032D01*
X34417856Y-72383619D01*
X34363187Y-72383619D01*
X34267568Y-72351746D01*
X34207537Y-72291715D01*
X34175127Y-72226896D01*
X34134568Y-72064658D01*
X34134568Y-71952579D01*
X34175127Y-71790341D01*
X34207538Y-71725520D01*
X34267566Y-71665491D01*
X34363187Y-71633619D01*
X34456250Y-71633619D01*
X34525094Y-71668041D01*
X34594413Y-71680516D01*
X34659473Y-71653533D01*
X34699617Y-71595660D01*
X34702099Y-71525270D01*
X34666132Y-71464712D01*
X34636897Y-71444434D01*
X34541660Y-71396816D01*
X34530509Y-71394809D01*
X34520975Y-71388682D01*
X34485758Y-71383619D01*
X34342901Y-71383619D01*
X34340654Y-71384278D01*
X34338383Y-71383700D01*
X34303372Y-71390034D01*
X34160516Y-71437653D01*
X34151213Y-71444117D01*
X34140138Y-71446527D01*
X34111656Y-71467850D01*
X34016418Y-71563088D01*
X34015296Y-71565142D01*
X34013280Y-71566340D01*
X33993002Y-71595575D01*
X33945384Y-71690812D01*
X33944608Y-71695123D01*
X33935919Y-71716397D01*
X33888300Y-71906873D01*
X33888438Y-71910270D01*
X33884568Y-71937190D01*
X33884568Y-72080047D01*
X33753615Y-72080047D01*
X33753615Y-71841952D01*
X33752656Y-71838689D01*
X33749883Y-71811635D01*
X33702264Y-71621159D01*
X33694126Y-71607288D01*
X33690707Y-71591570D01*
X33669384Y-71563088D01*
X33574146Y-71467850D01*
X33572091Y-71466728D01*
X33570894Y-71464712D01*
X33541659Y-71444434D01*
X33446422Y-71396816D01*
X33435271Y-71394809D01*
X33425737Y-71388682D01*
X33390520Y-71383619D01*
X33200044Y-71383619D01*
X33189171Y-71386811D01*
X33177905Y-71385595D01*
X33144142Y-71396816D01*
X33048904Y-71444435D01*
X33047190Y-71446028D01*
X33044900Y-71446527D01*
X33016418Y-71467850D01*
X32921180Y-71563088D01*
X32913472Y-71577202D01*
X32901753Y-71588222D01*
X32888300Y-71621159D01*
X32840681Y-71811635D01*
X32840819Y-71815032D01*
X32836949Y-71841952D01*
X32836949Y-72175285D01*
X32500245Y-72175285D01*
X32470188Y-72132347D01*
X32541659Y-72096613D01*
X32543374Y-72095016D01*
X32545664Y-72094519D01*
X32574146Y-72073197D01*
X32621765Y-72025579D01*
X32622888Y-72023522D01*
X32624902Y-72022326D01*
X32645180Y-71993092D01*
X32692799Y-71897854D01*
X32694805Y-71886703D01*
X32700933Y-71877169D01*
X32705996Y-71841952D01*
X32705996Y-71699095D01*
X32702803Y-71688222D01*
X32704020Y-71676956D01*
X32692799Y-71643193D01*
X32645180Y-71547955D01*
X32643585Y-71546240D01*
X32643087Y-71543951D01*
X32621765Y-71515468D01*
X32574146Y-71467850D01*
X32572091Y-71466728D01*
X32570894Y-71464712D01*
X32541659Y-71444434D01*
X32446422Y-71396816D01*
X32435271Y-71394809D01*
X32425737Y-71388682D01*
X32390520Y-71383619D01*
X32009568Y-71383619D01*
X32000812Y-71386189D01*
X31991779Y-71384891D01*
X31967546Y-71395957D01*
X31941988Y-71403462D01*
X31936012Y-71410358D01*
X31927710Y-71414150D01*
X31913306Y-71436562D01*
X31895864Y-71456692D01*
X31894565Y-71465724D01*
X31889631Y-71473402D01*
X31884568Y-71508619D01*
X31884568Y-72508619D01*
X31134568Y-72508619D01*
X31134568Y-72157428D01*
X31390520Y-72157428D01*
X31401392Y-72154235D01*
X31412658Y-72155452D01*
X31446422Y-72144231D01*
X31541659Y-72096613D01*
X31543374Y-72095016D01*
X31545664Y-72094519D01*
X31574146Y-72073197D01*
X31621765Y-72025579D01*
X31622888Y-72023522D01*
X31624902Y-72022326D01*
X31645180Y-71993092D01*
X31692799Y-71897854D01*
X31694805Y-71886703D01*
X31700933Y-71877169D01*
X31705996Y-71841952D01*
X31705996Y-71699095D01*
X31702803Y-71688222D01*
X31704020Y-71676956D01*
X31692799Y-71643193D01*
X31645180Y-71547955D01*
X31643585Y-71546240D01*
X31643087Y-71543951D01*
X31621765Y-71515468D01*
X31574146Y-71467850D01*
X31572091Y-71466728D01*
X31570894Y-71464712D01*
X31541659Y-71444434D01*
X31446422Y-71396816D01*
X31435271Y-71394809D01*
X31425737Y-71388682D01*
X31390520Y-71383619D01*
X31009568Y-71383619D01*
X31000812Y-71386189D01*
X30991779Y-71384891D01*
X30967546Y-71395957D01*
X30941988Y-71403462D01*
X30936012Y-71410358D01*
X30927710Y-71414150D01*
X30913306Y-71436562D01*
X30895864Y-71456692D01*
X30894565Y-71465724D01*
X30889631Y-71473402D01*
X30884568Y-71508619D01*
X30884568Y-72508619D01*
X30741711Y-72508619D01*
X30741711Y-71240762D01*
X41563138Y-71240762D01*
X41563138Y-72776476D01*
G37*
D11*
G36*
X68597104Y-65945312D02*
G01*
X68248899Y-65852458D01*
X68597104Y-65759603D01*
X68597104Y-65945312D01*
G37*
G36*
X69175676Y-66334450D02*
G01*
X67739962Y-66334450D01*
X67739962Y-65858905D01*
X67883096Y-65858905D01*
X67885987Y-65865124D01*
X67885398Y-65871956D01*
X67896543Y-65887833D01*
X67904722Y-65905427D01*
X67910933Y-65908332D01*
X67914874Y-65913946D01*
X67938494Y-65924926D01*
X68938494Y-66191593D01*
X68989597Y-66187060D01*
X69025830Y-66150740D01*
X69030240Y-66099627D01*
X69000764Y-66057637D01*
X68977144Y-66046657D01*
X68747104Y-65985312D01*
X68747104Y-65719603D01*
X68977144Y-65658260D01*
X69019204Y-65628883D01*
X69032542Y-65579345D01*
X69010916Y-65532822D01*
X68964446Y-65511085D01*
X68938495Y-65513324D01*
X67938494Y-65779990D01*
X67932871Y-65783917D01*
X67926041Y-65784523D01*
X67912338Y-65798258D01*
X67896434Y-65809367D01*
X67894651Y-65815988D01*
X67889808Y-65820843D01*
X67888140Y-65840169D01*
X67883096Y-65858905D01*
X67739962Y-65858905D01*
X67739962Y-65090554D01*
X67882819Y-65090554D01*
X67883437Y-65092254D01*
X67882897Y-65093982D01*
X67888588Y-65119400D01*
X67936207Y-65233686D01*
X67940216Y-65238043D01*
X67941381Y-65243849D01*
X67958586Y-65263405D01*
X68053824Y-65339595D01*
X68056334Y-65340442D01*
X68072822Y-65350666D01*
X68168059Y-65388761D01*
X68171463Y-65388868D01*
X68181205Y-65392668D01*
X68371681Y-65430764D01*
X68375133Y-65430236D01*
X68386390Y-65432221D01*
X68529247Y-65432221D01*
X68532531Y-65431025D01*
X68543956Y-65430764D01*
X68734432Y-65392669D01*
X68737340Y-65390899D01*
X68747577Y-65388761D01*
X68842815Y-65350666D01*
X68844791Y-65348898D01*
X68861813Y-65339596D01*
X68957052Y-65263405D01*
X68960131Y-65258348D01*
X68965390Y-65255625D01*
X68979431Y-65233686D01*
X69027050Y-65119400D01*
X69027132Y-65117592D01*
X69028296Y-65116206D01*
X69032819Y-65090554D01*
X69032819Y-65014363D01*
X69032200Y-65012662D01*
X69032741Y-65010935D01*
X69027050Y-64985517D01*
X68979431Y-64871232D01*
X68975421Y-64866874D01*
X68974257Y-64861069D01*
X68957052Y-64841513D01*
X68909432Y-64803417D01*
X68860826Y-64787003D01*
X68813040Y-64805671D01*
X68788435Y-64850689D01*
X68798523Y-64900991D01*
X68815728Y-64920547D01*
X68848353Y-64946647D01*
X68882819Y-65029363D01*
X68882819Y-65075553D01*
X68848354Y-65158269D01*
X68776787Y-65215521D01*
X68698258Y-65246933D01*
X68521823Y-65282221D01*
X68393819Y-65282221D01*
X68217377Y-65246932D01*
X68138848Y-65215521D01*
X68067284Y-65158270D01*
X68032819Y-65075553D01*
X68032819Y-65029363D01*
X68067283Y-64946648D01*
X68099910Y-64920546D01*
X68126593Y-64876728D01*
X68118869Y-64826010D01*
X68080350Y-64792124D01*
X68029061Y-64790924D01*
X68006205Y-64803417D01*
X67958585Y-64841513D01*
X67955505Y-64846569D01*
X67950249Y-64849292D01*
X67936207Y-64871232D01*
X67888588Y-64985517D01*
X67888505Y-64987324D01*
X67887342Y-64988711D01*
X67882819Y-65014363D01*
X67882819Y-65090554D01*
X67739962Y-65090554D01*
X67739962Y-64633411D01*
X67882819Y-64633411D01*
X67900366Y-64681620D01*
X67944795Y-64707272D01*
X67995319Y-64698363D01*
X68028296Y-64659063D01*
X68032819Y-64633411D01*
X68032819Y-64479840D01*
X68957819Y-64479840D01*
X69006028Y-64462293D01*
X69031680Y-64417864D01*
X69022771Y-64367340D01*
X68983471Y-64334363D01*
X68957819Y-64329840D01*
X68032819Y-64329840D01*
X68032819Y-64176268D01*
X68015272Y-64128059D01*
X67970843Y-64102407D01*
X67920319Y-64111316D01*
X67887342Y-64150616D01*
X67882819Y-64176268D01*
X67882819Y-64633411D01*
X67739962Y-64633411D01*
X67739962Y-63947697D01*
X68120914Y-63947697D01*
X68124172Y-63956649D01*
X68123214Y-63966130D01*
X68132696Y-63980067D01*
X68138461Y-63995906D01*
X68146712Y-64000670D01*
X68152072Y-64008548D01*
X68168291Y-64013129D01*
X68182890Y-64021558D01*
X68192274Y-64019903D01*
X68201443Y-64022493D01*
X68226691Y-64016091D01*
X68988596Y-63673233D01*
X68996137Y-63665891D01*
X69006028Y-63662292D01*
X69011289Y-63653179D01*
X69019830Y-63647026D01*
X69021242Y-63641453D01*
X69025358Y-63637448D01*
X69026416Y-63626979D01*
X69031680Y-63617863D01*
X69029852Y-63607497D01*
X69032439Y-63597296D01*
X69029941Y-63592122D01*
X69030519Y-63586406D01*
X69024598Y-63577703D01*
X69022771Y-63567339D01*
X69014709Y-63560574D01*
X69010133Y-63551096D01*
X69003364Y-63546491D01*
X69001661Y-63543988D01*
X68998280Y-63543033D01*
X68988596Y-63536445D01*
X68226691Y-63193588D01*
X68217190Y-63192885D01*
X68208938Y-63188121D01*
X68192336Y-63191048D01*
X68175528Y-63189806D01*
X68167797Y-63195375D01*
X68158414Y-63197030D01*
X68147579Y-63209941D01*
X68133903Y-63219795D01*
X68131561Y-63229031D01*
X68125437Y-63236330D01*
X68120914Y-63261982D01*
X68120914Y-63947697D01*
X67739962Y-63947697D01*
X67739962Y-63045264D01*
X69175676Y-63045264D01*
X69175676Y-66334450D01*
G37*
D12*
G36*
X30207145Y-37174753D02*
G01*
X30226077Y-37193686D01*
X30251428Y-37244387D01*
X30251428Y-37470831D01*
X29977619Y-37470831D01*
X29977619Y-37244387D01*
X30002969Y-37193685D01*
X30021902Y-37174753D01*
X30072604Y-37149403D01*
X30156444Y-37149403D01*
X30207145Y-37174753D01*
G37*
G36*
X30207145Y-35031896D02*
G01*
X30226077Y-35050829D01*
X30251428Y-35101530D01*
X30251428Y-35327974D01*
X29977619Y-35327974D01*
X29977619Y-35101530D01*
X30002969Y-35050828D01*
X30021902Y-35031896D01*
X30072604Y-35006546D01*
X30156444Y-35006546D01*
X30207145Y-35031896D01*
G37*
G36*
X30683336Y-29174754D02*
G01*
X30702268Y-29193686D01*
X30727619Y-29244387D01*
X30727619Y-29375846D01*
X30702268Y-29426547D01*
X30683336Y-29445480D01*
X30632634Y-29470831D01*
X30453556Y-29470831D01*
X30402854Y-29445480D01*
X30383921Y-29426548D01*
X30358571Y-29375847D01*
X30358571Y-29244387D01*
X30383921Y-29193685D01*
X30402854Y-29174753D01*
X30453556Y-29149403D01*
X30632634Y-29149403D01*
X30683336Y-29174754D01*
G37*
G36*
X31120476Y-37863688D02*
G01*
X29539139Y-37863688D01*
X29539139Y-37595831D01*
X29727619Y-37595831D01*
X29730189Y-37604586D01*
X29728891Y-37613620D01*
X29739957Y-37637852D01*
X29747462Y-37663411D01*
X29754358Y-37669386D01*
X29758150Y-37677689D01*
X29780562Y-37692092D01*
X29800692Y-37709535D01*
X29809724Y-37710833D01*
X29817402Y-37715768D01*
X29852619Y-37720831D01*
X30852619Y-37720831D01*
X30920199Y-37700988D01*
X30966323Y-37647758D01*
X30976347Y-37578042D01*
X30947088Y-37513973D01*
X30887836Y-37475894D01*
X30852619Y-37470831D01*
X30501428Y-37470831D01*
X30501428Y-37214879D01*
X30498235Y-37204006D01*
X30499452Y-37192740D01*
X30488231Y-37158977D01*
X30440612Y-37063739D01*
X30439017Y-37062024D01*
X30438519Y-37059735D01*
X30417197Y-37031252D01*
X30369578Y-36983634D01*
X30367523Y-36982512D01*
X30366326Y-36980496D01*
X30337091Y-36960218D01*
X30241854Y-36912600D01*
X30230703Y-36910593D01*
X30221169Y-36904466D01*
X30185952Y-36899403D01*
X30043095Y-36899403D01*
X30032222Y-36902595D01*
X30020956Y-36901379D01*
X29987193Y-36912600D01*
X29891955Y-36960219D01*
X29890240Y-36961813D01*
X29887951Y-36962312D01*
X29859468Y-36983634D01*
X29811850Y-37031253D01*
X29810728Y-37033307D01*
X29808712Y-37034505D01*
X29788434Y-37063740D01*
X29740816Y-37158977D01*
X29738809Y-37170127D01*
X29732682Y-37179662D01*
X29727619Y-37214879D01*
X29727619Y-37595831D01*
X29539139Y-37595831D01*
X29539139Y-35822574D01*
X29728135Y-35822574D01*
X29741759Y-35891678D01*
X29790580Y-35942445D01*
X29823666Y-35955528D01*
X30341759Y-36078883D01*
X30106125Y-36141719D01*
X30103362Y-36143398D01*
X30100130Y-36143479D01*
X30073474Y-36161566D01*
X30045940Y-36178304D01*
X30044523Y-36181211D01*
X30041848Y-36183027D01*
X30029197Y-36212666D01*
X30015089Y-36241622D01*
X30015468Y-36244831D01*
X30014199Y-36247806D01*
X30019580Y-36279575D01*
X30023366Y-36311566D01*
X30025421Y-36314062D01*
X30025962Y-36317251D01*
X30047662Y-36341064D01*
X30068145Y-36365933D01*
X30071224Y-36366921D01*
X30073402Y-36369311D01*
X30106125Y-36383277D01*
X30341759Y-36446112D01*
X29823666Y-36569468D01*
X29762520Y-36604425D01*
X29729980Y-36666890D01*
X29736376Y-36737032D01*
X29779679Y-36792582D01*
X29846140Y-36815901D01*
X29881572Y-36812670D01*
X30881572Y-36574575D01*
X30885871Y-36572116D01*
X30890823Y-36571993D01*
X30916151Y-36554805D01*
X30942718Y-36539618D01*
X30945005Y-36535226D01*
X30949105Y-36532445D01*
X30961122Y-36504287D01*
X30975258Y-36477153D01*
X30974808Y-36472222D01*
X30976753Y-36467666D01*
X30971640Y-36437485D01*
X30968862Y-36407011D01*
X30965817Y-36403105D01*
X30964990Y-36398221D01*
X30944374Y-36375597D01*
X30925559Y-36351461D01*
X30920885Y-36349821D01*
X30917550Y-36346161D01*
X30884827Y-36332195D01*
X30623462Y-36262498D01*
X30884827Y-36192801D01*
X30889058Y-36190228D01*
X30894005Y-36189972D01*
X30918860Y-36172112D01*
X30945013Y-36156215D01*
X30947182Y-36151762D01*
X30951204Y-36148873D01*
X30962458Y-36120411D01*
X30975864Y-36092898D01*
X30975281Y-36087980D01*
X30977103Y-36083375D01*
X30971183Y-36053348D01*
X30967586Y-36022954D01*
X30964437Y-36019130D01*
X30963479Y-36014271D01*
X30942265Y-35992212D01*
X30922807Y-35968587D01*
X30918090Y-35967072D01*
X30914658Y-35963504D01*
X30881572Y-35950421D01*
X29881572Y-35712326D01*
X29811233Y-35715977D01*
X29754034Y-35757076D01*
X29728135Y-35822574D01*
X29539139Y-35822574D01*
X29539139Y-35452974D01*
X29727619Y-35452974D01*
X29730189Y-35461729D01*
X29728891Y-35470763D01*
X29739957Y-35494995D01*
X29747462Y-35520554D01*
X29754358Y-35526529D01*
X29758150Y-35534832D01*
X29780562Y-35549235D01*
X29800692Y-35566678D01*
X29809724Y-35567976D01*
X29817402Y-35572911D01*
X29852619Y-35577974D01*
X30852619Y-35577974D01*
X30920199Y-35558131D01*
X30966323Y-35504901D01*
X30976347Y-35435185D01*
X30947088Y-35371116D01*
X30887836Y-35333037D01*
X30852619Y-35327974D01*
X30501428Y-35327974D01*
X30501428Y-35279961D01*
X30924302Y-34983950D01*
X30968286Y-34928939D01*
X30975547Y-34858881D01*
X30943780Y-34796019D01*
X30883069Y-34760311D01*
X30812691Y-34763094D01*
X30780936Y-34779142D01*
X30476347Y-34992353D01*
X30440612Y-34920882D01*
X30439017Y-34919167D01*
X30438519Y-34916878D01*
X30417197Y-34888395D01*
X30369578Y-34840777D01*
X30367523Y-34839655D01*
X30366326Y-34837639D01*
X30337091Y-34817361D01*
X30241854Y-34769743D01*
X30230703Y-34767736D01*
X30221169Y-34761609D01*
X30185952Y-34756546D01*
X30043095Y-34756546D01*
X30032222Y-34759738D01*
X30020956Y-34758522D01*
X29987193Y-34769743D01*
X29891955Y-34817362D01*
X29890240Y-34818956D01*
X29887951Y-34819455D01*
X29859468Y-34840777D01*
X29811850Y-34888396D01*
X29810728Y-34890450D01*
X29808712Y-34891648D01*
X29788434Y-34920883D01*
X29740816Y-35016120D01*
X29738809Y-35027270D01*
X29732682Y-35036805D01*
X29727619Y-35072022D01*
X29727619Y-35452974D01*
X29539139Y-35452974D01*
X29539139Y-34470763D01*
X29728891Y-34470763D01*
X29758150Y-34534832D01*
X29817402Y-34572911D01*
X29852619Y-34577974D01*
X30852619Y-34577974D01*
X30920199Y-34558131D01*
X30966323Y-34504901D01*
X30976347Y-34435185D01*
X30947088Y-34371116D01*
X30887836Y-34333037D01*
X30852619Y-34327974D01*
X29852619Y-34327974D01*
X29785039Y-34347817D01*
X29738915Y-34401047D01*
X29728891Y-34470763D01*
X29539139Y-34470763D01*
X29539139Y-33988112D01*
X29728133Y-33988112D01*
X29729369Y-33991242D01*
X29728891Y-33994573D01*
X29742224Y-34023769D01*
X29754019Y-34053615D01*
X29756751Y-34055578D01*
X29758150Y-34058642D01*
X29785159Y-34076000D01*
X29811210Y-34094726D01*
X29814570Y-34094901D01*
X29817402Y-34096721D01*
X29852619Y-34101784D01*
X30852619Y-34101784D01*
X30920199Y-34081941D01*
X30966323Y-34028711D01*
X30976347Y-33958995D01*
X30947088Y-33894926D01*
X30887836Y-33856847D01*
X30852619Y-33851784D01*
X30323314Y-33851784D01*
X30914636Y-33513886D01*
X30916968Y-33511461D01*
X30920199Y-33510513D01*
X30941219Y-33486253D01*
X30963467Y-33463129D01*
X30964118Y-33459826D01*
X30966323Y-33457283D01*
X30970890Y-33425513D01*
X30977105Y-33394028D01*
X30975868Y-33390897D01*
X30976347Y-33387567D01*
X30963015Y-33358374D01*
X30951219Y-33328524D01*
X30948486Y-33326559D01*
X30947088Y-33323498D01*
X30920084Y-33306143D01*
X30894028Y-33287414D01*
X30890667Y-33287238D01*
X30887836Y-33285419D01*
X30852619Y-33280356D01*
X29852619Y-33280356D01*
X29785039Y-33300199D01*
X29738915Y-33353429D01*
X29728891Y-33423145D01*
X29758150Y-33487214D01*
X29817402Y-33525293D01*
X29852619Y-33530356D01*
X30381923Y-33530356D01*
X29790602Y-33868254D01*
X29788269Y-33870678D01*
X29785039Y-33871627D01*
X29764018Y-33895886D01*
X29741771Y-33919011D01*
X29741119Y-33922313D01*
X29738915Y-33924857D01*
X29734347Y-33956626D01*
X29728133Y-33988112D01*
X29539139Y-33988112D01*
X29539139Y-31954534D01*
X29681996Y-31954534D01*
X29689493Y-32024568D01*
X29733663Y-32079430D01*
X29765472Y-32095369D01*
X30479756Y-32333464D01*
X30508548Y-32334505D01*
X30537074Y-32338607D01*
X30543302Y-32335762D01*
X30550143Y-32336010D01*
X30574924Y-32321321D01*
X30601143Y-32309348D01*
X30604845Y-32303586D01*
X30610733Y-32300097D01*
X30623639Y-32274342D01*
X30639222Y-32250096D01*
X30640602Y-32240494D01*
X30642289Y-32237129D01*
X30641775Y-32232333D01*
X30644285Y-32214879D01*
X30644285Y-31863689D01*
X30852619Y-31863689D01*
X30920199Y-31843846D01*
X30966323Y-31790616D01*
X30976347Y-31720900D01*
X30947088Y-31656831D01*
X30887836Y-31618752D01*
X30852619Y-31613689D01*
X30644285Y-31613689D01*
X30644285Y-31595832D01*
X30624442Y-31528252D01*
X30571212Y-31482128D01*
X30516198Y-31474217D01*
X30571733Y-31432646D01*
X30596348Y-31366653D01*
X30581376Y-31297830D01*
X30560054Y-31269347D01*
X30526778Y-31236072D01*
X30516182Y-31214879D01*
X30583470Y-31080304D01*
X30584275Y-31075829D01*
X30587130Y-31072290D01*
X30590456Y-31041482D01*
X30595944Y-31010985D01*
X30594201Y-31006784D01*
X30594690Y-31002264D01*
X30583469Y-30968501D01*
X30535850Y-30873263D01*
X30534255Y-30871548D01*
X30533757Y-30869259D01*
X30512435Y-30840776D01*
X30464816Y-30793158D01*
X30402999Y-30759402D01*
X30332745Y-30764427D01*
X30276360Y-30806636D01*
X30251746Y-30872629D01*
X30266718Y-30941452D01*
X30288040Y-30969934D01*
X30321315Y-31003210D01*
X30331911Y-31024403D01*
X30264625Y-31158977D01*
X30263819Y-31163450D01*
X30260964Y-31166991D01*
X30257637Y-31197806D01*
X30252150Y-31228297D01*
X30253891Y-31232497D01*
X30253404Y-31237017D01*
X30264625Y-31270781D01*
X30312243Y-31366018D01*
X30313839Y-31367733D01*
X30314337Y-31370023D01*
X30335659Y-31398505D01*
X30383277Y-31446124D01*
X30445095Y-31479879D01*
X30491783Y-31476539D01*
X30437427Y-31501363D01*
X30399348Y-31560615D01*
X30394285Y-31595832D01*
X30394285Y-31613689D01*
X30185952Y-31613689D01*
X30118372Y-31633532D01*
X30072248Y-31686762D01*
X30062224Y-31756478D01*
X30091483Y-31820547D01*
X30150735Y-31858626D01*
X30185952Y-31863689D01*
X30394285Y-31863689D01*
X30394285Y-32041450D01*
X29844528Y-31858199D01*
X29774142Y-31855653D01*
X29713552Y-31891565D01*
X29681996Y-31954534D01*
X29539139Y-31954534D01*
X29539139Y-30278206D01*
X29728609Y-30278206D01*
X29729046Y-30279207D01*
X29728891Y-30280287D01*
X29743094Y-30311389D01*
X29756788Y-30342757D01*
X29757857Y-30343715D01*
X29758150Y-30344356D01*
X29759640Y-30345314D01*
X29783281Y-30366504D01*
X29915840Y-30454876D01*
X29987981Y-30527017D01*
X30026529Y-30604113D01*
X30074500Y-30655685D01*
X30142738Y-30673134D01*
X30209577Y-30650922D01*
X30253797Y-30596099D01*
X30261357Y-30526073D01*
X30250136Y-30492310D01*
X30202517Y-30397072D01*
X30200923Y-30395358D01*
X30200425Y-30393068D01*
X30196255Y-30387498D01*
X30727619Y-30387498D01*
X30727619Y-30548212D01*
X30747462Y-30615792D01*
X30800692Y-30661916D01*
X30870408Y-30671940D01*
X30934477Y-30642681D01*
X30972556Y-30583429D01*
X30977619Y-30548212D01*
X30977619Y-29976784D01*
X30957776Y-29909204D01*
X30904546Y-29863080D01*
X30834830Y-29853056D01*
X30770761Y-29882315D01*
X30732682Y-29941567D01*
X30727619Y-29976784D01*
X30727619Y-30137498D01*
X29852619Y-30137498D01*
X29819821Y-30147128D01*
X29786815Y-30156220D01*
X29786085Y-30157033D01*
X29785039Y-30157341D01*
X29762651Y-30183177D01*
X29739804Y-30208667D01*
X29739630Y-30209745D01*
X29738915Y-30210571D01*
X29734047Y-30244425D01*
X29728609Y-30278206D01*
X29539139Y-30278206D01*
X29539139Y-29310117D01*
X29727619Y-29310117D01*
X29730811Y-29320989D01*
X29729595Y-29332255D01*
X29740816Y-29366019D01*
X29788434Y-29461256D01*
X29790030Y-29462971D01*
X29790528Y-29465261D01*
X29811850Y-29493743D01*
X29859468Y-29541362D01*
X29863631Y-29543635D01*
X29878519Y-29556980D01*
X30021377Y-29652218D01*
X30024915Y-29653322D01*
X30027459Y-29656027D01*
X30060397Y-29669480D01*
X30250873Y-29717099D01*
X30254270Y-29716960D01*
X30281190Y-29720831D01*
X30662142Y-29720831D01*
X30673014Y-29717638D01*
X30684280Y-29718855D01*
X30718044Y-29707634D01*
X30813281Y-29660016D01*
X30814995Y-29658420D01*
X30817285Y-29657923D01*
X30845767Y-29636601D01*
X30893387Y-29588982D01*
X30894509Y-29586925D01*
X30896525Y-29585729D01*
X30916803Y-29556495D01*
X30964422Y-29461257D01*
X30966428Y-29450106D01*
X30972556Y-29440572D01*
X30977619Y-29405355D01*
X30977619Y-29214879D01*
X30974426Y-29204006D01*
X30975643Y-29192740D01*
X30964422Y-29158977D01*
X30916803Y-29063739D01*
X30915208Y-29062024D01*
X30914710Y-29059734D01*
X30893387Y-29031252D01*
X30845767Y-28983633D01*
X30843713Y-28982511D01*
X30842516Y-28980496D01*
X30813281Y-28960218D01*
X30718044Y-28912600D01*
X30706893Y-28910593D01*
X30697359Y-28904466D01*
X30662142Y-28899403D01*
X30424047Y-28899403D01*
X30413174Y-28902595D01*
X30401908Y-28901379D01*
X30368145Y-28912600D01*
X30272907Y-28960219D01*
X30271192Y-28961813D01*
X30268903Y-28962312D01*
X30240420Y-28983634D01*
X30192802Y-29031253D01*
X30191680Y-29033307D01*
X30189664Y-29034505D01*
X30169386Y-29063740D01*
X30121768Y-29158977D01*
X30119761Y-29170127D01*
X30113634Y-29179662D01*
X30108571Y-29214879D01*
X30108571Y-29405355D01*
X30110224Y-29410987D01*
X30027493Y-29355833D01*
X30002969Y-29331310D01*
X29977619Y-29280609D01*
X29977619Y-29119641D01*
X29957776Y-29052061D01*
X29904546Y-29005937D01*
X29834830Y-28995913D01*
X29770761Y-29025172D01*
X29732682Y-29084424D01*
X29727619Y-29119641D01*
X29727619Y-29310117D01*
X29539139Y-29310117D01*
X29539139Y-28725382D01*
X29728329Y-28725382D01*
X29740866Y-28794690D01*
X29788884Y-28846219D01*
X29857137Y-28863607D01*
X29892147Y-28857273D01*
X30892147Y-28523941D01*
X30917511Y-28506313D01*
X30944067Y-28490573D01*
X30946155Y-28486405D01*
X30949984Y-28483745D01*
X30961785Y-28455216D01*
X30975623Y-28427605D01*
X30975126Y-28422967D01*
X30976908Y-28418661D01*
X30971412Y-28388278D01*
X30968125Y-28357571D01*
X30965201Y-28353939D01*
X30964372Y-28349353D01*
X30943324Y-28326766D01*
X30923956Y-28302709D01*
X30918234Y-28299841D01*
X30916354Y-28297824D01*
X30911988Y-28296711D01*
X30892147Y-28286769D01*
X29892147Y-27953437D01*
X29821761Y-27950891D01*
X29761171Y-27986803D01*
X29729615Y-28049772D01*
X29737112Y-28119806D01*
X29781282Y-28174668D01*
X29813091Y-28190607D01*
X30457335Y-28405355D01*
X29813091Y-28620103D01*
X29755253Y-28660298D01*
X29728329Y-28725382D01*
X29539139Y-28725382D01*
X29539139Y-27808034D01*
X31120476Y-27808034D01*
X31120476Y-37863688D01*
G37*
D11*
G36*
X52782257Y-78227284D02*
G01*
X52839508Y-78298848D01*
X52870919Y-78377377D01*
X52906208Y-78553818D01*
X52906208Y-78681818D01*
X52870919Y-78858259D01*
X52839508Y-78936788D01*
X52782255Y-79008354D01*
X52699541Y-79042819D01*
X52599065Y-79042819D01*
X52599065Y-78192819D01*
X52699541Y-78192819D01*
X52782257Y-78227284D01*
G37*
G36*
X51292528Y-78222267D02*
G01*
X51315697Y-78251228D01*
X51344303Y-78322738D01*
X51344303Y-78436708D01*
X51315697Y-78508218D01*
X51292528Y-78537179D01*
X51245412Y-78566628D01*
X51037160Y-78566628D01*
X51037160Y-78192819D01*
X51245412Y-78192819D01*
X51292528Y-78222267D01*
G37*
G36*
X53199065Y-79335676D02*
G01*
X50744303Y-79335676D01*
X50744303Y-79117819D01*
X50887160Y-79117819D01*
X50904707Y-79166028D01*
X50949136Y-79191680D01*
X50999660Y-79182771D01*
X51032637Y-79143471D01*
X51037160Y-79117819D01*
X51037160Y-78716628D01*
X51108677Y-78716628D01*
X51353865Y-79154464D01*
X51392730Y-79187953D01*
X51444028Y-79188627D01*
X51483758Y-79156167D01*
X51493328Y-79105765D01*
X51484741Y-79081174D01*
X51279433Y-78714554D01*
X51282522Y-78714988D01*
X51306672Y-78705228D01*
X51382862Y-78657609D01*
X51383348Y-78656985D01*
X51401677Y-78640861D01*
X51439772Y-78593242D01*
X51440619Y-78590731D01*
X51450843Y-78574245D01*
X51488939Y-78479007D01*
X51488978Y-78477759D01*
X51489780Y-78476804D01*
X51494303Y-78451152D01*
X51494303Y-78308295D01*
X51493876Y-78307122D01*
X51494266Y-78305937D01*
X51488939Y-78280440D01*
X51450843Y-78185202D01*
X51449074Y-78183224D01*
X51439772Y-78166205D01*
X51409489Y-78128351D01*
X51611712Y-78128351D01*
X51619793Y-78153113D01*
X51867636Y-78617819D01*
X51619793Y-79082525D01*
X51612589Y-79133320D01*
X51639719Y-79176862D01*
X51688492Y-79192777D01*
X51736083Y-79173619D01*
X51752145Y-79153113D01*
X51952636Y-78777193D01*
X52153127Y-79153113D01*
X52191296Y-79187393D01*
X52242570Y-79189120D01*
X52282957Y-79157483D01*
X52291335Y-79117819D01*
X52449065Y-79117819D01*
X52455728Y-79136127D01*
X52459113Y-79155319D01*
X52464297Y-79159669D01*
X52466612Y-79166028D01*
X52483485Y-79175770D01*
X52498413Y-79188296D01*
X52508155Y-79190013D01*
X52511041Y-79191680D01*
X52514323Y-79191101D01*
X52524065Y-79192819D01*
X52714541Y-79192819D01*
X52716241Y-79192200D01*
X52717969Y-79192741D01*
X52743387Y-79187050D01*
X52857673Y-79139431D01*
X52862030Y-79135421D01*
X52867836Y-79134257D01*
X52887393Y-79117052D01*
X52963583Y-79021812D01*
X52964431Y-79019299D01*
X52974653Y-79002815D01*
X53012748Y-78907578D01*
X53012855Y-78904173D01*
X53016655Y-78894432D01*
X53054751Y-78703956D01*
X53054223Y-78700503D01*
X53056208Y-78689247D01*
X53056208Y-78546390D01*
X53055012Y-78543105D01*
X53054751Y-78531681D01*
X53016655Y-78341205D01*
X53014887Y-78338298D01*
X53012748Y-78328059D01*
X52974653Y-78232822D01*
X52972886Y-78230846D01*
X52963582Y-78213824D01*
X52887392Y-78118586D01*
X52882335Y-78115506D01*
X52879612Y-78110248D01*
X52857673Y-78096207D01*
X52743387Y-78048588D01*
X52741579Y-78048505D01*
X52740193Y-78047342D01*
X52714541Y-78042819D01*
X52524065Y-78042819D01*
X52505756Y-78049482D01*
X52486565Y-78052867D01*
X52482214Y-78058051D01*
X52475856Y-78060366D01*
X52466113Y-78077239D01*
X52453588Y-78092167D01*
X52451870Y-78101909D01*
X52450204Y-78104795D01*
X52450782Y-78108077D01*
X52449065Y-78117819D01*
X52449065Y-79117819D01*
X52291335Y-79117819D01*
X52293560Y-79107288D01*
X52285480Y-79082525D01*
X52037636Y-78617819D01*
X52285480Y-78153113D01*
X52292684Y-78102318D01*
X52265553Y-78058776D01*
X52216781Y-78042861D01*
X52169189Y-78062019D01*
X52153127Y-78082525D01*
X51952636Y-78458444D01*
X51752145Y-78082525D01*
X51713976Y-78048245D01*
X51662703Y-78046519D01*
X51622315Y-78078156D01*
X51611712Y-78128351D01*
X51409489Y-78128351D01*
X51401677Y-78118586D01*
X51401005Y-78118177D01*
X51382862Y-78101838D01*
X51306672Y-78054219D01*
X51298766Y-78052537D01*
X51292574Y-78047342D01*
X51266922Y-78042819D01*
X50962160Y-78042819D01*
X50943851Y-78049482D01*
X50924660Y-78052867D01*
X50920309Y-78058051D01*
X50913951Y-78060366D01*
X50904208Y-78077239D01*
X50891683Y-78092167D01*
X50889965Y-78101909D01*
X50888299Y-78104795D01*
X50888877Y-78108077D01*
X50887160Y-78117819D01*
X50887160Y-79117819D01*
X50744303Y-79117819D01*
X50744303Y-77899962D01*
X53199065Y-77899962D01*
X53199065Y-79335676D01*
G37*
G36*
X21353104Y-65945312D02*
G01*
X21004899Y-65852458D01*
X21353104Y-65759603D01*
X21353104Y-65945312D01*
G37*
G36*
X21931399Y-66334450D02*
G01*
X20496239Y-66334450D01*
X20496239Y-65858905D01*
X20639096Y-65858905D01*
X20641987Y-65865124D01*
X20641398Y-65871956D01*
X20652543Y-65887833D01*
X20660722Y-65905427D01*
X20666933Y-65908332D01*
X20670874Y-65913946D01*
X20694494Y-65924926D01*
X21694494Y-66191593D01*
X21745597Y-66187060D01*
X21781830Y-66150740D01*
X21786240Y-66099627D01*
X21756764Y-66057637D01*
X21733144Y-66046657D01*
X21503104Y-65985312D01*
X21503104Y-65719603D01*
X21733144Y-65658260D01*
X21775204Y-65628883D01*
X21788542Y-65579345D01*
X21766916Y-65532822D01*
X21720446Y-65511085D01*
X21694495Y-65513324D01*
X20694494Y-65779990D01*
X20688871Y-65783917D01*
X20682041Y-65784523D01*
X20668338Y-65798258D01*
X20652434Y-65809367D01*
X20650651Y-65815988D01*
X20645808Y-65820843D01*
X20644140Y-65840169D01*
X20639096Y-65858905D01*
X20496239Y-65858905D01*
X20496239Y-65368228D01*
X21931399Y-65368228D01*
X21931399Y-66334450D01*
G37*
D12*
G36*
X59651904Y-69575621D02*
G01*
X59457903Y-69510955D01*
X59651904Y-69446288D01*
X59651904Y-69575621D01*
G37*
G36*
X59651904Y-65908954D02*
G01*
X59457903Y-65844288D01*
X59651904Y-65779621D01*
X59651904Y-65908954D01*
G37*
G36*
X59855855Y-63957158D02*
G01*
X59912268Y-64013572D01*
X59937619Y-64064272D01*
X59937619Y-64195731D01*
X59912268Y-64246431D01*
X59855855Y-64302845D01*
X59713896Y-64338335D01*
X59411341Y-64338335D01*
X59269381Y-64302845D01*
X59212970Y-64246434D01*
X59187619Y-64195732D01*
X59187619Y-64064272D01*
X59212970Y-64013570D01*
X59269381Y-63957159D01*
X59411341Y-63921669D01*
X59713896Y-63921669D01*
X59855855Y-63957158D01*
G37*
G36*
X59417145Y-62947019D02*
G01*
X59436077Y-62965952D01*
X59461428Y-63016653D01*
X59461428Y-63243097D01*
X59187619Y-63243097D01*
X59187619Y-63016653D01*
X59212969Y-62965951D01*
X59231902Y-62947019D01*
X59282604Y-62921669D01*
X59366444Y-62921669D01*
X59417145Y-62947019D01*
G37*
G36*
X60330476Y-70108276D02*
G01*
X58794762Y-70108276D01*
X58794762Y-69497649D01*
X58938329Y-69497649D01*
X58943824Y-69528031D01*
X58947112Y-69558739D01*
X58950036Y-69562371D01*
X58950866Y-69566957D01*
X58971909Y-69589539D01*
X58991282Y-69613601D01*
X58997003Y-69616467D01*
X58998884Y-69618486D01*
X59003251Y-69619598D01*
X59023091Y-69629540D01*
X60023090Y-69962873D01*
X60093477Y-69965419D01*
X60154067Y-69929506D01*
X60185623Y-69866538D01*
X60178125Y-69796504D01*
X60133956Y-69741642D01*
X60102147Y-69725702D01*
X59901904Y-69658954D01*
X59901904Y-69362955D01*
X60102147Y-69296208D01*
X60159984Y-69256012D01*
X60186908Y-69190928D01*
X60174372Y-69121620D01*
X60126354Y-69070091D01*
X60058101Y-69052703D01*
X60023090Y-69059037D01*
X59023091Y-69392370D01*
X58997734Y-69409991D01*
X58971171Y-69425736D01*
X58969082Y-69429903D01*
X58965253Y-69432565D01*
X58953447Y-69461102D01*
X58939615Y-69488705D01*
X58940111Y-69493340D01*
X58938329Y-69497649D01*
X58794762Y-69497649D01*
X58794762Y-68558574D01*
X58937619Y-68558574D01*
X58938278Y-68560820D01*
X58937700Y-68563092D01*
X58944034Y-68598102D01*
X58991652Y-68740959D01*
X58998119Y-68750264D01*
X59000528Y-68761337D01*
X59021850Y-68789819D01*
X59117088Y-68885057D01*
X59119143Y-68886179D01*
X59120340Y-68888194D01*
X59149574Y-68908472D01*
X59244812Y-68956091D01*
X59249122Y-68956866D01*
X59270397Y-68965556D01*
X59460873Y-69013175D01*
X59464270Y-69013036D01*
X59491190Y-69016907D01*
X59634047Y-69016907D01*
X59637310Y-69015948D01*
X59664364Y-69013175D01*
X59854840Y-68965556D01*
X59858622Y-68963336D01*
X59880425Y-68956091D01*
X59975662Y-68908473D01*
X59977376Y-68906878D01*
X59979667Y-68906380D01*
X60008149Y-68885058D01*
X60103388Y-68789820D01*
X60108818Y-68779875D01*
X60117646Y-68772768D01*
X60133585Y-68740959D01*
X60181204Y-68598103D01*
X60181288Y-68595763D01*
X60182556Y-68593791D01*
X60187619Y-68558574D01*
X60187619Y-68463336D01*
X60186959Y-68461089D01*
X60187538Y-68458818D01*
X60181204Y-68423807D01*
X60133585Y-68280951D01*
X60127119Y-68271647D01*
X60124710Y-68260572D01*
X60103387Y-68232090D01*
X60055767Y-68184471D01*
X59993950Y-68150716D01*
X59923696Y-68155742D01*
X59867312Y-68197951D01*
X59842698Y-68263944D01*
X59857670Y-68332767D01*
X59878993Y-68361249D01*
X59905746Y-68388002D01*
X59937619Y-68483621D01*
X59937619Y-68538288D01*
X59905746Y-68633906D01*
X59845715Y-68693937D01*
X59780896Y-68726347D01*
X59618658Y-68766907D01*
X59506579Y-68766907D01*
X59344342Y-68726347D01*
X59279519Y-68693936D01*
X59219491Y-68633908D01*
X59187619Y-68538290D01*
X59187619Y-68483619D01*
X59219491Y-68388001D01*
X59246245Y-68361249D01*
X59280000Y-68299431D01*
X59274975Y-68229177D01*
X59232767Y-68172793D01*
X59166774Y-68148178D01*
X59097951Y-68163150D01*
X59069468Y-68184472D01*
X59021850Y-68232091D01*
X59016420Y-68242034D01*
X59007592Y-68249142D01*
X58991652Y-68280951D01*
X58944034Y-68423808D01*
X58943949Y-68426146D01*
X58942682Y-68428119D01*
X58937619Y-68463336D01*
X58937619Y-68558574D01*
X58794762Y-68558574D01*
X58794762Y-67987145D01*
X58937619Y-67987145D01*
X58957462Y-68054725D01*
X59010692Y-68100849D01*
X59080408Y-68110873D01*
X59144477Y-68081614D01*
X59182556Y-68022362D01*
X59187619Y-67987145D01*
X59187619Y-67826431D01*
X60062619Y-67826431D01*
X60130199Y-67806588D01*
X60176323Y-67753358D01*
X60186347Y-67683642D01*
X60157088Y-67619573D01*
X60097836Y-67581494D01*
X60062619Y-67576431D01*
X59187619Y-67576431D01*
X59187619Y-67415717D01*
X59167776Y-67348137D01*
X59114546Y-67302013D01*
X59044830Y-67291989D01*
X58980761Y-67321248D01*
X58942682Y-67380500D01*
X58937619Y-67415717D01*
X58937619Y-67987145D01*
X58794762Y-67987145D01*
X58794762Y-67100172D01*
X58938891Y-67100172D01*
X58968150Y-67164241D01*
X59027402Y-67202320D01*
X59062619Y-67207383D01*
X59872142Y-67207383D01*
X59883014Y-67204190D01*
X59894280Y-67205407D01*
X59928044Y-67194186D01*
X60023281Y-67146568D01*
X60024995Y-67144972D01*
X60027285Y-67144475D01*
X60055767Y-67123153D01*
X60103387Y-67075534D01*
X60104509Y-67073477D01*
X60106525Y-67072281D01*
X60126803Y-67043047D01*
X60174422Y-66947809D01*
X60176428Y-66936658D01*
X60182556Y-66927124D01*
X60187619Y-66891907D01*
X60187619Y-66701431D01*
X60184426Y-66690558D01*
X60185643Y-66679292D01*
X60174422Y-66645529D01*
X60126803Y-66550291D01*
X60125208Y-66548576D01*
X60124710Y-66546286D01*
X60103387Y-66517804D01*
X60055767Y-66470185D01*
X60053713Y-66469063D01*
X60052516Y-66467048D01*
X60023281Y-66446770D01*
X59928044Y-66399152D01*
X59916893Y-66397145D01*
X59907359Y-66391018D01*
X59872142Y-66385955D01*
X59062619Y-66385955D01*
X58995039Y-66405798D01*
X58948915Y-66459028D01*
X58938891Y-66528744D01*
X58968150Y-66592813D01*
X59027402Y-66630892D01*
X59062619Y-66635955D01*
X59842634Y-66635955D01*
X59893336Y-66661306D01*
X59912268Y-66680238D01*
X59937619Y-66730939D01*
X59937619Y-66862398D01*
X59912268Y-66913099D01*
X59893336Y-66932032D01*
X59842634Y-66957383D01*
X59062619Y-66957383D01*
X58995039Y-66977226D01*
X58948915Y-67030456D01*
X58938891Y-67100172D01*
X58794762Y-67100172D01*
X58794762Y-65830982D01*
X58938329Y-65830982D01*
X58943824Y-65861364D01*
X58947112Y-65892072D01*
X58950036Y-65895704D01*
X58950866Y-65900290D01*
X58971909Y-65922872D01*
X58991282Y-65946934D01*
X58997003Y-65949800D01*
X58998884Y-65951819D01*
X59003251Y-65952931D01*
X59023091Y-65962873D01*
X60023090Y-66296206D01*
X60093477Y-66298752D01*
X60154067Y-66262839D01*
X60185623Y-66199871D01*
X60178125Y-66129837D01*
X60133956Y-66074975D01*
X60102147Y-66059035D01*
X59901904Y-65992287D01*
X59901904Y-65696288D01*
X60102147Y-65629541D01*
X60159984Y-65589345D01*
X60186908Y-65524261D01*
X60174372Y-65454953D01*
X60126354Y-65403424D01*
X60058101Y-65386036D01*
X60023090Y-65392370D01*
X59023091Y-65725703D01*
X58997734Y-65743324D01*
X58971171Y-65759069D01*
X58969082Y-65763236D01*
X58965253Y-65765898D01*
X58953447Y-65794435D01*
X58939615Y-65822038D01*
X58940111Y-65826673D01*
X58938329Y-65830982D01*
X58794762Y-65830982D01*
X58794762Y-65320478D01*
X58937619Y-65320478D01*
X58957462Y-65388058D01*
X59010692Y-65434182D01*
X59080408Y-65444206D01*
X59144477Y-65414947D01*
X59182556Y-65355695D01*
X59187619Y-65320478D01*
X59187619Y-65159764D01*
X60062619Y-65159764D01*
X60130199Y-65139921D01*
X60176323Y-65086691D01*
X60186347Y-65016975D01*
X60157088Y-64952906D01*
X60097836Y-64914827D01*
X60062619Y-64909764D01*
X59187619Y-64909764D01*
X59187619Y-64749050D01*
X59167776Y-64681470D01*
X59114546Y-64635346D01*
X59044830Y-64625322D01*
X58980761Y-64654581D01*
X58942682Y-64713833D01*
X58937619Y-64749050D01*
X58937619Y-65320478D01*
X58794762Y-65320478D01*
X58794762Y-64225240D01*
X58937619Y-64225240D01*
X58940811Y-64236112D01*
X58939595Y-64247378D01*
X58950816Y-64281142D01*
X58998434Y-64376379D01*
X59000030Y-64378094D01*
X59000528Y-64380384D01*
X59021850Y-64408866D01*
X59117088Y-64504104D01*
X59131200Y-64511810D01*
X59142221Y-64523531D01*
X59175159Y-64536984D01*
X59365635Y-64584603D01*
X59369032Y-64584464D01*
X59395952Y-64588335D01*
X59729285Y-64588335D01*
X59732548Y-64587376D01*
X59759602Y-64584603D01*
X59950078Y-64536984D01*
X59963948Y-64528846D01*
X59979667Y-64525427D01*
X60008149Y-64504105D01*
X60103388Y-64408867D01*
X60104511Y-64406810D01*
X60106525Y-64405614D01*
X60126803Y-64376380D01*
X60174422Y-64281142D01*
X60176428Y-64269991D01*
X60182556Y-64260457D01*
X60187619Y-64225240D01*
X60187619Y-64034764D01*
X60184426Y-64023891D01*
X60185643Y-64012625D01*
X60174422Y-63978862D01*
X60126803Y-63883624D01*
X60125208Y-63881909D01*
X60124710Y-63879620D01*
X60103388Y-63851137D01*
X60008149Y-63755899D01*
X59994033Y-63748191D01*
X59983015Y-63736473D01*
X59950078Y-63723020D01*
X59759602Y-63675401D01*
X59756204Y-63675539D01*
X59729285Y-63671669D01*
X59395952Y-63671669D01*
X59392689Y-63672627D01*
X59365635Y-63675401D01*
X59175159Y-63723020D01*
X59161288Y-63731157D01*
X59145570Y-63734577D01*
X59117088Y-63755900D01*
X59021850Y-63851138D01*
X59020728Y-63853192D01*
X59018712Y-63854390D01*
X58998434Y-63883625D01*
X58950816Y-63978862D01*
X58948809Y-63990012D01*
X58942682Y-63999547D01*
X58937619Y-64034764D01*
X58937619Y-64225240D01*
X58794762Y-64225240D01*
X58794762Y-63368097D01*
X58937619Y-63368097D01*
X58940189Y-63376852D01*
X58938891Y-63385886D01*
X58949957Y-63410118D01*
X58957462Y-63435677D01*
X58964358Y-63441652D01*
X58968150Y-63449955D01*
X58990562Y-63464358D01*
X59010692Y-63481801D01*
X59019724Y-63483099D01*
X59027402Y-63488034D01*
X59062619Y-63493097D01*
X60062619Y-63493097D01*
X60130199Y-63473254D01*
X60176323Y-63420024D01*
X60186347Y-63350308D01*
X60157088Y-63286239D01*
X60097836Y-63248160D01*
X60062619Y-63243097D01*
X59711428Y-63243097D01*
X59711428Y-63195084D01*
X60134302Y-62899073D01*
X60178286Y-62844062D01*
X60185547Y-62774004D01*
X60153780Y-62711142D01*
X60093069Y-62675434D01*
X60022691Y-62678217D01*
X59990936Y-62694265D01*
X59686347Y-62907476D01*
X59650612Y-62836005D01*
X59649017Y-62834290D01*
X59648519Y-62832001D01*
X59627197Y-62803518D01*
X59579578Y-62755900D01*
X59577523Y-62754778D01*
X59576326Y-62752762D01*
X59547091Y-62732484D01*
X59451854Y-62684866D01*
X59440703Y-62682859D01*
X59431169Y-62676732D01*
X59395952Y-62671669D01*
X59253095Y-62671669D01*
X59242222Y-62674861D01*
X59230956Y-62673645D01*
X59197193Y-62684866D01*
X59101955Y-62732485D01*
X59100240Y-62734079D01*
X59097951Y-62734578D01*
X59069468Y-62755900D01*
X59021850Y-62803519D01*
X59020728Y-62805573D01*
X59018712Y-62806771D01*
X58998434Y-62836006D01*
X58950816Y-62931243D01*
X58948809Y-62942393D01*
X58942682Y-62951928D01*
X58937619Y-62987145D01*
X58937619Y-63368097D01*
X58794762Y-63368097D01*
X58794762Y-62528812D01*
X60330476Y-62528812D01*
X60330476Y-70108276D01*
G37*
X61267330Y-33916619D02*
X61886377Y-33916619D01*
X61886377Y-33916619D02*
X61553044Y-34297571D01*
X61553044Y-34297571D02*
X61695901Y-34297571D01*
X61695901Y-34297571D02*
X61791139Y-34345190D01*
X61791139Y-34345190D02*
X61838758Y-34392809D01*
X61838758Y-34392809D02*
X61886377Y-34488047D01*
X61886377Y-34488047D02*
X61886377Y-34726142D01*
X61886377Y-34726142D02*
X61838758Y-34821380D01*
X61838758Y-34821380D02*
X61791139Y-34869000D01*
X61791139Y-34869000D02*
X61695901Y-34916619D01*
X61695901Y-34916619D02*
X61410187Y-34916619D01*
X61410187Y-34916619D02*
X61314949Y-34869000D01*
X61314949Y-34869000D02*
X61267330Y-34821380D01*
X62743520Y-33916619D02*
X62553044Y-33916619D01*
X62553044Y-33916619D02*
X62457806Y-33964238D01*
X62457806Y-33964238D02*
X62410187Y-34011857D01*
X62410187Y-34011857D02*
X62314949Y-34154714D01*
X62314949Y-34154714D02*
X62267330Y-34345190D01*
X62267330Y-34345190D02*
X62267330Y-34726142D01*
X62267330Y-34726142D02*
X62314949Y-34821380D01*
X62314949Y-34821380D02*
X62362568Y-34869000D01*
X62362568Y-34869000D02*
X62457806Y-34916619D01*
X62457806Y-34916619D02*
X62648282Y-34916619D01*
X62648282Y-34916619D02*
X62743520Y-34869000D01*
X62743520Y-34869000D02*
X62791139Y-34821380D01*
X62791139Y-34821380D02*
X62838758Y-34726142D01*
X62838758Y-34726142D02*
X62838758Y-34488047D01*
X62838758Y-34488047D02*
X62791139Y-34392809D01*
X62791139Y-34392809D02*
X62743520Y-34345190D01*
X62743520Y-34345190D02*
X62648282Y-34297571D01*
X62648282Y-34297571D02*
X62457806Y-34297571D01*
X62457806Y-34297571D02*
X62362568Y-34345190D01*
X62362568Y-34345190D02*
X62314949Y-34392809D01*
X62314949Y-34392809D02*
X62267330Y-34488047D01*
X61267330Y-31376619D02*
X61886377Y-31376619D01*
X61886377Y-31376619D02*
X61553044Y-31757571D01*
X61553044Y-31757571D02*
X61695901Y-31757571D01*
X61695901Y-31757571D02*
X61791139Y-31805190D01*
X61791139Y-31805190D02*
X61838758Y-31852809D01*
X61838758Y-31852809D02*
X61886377Y-31948047D01*
X61886377Y-31948047D02*
X61886377Y-32186142D01*
X61886377Y-32186142D02*
X61838758Y-32281380D01*
X61838758Y-32281380D02*
X61791139Y-32329000D01*
X61791139Y-32329000D02*
X61695901Y-32376619D01*
X61695901Y-32376619D02*
X61410187Y-32376619D01*
X61410187Y-32376619D02*
X61314949Y-32329000D01*
X61314949Y-32329000D02*
X61267330Y-32281380D01*
X62362568Y-32376619D02*
X62553044Y-32376619D01*
X62553044Y-32376619D02*
X62648282Y-32329000D01*
X62648282Y-32329000D02*
X62695901Y-32281380D01*
X62695901Y-32281380D02*
X62791139Y-32138523D01*
X62791139Y-32138523D02*
X62838758Y-31948047D01*
X62838758Y-31948047D02*
X62838758Y-31567095D01*
X62838758Y-31567095D02*
X62791139Y-31471857D01*
X62791139Y-31471857D02*
X62743520Y-31424238D01*
X62743520Y-31424238D02*
X62648282Y-31376619D01*
X62648282Y-31376619D02*
X62457806Y-31376619D01*
X62457806Y-31376619D02*
X62362568Y-31424238D01*
X62362568Y-31424238D02*
X62314949Y-31471857D01*
X62314949Y-31471857D02*
X62267330Y-31567095D01*
X62267330Y-31567095D02*
X62267330Y-31805190D01*
X62267330Y-31805190D02*
X62314949Y-31900428D01*
X62314949Y-31900428D02*
X62362568Y-31948047D01*
X62362568Y-31948047D02*
X62457806Y-31995666D01*
X62457806Y-31995666D02*
X62648282Y-31995666D01*
X62648282Y-31995666D02*
X62743520Y-31948047D01*
X62743520Y-31948047D02*
X62791139Y-31900428D01*
X62791139Y-31900428D02*
X62838758Y-31805190D01*
D11*
G36*
X40717257Y-78227284D02*
G01*
X40774508Y-78298848D01*
X40805919Y-78377377D01*
X40841208Y-78553818D01*
X40841208Y-78681818D01*
X40805919Y-78858259D01*
X40774508Y-78936788D01*
X40717255Y-79008354D01*
X40634541Y-79042819D01*
X40534065Y-79042819D01*
X40534065Y-78192819D01*
X40634541Y-78192819D01*
X40717257Y-78227284D01*
G37*
G36*
X39227528Y-78222267D02*
G01*
X39250697Y-78251228D01*
X39279303Y-78322738D01*
X39279303Y-78436708D01*
X39250697Y-78508218D01*
X39227528Y-78537179D01*
X39180412Y-78566628D01*
X38972160Y-78566628D01*
X38972160Y-78192819D01*
X39180412Y-78192819D01*
X39227528Y-78222267D01*
G37*
G36*
X41134065Y-79335676D02*
G01*
X38679303Y-79335676D01*
X38679303Y-79117819D01*
X38822160Y-79117819D01*
X38839707Y-79166028D01*
X38884136Y-79191680D01*
X38934660Y-79182771D01*
X38967637Y-79143471D01*
X38972160Y-79117819D01*
X38972160Y-78716628D01*
X39043677Y-78716628D01*
X39288865Y-79154464D01*
X39327730Y-79187953D01*
X39379028Y-79188627D01*
X39418758Y-79156167D01*
X39428328Y-79105765D01*
X39419741Y-79081174D01*
X39214433Y-78714554D01*
X39217522Y-78714988D01*
X39241672Y-78705228D01*
X39317862Y-78657609D01*
X39318348Y-78656985D01*
X39336677Y-78640861D01*
X39374772Y-78593242D01*
X39375619Y-78590731D01*
X39385843Y-78574245D01*
X39423939Y-78479007D01*
X39423978Y-78477759D01*
X39424780Y-78476804D01*
X39429303Y-78451152D01*
X39429303Y-78308295D01*
X39428876Y-78307122D01*
X39429266Y-78305937D01*
X39423939Y-78280440D01*
X39385843Y-78185202D01*
X39384074Y-78183224D01*
X39374772Y-78166205D01*
X39344489Y-78128351D01*
X39546712Y-78128351D01*
X39554793Y-78153113D01*
X39802636Y-78617819D01*
X39554793Y-79082525D01*
X39547589Y-79133320D01*
X39574719Y-79176862D01*
X39623492Y-79192777D01*
X39671083Y-79173619D01*
X39687145Y-79153113D01*
X39887636Y-78777193D01*
X40088127Y-79153113D01*
X40126296Y-79187393D01*
X40177570Y-79189120D01*
X40217957Y-79157483D01*
X40226335Y-79117819D01*
X40384065Y-79117819D01*
X40390728Y-79136127D01*
X40394113Y-79155319D01*
X40399297Y-79159669D01*
X40401612Y-79166028D01*
X40418485Y-79175770D01*
X40433413Y-79188296D01*
X40443155Y-79190013D01*
X40446041Y-79191680D01*
X40449323Y-79191101D01*
X40459065Y-79192819D01*
X40649541Y-79192819D01*
X40651241Y-79192200D01*
X40652969Y-79192741D01*
X40678387Y-79187050D01*
X40792673Y-79139431D01*
X40797030Y-79135421D01*
X40802836Y-79134257D01*
X40822393Y-79117052D01*
X40898583Y-79021812D01*
X40899431Y-79019299D01*
X40909653Y-79002815D01*
X40947748Y-78907578D01*
X40947855Y-78904173D01*
X40951655Y-78894432D01*
X40989751Y-78703956D01*
X40989223Y-78700503D01*
X40991208Y-78689247D01*
X40991208Y-78546390D01*
X40990012Y-78543105D01*
X40989751Y-78531681D01*
X40951655Y-78341205D01*
X40949887Y-78338298D01*
X40947748Y-78328059D01*
X40909653Y-78232822D01*
X40907886Y-78230846D01*
X40898582Y-78213824D01*
X40822392Y-78118586D01*
X40817335Y-78115506D01*
X40814612Y-78110248D01*
X40792673Y-78096207D01*
X40678387Y-78048588D01*
X40676579Y-78048505D01*
X40675193Y-78047342D01*
X40649541Y-78042819D01*
X40459065Y-78042819D01*
X40440756Y-78049482D01*
X40421565Y-78052867D01*
X40417214Y-78058051D01*
X40410856Y-78060366D01*
X40401113Y-78077239D01*
X40388588Y-78092167D01*
X40386870Y-78101909D01*
X40385204Y-78104795D01*
X40385782Y-78108077D01*
X40384065Y-78117819D01*
X40384065Y-79117819D01*
X40226335Y-79117819D01*
X40228560Y-79107288D01*
X40220480Y-79082525D01*
X39972636Y-78617819D01*
X40220480Y-78153113D01*
X40227684Y-78102318D01*
X40200553Y-78058776D01*
X40151781Y-78042861D01*
X40104189Y-78062019D01*
X40088127Y-78082525D01*
X39887636Y-78458444D01*
X39687145Y-78082525D01*
X39648976Y-78048245D01*
X39597703Y-78046519D01*
X39557315Y-78078156D01*
X39546712Y-78128351D01*
X39344489Y-78128351D01*
X39336677Y-78118586D01*
X39336005Y-78118177D01*
X39317862Y-78101838D01*
X39241672Y-78054219D01*
X39233766Y-78052537D01*
X39227574Y-78047342D01*
X39201922Y-78042819D01*
X38897160Y-78042819D01*
X38878851Y-78049482D01*
X38859660Y-78052867D01*
X38855309Y-78058051D01*
X38848951Y-78060366D01*
X38839208Y-78077239D01*
X38826683Y-78092167D01*
X38824965Y-78101909D01*
X38823299Y-78104795D01*
X38823877Y-78108077D01*
X38822160Y-78117819D01*
X38822160Y-79117819D01*
X38679303Y-79117819D01*
X38679303Y-77899962D01*
X41134065Y-77899962D01*
X41134065Y-79335676D01*
G37*
D12*
G36*
X63986904Y-57180970D02*
G01*
X64043315Y-57237381D01*
X64078805Y-57379341D01*
X64078805Y-57681896D01*
X64043315Y-57823855D01*
X63986901Y-57880269D01*
X63936202Y-57905619D01*
X63804743Y-57905619D01*
X63754042Y-57880268D01*
X63697628Y-57823855D01*
X63662139Y-57681896D01*
X63662139Y-57379341D01*
X63697629Y-57237381D01*
X63754039Y-57180970D01*
X63804743Y-57155619D01*
X63936202Y-57155619D01*
X63986904Y-57180970D01*
G37*
G36*
X62510713Y-57180969D02*
G01*
X62529645Y-57199902D01*
X62554996Y-57250603D01*
X62554996Y-57334443D01*
X62529645Y-57385144D01*
X62510713Y-57404077D01*
X62460012Y-57429428D01*
X62233568Y-57429428D01*
X62233568Y-57155619D01*
X62460012Y-57155619D01*
X62510713Y-57180969D01*
G37*
G36*
X64471662Y-58298476D02*
G01*
X60793092Y-58298476D01*
X60793092Y-57602047D01*
X60935949Y-57602047D01*
X60936907Y-57605310D01*
X60939681Y-57632364D01*
X60987300Y-57822840D01*
X60989519Y-57826622D01*
X60996765Y-57848425D01*
X61044383Y-57943662D01*
X61045977Y-57945376D01*
X61046476Y-57947667D01*
X61067798Y-57976149D01*
X61163036Y-58071388D01*
X61172980Y-58076818D01*
X61180088Y-58085646D01*
X61211897Y-58101585D01*
X61354753Y-58149204D01*
X61357092Y-58149288D01*
X61359065Y-58150556D01*
X61394282Y-58155619D01*
X61489520Y-58155619D01*
X61491766Y-58154959D01*
X61494038Y-58155538D01*
X61529048Y-58149204D01*
X61671905Y-58101586D01*
X61681210Y-58095119D01*
X61692284Y-58092710D01*
X61720766Y-58071387D01*
X61761534Y-58030619D01*
X61983568Y-58030619D01*
X62003411Y-58098199D01*
X62056641Y-58144323D01*
X62126357Y-58154347D01*
X62190426Y-58125088D01*
X62228505Y-58065836D01*
X62233568Y-58030619D01*
X62983568Y-58030619D01*
X63003411Y-58098199D01*
X63056641Y-58144323D01*
X63126357Y-58154347D01*
X63190426Y-58125088D01*
X63228505Y-58065836D01*
X63233568Y-58030619D01*
X63233568Y-57697285D01*
X63412139Y-57697285D01*
X63413097Y-57700548D01*
X63415871Y-57727602D01*
X63463490Y-57918078D01*
X63471627Y-57931948D01*
X63475047Y-57947667D01*
X63496369Y-57976149D01*
X63591607Y-58071388D01*
X63593663Y-58072511D01*
X63594860Y-58074525D01*
X63624094Y-58094803D01*
X63719332Y-58142422D01*
X63730482Y-58144428D01*
X63740017Y-58150556D01*
X63775234Y-58155619D01*
X63965710Y-58155619D01*
X63976582Y-58152426D01*
X63987848Y-58153643D01*
X64021612Y-58142422D01*
X64116849Y-58094804D01*
X64118564Y-58093208D01*
X64120855Y-58092710D01*
X64149337Y-58071388D01*
X64244575Y-57976149D01*
X64252281Y-57962034D01*
X64264001Y-57951016D01*
X64277454Y-57918078D01*
X64325073Y-57727602D01*
X64324934Y-57724204D01*
X64328805Y-57697285D01*
X64328805Y-57363952D01*
X64327846Y-57360689D01*
X64325073Y-57333635D01*
X64277454Y-57143159D01*
X64269316Y-57129288D01*
X64265897Y-57113570D01*
X64244574Y-57085088D01*
X64149336Y-56989850D01*
X64147281Y-56988728D01*
X64146084Y-56986712D01*
X64116849Y-56966434D01*
X64021612Y-56918816D01*
X64010461Y-56916809D01*
X64000927Y-56910682D01*
X63965710Y-56905619D01*
X63775234Y-56905619D01*
X63764361Y-56908811D01*
X63753095Y-56907595D01*
X63719332Y-56918816D01*
X63624094Y-56966435D01*
X63622380Y-56968028D01*
X63620090Y-56968527D01*
X63591608Y-56989850D01*
X63496370Y-57085088D01*
X63488662Y-57099202D01*
X63476943Y-57110222D01*
X63463490Y-57143159D01*
X63415871Y-57333635D01*
X63416009Y-57337032D01*
X63412139Y-57363952D01*
X63412139Y-57697285D01*
X63233568Y-57697285D01*
X63233568Y-57030619D01*
X63213725Y-56963039D01*
X63160495Y-56916915D01*
X63090779Y-56906891D01*
X63026710Y-56936150D01*
X62988631Y-56995402D01*
X62983568Y-57030619D01*
X62983568Y-58030619D01*
X62233568Y-58030619D01*
X62233568Y-57679428D01*
X62489520Y-57679428D01*
X62500392Y-57676235D01*
X62511658Y-57677452D01*
X62545422Y-57666231D01*
X62640659Y-57618613D01*
X62642374Y-57617016D01*
X62644664Y-57616519D01*
X62673146Y-57595197D01*
X62720765Y-57547579D01*
X62721888Y-57545522D01*
X62723902Y-57544326D01*
X62744180Y-57515092D01*
X62791799Y-57419854D01*
X62793805Y-57408703D01*
X62799933Y-57399169D01*
X62804996Y-57363952D01*
X62804996Y-57221095D01*
X62801803Y-57210222D01*
X62803020Y-57198956D01*
X62791799Y-57165193D01*
X62744180Y-57069955D01*
X62742585Y-57068240D01*
X62742087Y-57065951D01*
X62720765Y-57037468D01*
X62673146Y-56989850D01*
X62671091Y-56988728D01*
X62669894Y-56986712D01*
X62640659Y-56966434D01*
X62545422Y-56918816D01*
X62534271Y-56916809D01*
X62524737Y-56910682D01*
X62489520Y-56905619D01*
X62108568Y-56905619D01*
X62099812Y-56908189D01*
X62090779Y-56906891D01*
X62066546Y-56917957D01*
X62040988Y-56925462D01*
X62035012Y-56932358D01*
X62026710Y-56936150D01*
X62012306Y-56958562D01*
X61994864Y-56978692D01*
X61993565Y-56987724D01*
X61988631Y-56995402D01*
X61983568Y-57030619D01*
X61983568Y-58030619D01*
X61761534Y-58030619D01*
X61768385Y-58023768D01*
X61783207Y-57996621D01*
X61799933Y-57970597D01*
X61800831Y-57964346D01*
X61802140Y-57961950D01*
X61801819Y-57957473D01*
X61804996Y-57935380D01*
X61804996Y-57602047D01*
X61802425Y-57593291D01*
X61803724Y-57584258D01*
X61792657Y-57560025D01*
X61785153Y-57534467D01*
X61778256Y-57528491D01*
X61774465Y-57520189D01*
X61752052Y-57505785D01*
X61731923Y-57488343D01*
X61722890Y-57487044D01*
X61715213Y-57482110D01*
X61679996Y-57477047D01*
X61489520Y-57477047D01*
X61421940Y-57496890D01*
X61375816Y-57550120D01*
X61365792Y-57619836D01*
X61395051Y-57683905D01*
X61454303Y-57721984D01*
X61489520Y-57727047D01*
X61554996Y-57727047D01*
X61554996Y-57877032D01*
X61469237Y-57905619D01*
X61414568Y-57905619D01*
X61318949Y-57873746D01*
X61258918Y-57813715D01*
X61226508Y-57748896D01*
X61185949Y-57586658D01*
X61185949Y-57474579D01*
X61226508Y-57312341D01*
X61258919Y-57247520D01*
X61318947Y-57187491D01*
X61414568Y-57155619D01*
X61507631Y-57155619D01*
X61576475Y-57190041D01*
X61645794Y-57202516D01*
X61710854Y-57175533D01*
X61750998Y-57117660D01*
X61753480Y-57047270D01*
X61717513Y-56986712D01*
X61688278Y-56966434D01*
X61593041Y-56918816D01*
X61581890Y-56916809D01*
X61572356Y-56910682D01*
X61537139Y-56905619D01*
X61394282Y-56905619D01*
X61392035Y-56906278D01*
X61389764Y-56905700D01*
X61354753Y-56912034D01*
X61211897Y-56959653D01*
X61202594Y-56966117D01*
X61191519Y-56968527D01*
X61163037Y-56989850D01*
X61067799Y-57085088D01*
X61066677Y-57087142D01*
X61064661Y-57088340D01*
X61044383Y-57117575D01*
X60996765Y-57212812D01*
X60995989Y-57217123D01*
X60987300Y-57238397D01*
X60939681Y-57428873D01*
X60939819Y-57432270D01*
X60935949Y-57459190D01*
X60935949Y-57602047D01*
X60793092Y-57602047D01*
X60793092Y-56762762D01*
X64471662Y-56762762D01*
X64471662Y-58298476D01*
G37*
D11*
X45551969Y-78117819D02*
X45742445Y-79117819D01*
X45742445Y-79117819D02*
X45894826Y-78403533D01*
X45894826Y-78403533D02*
X46047207Y-79117819D01*
X46047207Y-79117819D02*
X46237684Y-78117819D01*
X46542446Y-79117819D02*
X46542446Y-78117819D01*
X46999589Y-79117819D02*
X46656731Y-78546390D01*
X46999589Y-78117819D02*
X46542446Y-78689247D01*
X47342446Y-79117819D02*
X47342446Y-78117819D01*
X47342446Y-78117819D02*
X47647208Y-78117819D01*
X47647208Y-78117819D02*
X47723398Y-78165438D01*
X47723398Y-78165438D02*
X47761493Y-78213057D01*
X47761493Y-78213057D02*
X47799589Y-78308295D01*
X47799589Y-78308295D02*
X47799589Y-78451152D01*
X47799589Y-78451152D02*
X47761493Y-78546390D01*
X47761493Y-78546390D02*
X47723398Y-78594009D01*
X47723398Y-78594009D02*
X47647208Y-78641628D01*
X47647208Y-78641628D02*
X47342446Y-78641628D01*
D12*
G36*
X30264855Y-67020492D02*
G01*
X30321268Y-67076906D01*
X30346619Y-67127606D01*
X30346619Y-67259065D01*
X30321268Y-67309765D01*
X30264855Y-67366179D01*
X30122896Y-67401669D01*
X29820341Y-67401669D01*
X29678381Y-67366179D01*
X29621970Y-67309768D01*
X29596619Y-67259066D01*
X29596619Y-67127606D01*
X29621970Y-67076904D01*
X29678381Y-67020493D01*
X29820341Y-66985003D01*
X30122896Y-66985003D01*
X30264855Y-67020492D01*
G37*
G36*
X30739476Y-68746907D02*
G01*
X29203762Y-68746907D01*
X29203762Y-68288574D01*
X29346619Y-68288574D01*
X29349811Y-68299446D01*
X29348595Y-68310712D01*
X29359816Y-68344476D01*
X29407434Y-68439713D01*
X29409030Y-68441428D01*
X29409528Y-68443718D01*
X29430850Y-68472200D01*
X29478468Y-68519819D01*
X29480524Y-68520942D01*
X29481721Y-68522956D01*
X29510955Y-68543234D01*
X29606193Y-68590853D01*
X29617343Y-68592859D01*
X29626878Y-68598987D01*
X29662095Y-68604050D01*
X29757333Y-68604050D01*
X29768205Y-68600857D01*
X29779471Y-68602074D01*
X29813235Y-68590853D01*
X29908472Y-68543235D01*
X29910187Y-68541638D01*
X29912477Y-68541141D01*
X29940959Y-68519819D01*
X29988578Y-68472201D01*
X29989701Y-68470144D01*
X29991715Y-68468948D01*
X30011993Y-68439714D01*
X30059612Y-68344476D01*
X30060387Y-68340165D01*
X30069077Y-68318891D01*
X30113368Y-68141725D01*
X30145778Y-68076904D01*
X30164711Y-68057972D01*
X30215413Y-68032622D01*
X30251634Y-68032622D01*
X30302336Y-68057973D01*
X30321268Y-68076905D01*
X30346619Y-68127606D01*
X30346619Y-68315907D01*
X30305415Y-68439522D01*
X30302869Y-68509908D01*
X30338781Y-68570498D01*
X30401750Y-68602054D01*
X30471784Y-68594557D01*
X30526646Y-68550387D01*
X30542585Y-68518578D01*
X30590204Y-68375722D01*
X30590288Y-68373382D01*
X30591556Y-68371410D01*
X30596619Y-68336193D01*
X30596619Y-68098098D01*
X30593426Y-68087225D01*
X30594643Y-68075959D01*
X30583422Y-68042196D01*
X30535803Y-67946958D01*
X30534208Y-67945243D01*
X30533710Y-67942953D01*
X30512387Y-67914471D01*
X30464767Y-67866852D01*
X30462713Y-67865730D01*
X30461516Y-67863715D01*
X30432281Y-67843437D01*
X30337044Y-67795819D01*
X30325893Y-67793812D01*
X30316359Y-67787685D01*
X30281142Y-67782622D01*
X30185904Y-67782622D01*
X30175031Y-67785814D01*
X30163765Y-67784598D01*
X30130002Y-67795819D01*
X30034764Y-67843438D01*
X30033049Y-67845032D01*
X30030760Y-67845531D01*
X30002277Y-67866853D01*
X29954659Y-67914472D01*
X29953537Y-67916526D01*
X29951521Y-67917724D01*
X29931243Y-67946959D01*
X29883625Y-68042196D01*
X29882849Y-68046507D01*
X29874160Y-68067781D01*
X29829868Y-68244945D01*
X29797458Y-68309766D01*
X29778526Y-68328699D01*
X29727825Y-68354050D01*
X29691604Y-68354050D01*
X29640902Y-68328699D01*
X29621969Y-68309767D01*
X29596619Y-68259066D01*
X29596619Y-68070762D01*
X29637823Y-67947151D01*
X29640369Y-67876764D01*
X29604456Y-67816174D01*
X29541488Y-67784618D01*
X29471454Y-67792116D01*
X29416592Y-67836285D01*
X29400652Y-67868094D01*
X29353034Y-68010951D01*
X29352949Y-68013289D01*
X29351682Y-68015262D01*
X29346619Y-68050479D01*
X29346619Y-68288574D01*
X29203762Y-68288574D01*
X29203762Y-67288574D01*
X29346619Y-67288574D01*
X29349811Y-67299446D01*
X29348595Y-67310712D01*
X29359816Y-67344476D01*
X29407434Y-67439713D01*
X29409030Y-67441428D01*
X29409528Y-67443718D01*
X29430850Y-67472200D01*
X29526088Y-67567438D01*
X29540200Y-67575144D01*
X29551221Y-67586865D01*
X29584159Y-67600318D01*
X29774635Y-67647937D01*
X29778032Y-67647798D01*
X29804952Y-67651669D01*
X30138285Y-67651669D01*
X30141548Y-67650710D01*
X30168602Y-67647937D01*
X30359078Y-67600318D01*
X30372948Y-67592180D01*
X30388667Y-67588761D01*
X30417149Y-67567439D01*
X30512388Y-67472201D01*
X30513511Y-67470144D01*
X30515525Y-67468948D01*
X30535803Y-67439714D01*
X30583422Y-67344476D01*
X30585428Y-67333325D01*
X30591556Y-67323791D01*
X30596619Y-67288574D01*
X30596619Y-67098098D01*
X30593426Y-67087225D01*
X30594643Y-67075959D01*
X30583422Y-67042196D01*
X30535803Y-66946958D01*
X30534208Y-66945243D01*
X30533710Y-66942954D01*
X30512388Y-66914471D01*
X30417149Y-66819233D01*
X30403033Y-66811525D01*
X30392015Y-66799807D01*
X30359078Y-66786354D01*
X30168602Y-66738735D01*
X30165204Y-66738873D01*
X30138285Y-66735003D01*
X29804952Y-66735003D01*
X29801689Y-66735961D01*
X29774635Y-66738735D01*
X29584159Y-66786354D01*
X29570288Y-66794491D01*
X29554570Y-66797911D01*
X29526088Y-66819234D01*
X29430850Y-66914472D01*
X29429728Y-66916526D01*
X29427712Y-66917724D01*
X29407434Y-66946959D01*
X29359816Y-67042196D01*
X29357809Y-67053346D01*
X29351682Y-67062881D01*
X29346619Y-67098098D01*
X29346619Y-67288574D01*
X29203762Y-67288574D01*
X29203762Y-66449220D01*
X29347891Y-66449220D01*
X29377150Y-66513289D01*
X29436402Y-66551368D01*
X29471619Y-66556431D01*
X30471619Y-66556431D01*
X30539199Y-66536588D01*
X30585323Y-66483358D01*
X30595347Y-66413642D01*
X30566088Y-66349573D01*
X30506836Y-66311494D01*
X30471619Y-66306431D01*
X29471619Y-66306431D01*
X29404039Y-66326274D01*
X29357915Y-66379504D01*
X29347891Y-66449220D01*
X29203762Y-66449220D01*
X29203762Y-65973030D01*
X29347891Y-65973030D01*
X29377150Y-66037099D01*
X29436402Y-66075178D01*
X29471619Y-66080241D01*
X30471619Y-66080241D01*
X30480374Y-66077670D01*
X30489408Y-66078969D01*
X30513640Y-66067902D01*
X30539199Y-66060398D01*
X30545174Y-66053501D01*
X30553477Y-66049710D01*
X30567880Y-66027297D01*
X30585323Y-66007168D01*
X30586621Y-65998135D01*
X30591556Y-65990458D01*
X30596619Y-65955241D01*
X30596619Y-65479051D01*
X30576776Y-65411471D01*
X30523546Y-65365347D01*
X30453830Y-65355323D01*
X30389761Y-65384582D01*
X30351682Y-65443834D01*
X30346619Y-65479051D01*
X30346619Y-65830241D01*
X29471619Y-65830241D01*
X29404039Y-65850084D01*
X29357915Y-65903314D01*
X29347891Y-65973030D01*
X29203762Y-65973030D01*
X29203762Y-64240955D01*
X29346619Y-64240955D01*
X29349811Y-64251827D01*
X29348595Y-64263093D01*
X29359816Y-64296857D01*
X29407434Y-64392094D01*
X29409030Y-64393809D01*
X29409528Y-64396099D01*
X29430850Y-64424581D01*
X29478468Y-64472200D01*
X29480524Y-64473323D01*
X29481721Y-64475337D01*
X29510955Y-64495615D01*
X29606193Y-64543234D01*
X29617343Y-64545240D01*
X29626878Y-64551368D01*
X29662095Y-64556431D01*
X29757333Y-64556431D01*
X29768205Y-64553238D01*
X29779471Y-64554455D01*
X29813235Y-64543234D01*
X29908472Y-64495616D01*
X29910187Y-64494019D01*
X29912477Y-64493522D01*
X29940959Y-64472200D01*
X29988578Y-64424582D01*
X29989701Y-64422525D01*
X29991715Y-64421329D01*
X30011993Y-64392095D01*
X30059612Y-64296857D01*
X30060387Y-64292546D01*
X30069077Y-64271272D01*
X30113368Y-64094106D01*
X30145778Y-64029285D01*
X30164711Y-64010353D01*
X30215413Y-63985003D01*
X30251634Y-63985003D01*
X30302336Y-64010354D01*
X30321268Y-64029286D01*
X30346619Y-64079987D01*
X30346619Y-64268288D01*
X30305415Y-64391903D01*
X30302869Y-64462289D01*
X30338781Y-64522879D01*
X30401750Y-64554435D01*
X30471784Y-64546938D01*
X30526646Y-64502768D01*
X30542585Y-64470959D01*
X30590204Y-64328103D01*
X30590288Y-64325763D01*
X30591556Y-64323791D01*
X30596619Y-64288574D01*
X30596619Y-64050479D01*
X30593426Y-64039606D01*
X30594643Y-64028340D01*
X30583422Y-63994577D01*
X30535803Y-63899339D01*
X30534208Y-63897624D01*
X30533710Y-63895334D01*
X30512387Y-63866852D01*
X30464767Y-63819233D01*
X30462713Y-63818111D01*
X30461516Y-63816096D01*
X30432281Y-63795818D01*
X30337044Y-63748200D01*
X30325893Y-63746193D01*
X30316359Y-63740066D01*
X30281142Y-63735003D01*
X30185904Y-63735003D01*
X30175031Y-63738195D01*
X30163765Y-63736979D01*
X30130002Y-63748200D01*
X30034764Y-63795819D01*
X30033049Y-63797413D01*
X30030760Y-63797912D01*
X30002277Y-63819234D01*
X29954659Y-63866853D01*
X29953537Y-63868907D01*
X29951521Y-63870105D01*
X29931243Y-63899340D01*
X29883625Y-63994577D01*
X29882849Y-63998888D01*
X29874160Y-64020162D01*
X29829868Y-64197326D01*
X29797458Y-64262147D01*
X29778526Y-64281080D01*
X29727825Y-64306431D01*
X29691604Y-64306431D01*
X29640902Y-64281080D01*
X29621969Y-64262148D01*
X29596619Y-64211447D01*
X29596619Y-64023143D01*
X29637823Y-63899532D01*
X29640369Y-63829145D01*
X29604456Y-63768555D01*
X29541488Y-63736999D01*
X29471454Y-63744497D01*
X29416592Y-63788666D01*
X29400652Y-63820475D01*
X29353034Y-63963332D01*
X29352949Y-63965670D01*
X29351682Y-63967643D01*
X29346619Y-64002860D01*
X29346619Y-64240955D01*
X29203762Y-64240955D01*
X29203762Y-63431431D01*
X29346619Y-63431431D01*
X29349189Y-63440186D01*
X29347891Y-63449220D01*
X29358957Y-63473452D01*
X29366462Y-63499011D01*
X29373358Y-63504986D01*
X29377150Y-63513289D01*
X29399562Y-63527692D01*
X29419692Y-63545135D01*
X29428724Y-63546433D01*
X29436402Y-63551368D01*
X29471619Y-63556431D01*
X30471619Y-63556431D01*
X30480374Y-63553860D01*
X30489408Y-63555159D01*
X30513640Y-63544092D01*
X30539199Y-63536588D01*
X30545174Y-63529691D01*
X30553477Y-63525900D01*
X30567880Y-63503487D01*
X30585323Y-63483358D01*
X30586621Y-63474325D01*
X30591556Y-63466648D01*
X30596619Y-63431431D01*
X30596619Y-62955241D01*
X30576776Y-62887661D01*
X30523546Y-62841537D01*
X30453830Y-62831513D01*
X30389761Y-62860772D01*
X30351682Y-62920024D01*
X30346619Y-62955241D01*
X30346619Y-63306431D01*
X30072809Y-63306431D01*
X30072809Y-63098098D01*
X30052966Y-63030518D01*
X29999736Y-62984394D01*
X29930020Y-62974370D01*
X29865951Y-63003629D01*
X29827872Y-63062881D01*
X29822809Y-63098098D01*
X29822809Y-63306431D01*
X29596619Y-63306431D01*
X29596619Y-62955241D01*
X29576776Y-62887661D01*
X29523546Y-62841537D01*
X29453830Y-62831513D01*
X29389761Y-62860772D01*
X29351682Y-62920024D01*
X29346619Y-62955241D01*
X29346619Y-63431431D01*
X29203762Y-63431431D01*
X29203762Y-62537997D01*
X29347133Y-62537997D01*
X29348369Y-62541127D01*
X29347891Y-62544458D01*
X29361224Y-62573654D01*
X29373019Y-62603500D01*
X29375751Y-62605463D01*
X29377150Y-62608527D01*
X29404159Y-62625885D01*
X29430210Y-62644611D01*
X29433570Y-62644786D01*
X29436402Y-62646606D01*
X29471619Y-62651669D01*
X30471619Y-62651669D01*
X30539199Y-62631826D01*
X30585323Y-62578596D01*
X30595347Y-62508880D01*
X30566088Y-62444811D01*
X30506836Y-62406732D01*
X30471619Y-62401669D01*
X29942314Y-62401669D01*
X30533636Y-62063771D01*
X30535968Y-62061346D01*
X30539199Y-62060398D01*
X30560219Y-62036138D01*
X30582467Y-62013014D01*
X30583118Y-62009711D01*
X30585323Y-62007168D01*
X30589890Y-61975398D01*
X30596105Y-61943913D01*
X30594868Y-61940782D01*
X30595347Y-61937452D01*
X30582015Y-61908259D01*
X30570219Y-61878409D01*
X30567486Y-61876444D01*
X30566088Y-61873383D01*
X30539084Y-61856028D01*
X30513028Y-61837299D01*
X30509667Y-61837123D01*
X30506836Y-61835304D01*
X30471619Y-61830241D01*
X29471619Y-61830241D01*
X29404039Y-61850084D01*
X29357915Y-61903314D01*
X29347891Y-61973030D01*
X29377150Y-62037099D01*
X29436402Y-62075178D01*
X29471619Y-62080241D01*
X30000923Y-62080241D01*
X29409602Y-62418139D01*
X29407269Y-62420563D01*
X29404039Y-62421512D01*
X29383018Y-62445771D01*
X29360771Y-62468896D01*
X29360119Y-62472198D01*
X29357915Y-62474742D01*
X29353347Y-62506511D01*
X29347133Y-62537997D01*
X29203762Y-62537997D01*
X29203762Y-61336193D01*
X29346619Y-61336193D01*
X29349811Y-61347065D01*
X29348595Y-61358331D01*
X29359816Y-61392095D01*
X29407434Y-61487332D01*
X29409030Y-61489047D01*
X29409528Y-61491337D01*
X29430850Y-61519819D01*
X29478468Y-61567438D01*
X29480524Y-61568561D01*
X29481721Y-61570575D01*
X29510955Y-61590853D01*
X29606193Y-61638472D01*
X29617343Y-61640478D01*
X29626878Y-61646606D01*
X29662095Y-61651669D01*
X29757333Y-61651669D01*
X29768205Y-61648476D01*
X29779471Y-61649693D01*
X29813235Y-61638472D01*
X29908472Y-61590854D01*
X29910187Y-61589257D01*
X29912477Y-61588760D01*
X29940959Y-61567438D01*
X29988578Y-61519820D01*
X29989701Y-61517763D01*
X29991715Y-61516567D01*
X30011993Y-61487333D01*
X30059612Y-61392095D01*
X30060387Y-61387784D01*
X30069077Y-61366510D01*
X30113368Y-61189344D01*
X30145778Y-61124523D01*
X30164711Y-61105591D01*
X30215413Y-61080241D01*
X30251634Y-61080241D01*
X30302336Y-61105592D01*
X30321268Y-61124524D01*
X30346619Y-61175225D01*
X30346619Y-61363526D01*
X30305415Y-61487141D01*
X30302869Y-61557527D01*
X30338781Y-61618117D01*
X30401750Y-61649673D01*
X30471784Y-61642176D01*
X30526646Y-61598006D01*
X30542585Y-61566197D01*
X30590204Y-61423341D01*
X30590288Y-61421001D01*
X30591556Y-61419029D01*
X30596619Y-61383812D01*
X30596619Y-61145717D01*
X30593426Y-61134844D01*
X30594643Y-61123578D01*
X30583422Y-61089815D01*
X30535803Y-60994577D01*
X30534208Y-60992862D01*
X30533710Y-60990572D01*
X30512387Y-60962090D01*
X30464767Y-60914471D01*
X30462713Y-60913349D01*
X30461516Y-60911334D01*
X30432281Y-60891056D01*
X30337044Y-60843438D01*
X30325893Y-60841431D01*
X30316359Y-60835304D01*
X30281142Y-60830241D01*
X30185904Y-60830241D01*
X30175031Y-60833433D01*
X30163765Y-60832217D01*
X30130002Y-60843438D01*
X30034764Y-60891057D01*
X30033049Y-60892651D01*
X30030760Y-60893150D01*
X30002277Y-60914472D01*
X29954659Y-60962091D01*
X29953537Y-60964145D01*
X29951521Y-60965343D01*
X29931243Y-60994578D01*
X29883625Y-61089815D01*
X29882849Y-61094126D01*
X29874160Y-61115400D01*
X29829868Y-61292564D01*
X29797458Y-61357385D01*
X29778526Y-61376318D01*
X29727825Y-61401669D01*
X29691604Y-61401669D01*
X29640902Y-61376318D01*
X29621969Y-61357386D01*
X29596619Y-61306685D01*
X29596619Y-61118381D01*
X29637823Y-60994770D01*
X29640369Y-60924383D01*
X29604456Y-60863793D01*
X29541488Y-60832237D01*
X29471454Y-60839735D01*
X29416592Y-60883904D01*
X29400652Y-60915713D01*
X29353034Y-61058570D01*
X29352949Y-61060908D01*
X29351682Y-61062881D01*
X29346619Y-61098098D01*
X29346619Y-61336193D01*
X29203762Y-61336193D01*
X29203762Y-60526669D01*
X29346619Y-60526669D01*
X29349189Y-60535424D01*
X29347891Y-60544458D01*
X29358957Y-60568690D01*
X29366462Y-60594249D01*
X29373358Y-60600224D01*
X29377150Y-60608527D01*
X29399562Y-60622930D01*
X29419692Y-60640373D01*
X29428724Y-60641671D01*
X29436402Y-60646606D01*
X29471619Y-60651669D01*
X30471619Y-60651669D01*
X30480374Y-60649098D01*
X30489408Y-60650397D01*
X30513640Y-60639330D01*
X30539199Y-60631826D01*
X30545174Y-60624929D01*
X30553477Y-60621138D01*
X30567880Y-60598725D01*
X30585323Y-60578596D01*
X30586621Y-60569563D01*
X30591556Y-60561886D01*
X30596619Y-60526669D01*
X30596619Y-60050479D01*
X30576776Y-59982899D01*
X30523546Y-59936775D01*
X30453830Y-59926751D01*
X30389761Y-59956010D01*
X30351682Y-60015262D01*
X30346619Y-60050479D01*
X30346619Y-60401669D01*
X30072809Y-60401669D01*
X30072809Y-60193336D01*
X30052966Y-60125756D01*
X29999736Y-60079632D01*
X29930020Y-60069608D01*
X29865951Y-60098867D01*
X29827872Y-60158119D01*
X29822809Y-60193336D01*
X29822809Y-60401669D01*
X29596619Y-60401669D01*
X29596619Y-60050479D01*
X29576776Y-59982899D01*
X29523546Y-59936775D01*
X29453830Y-59926751D01*
X29389761Y-59956010D01*
X29351682Y-60015262D01*
X29346619Y-60050479D01*
X29346619Y-60526669D01*
X29203762Y-60526669D01*
X29203762Y-59783894D01*
X30739476Y-59783894D01*
X30739476Y-68746907D01*
G37*
D11*
X68005438Y-68506792D02*
X67957819Y-68582982D01*
X67957819Y-68582982D02*
X67957819Y-68697268D01*
X67957819Y-68697268D02*
X68005438Y-68811554D01*
X68005438Y-68811554D02*
X68100676Y-68887744D01*
X68100676Y-68887744D02*
X68195914Y-68925839D01*
X68195914Y-68925839D02*
X68386390Y-68963935D01*
X68386390Y-68963935D02*
X68529247Y-68963935D01*
X68529247Y-68963935D02*
X68719723Y-68925839D01*
X68719723Y-68925839D02*
X68814961Y-68887744D01*
X68814961Y-68887744D02*
X68910200Y-68811554D01*
X68910200Y-68811554D02*
X68957819Y-68697268D01*
X68957819Y-68697268D02*
X68957819Y-68621077D01*
X68957819Y-68621077D02*
X68910200Y-68506792D01*
X68910200Y-68506792D02*
X68862580Y-68468696D01*
X68862580Y-68468696D02*
X68529247Y-68468696D01*
X68529247Y-68468696D02*
X68529247Y-68621077D01*
X68957819Y-68125839D02*
X67957819Y-68125839D01*
X67957819Y-68125839D02*
X68957819Y-67668696D01*
X68957819Y-67668696D02*
X67957819Y-67668696D01*
X68957819Y-67287744D02*
X67957819Y-67287744D01*
X67957819Y-67287744D02*
X67957819Y-67097268D01*
X67957819Y-67097268D02*
X68005438Y-66982982D01*
X68005438Y-66982982D02*
X68100676Y-66906792D01*
X68100676Y-66906792D02*
X68195914Y-66868697D01*
X68195914Y-66868697D02*
X68386390Y-66830601D01*
X68386390Y-66830601D02*
X68529247Y-66830601D01*
X68529247Y-66830601D02*
X68719723Y-66868697D01*
X68719723Y-66868697D02*
X68814961Y-66906792D01*
X68814961Y-66906792D02*
X68910200Y-66982982D01*
X68910200Y-66982982D02*
X68957819Y-67097268D01*
X68957819Y-67097268D02*
X68957819Y-67287744D01*
D12*
X61314949Y-44171857D02*
X61362568Y-44124238D01*
X61362568Y-44124238D02*
X61457806Y-44076619D01*
X61457806Y-44076619D02*
X61695901Y-44076619D01*
X61695901Y-44076619D02*
X61791139Y-44124238D01*
X61791139Y-44124238D02*
X61838758Y-44171857D01*
X61838758Y-44171857D02*
X61886377Y-44267095D01*
X61886377Y-44267095D02*
X61886377Y-44362333D01*
X61886377Y-44362333D02*
X61838758Y-44505190D01*
X61838758Y-44505190D02*
X61267330Y-45076619D01*
X61267330Y-45076619D02*
X61886377Y-45076619D01*
X62219711Y-44076619D02*
X62838758Y-44076619D01*
X62838758Y-44076619D02*
X62505425Y-44457571D01*
X62505425Y-44457571D02*
X62648282Y-44457571D01*
X62648282Y-44457571D02*
X62743520Y-44505190D01*
X62743520Y-44505190D02*
X62791139Y-44552809D01*
X62791139Y-44552809D02*
X62838758Y-44648047D01*
X62838758Y-44648047D02*
X62838758Y-44886142D01*
X62838758Y-44886142D02*
X62791139Y-44981380D01*
X62791139Y-44981380D02*
X62743520Y-45029000D01*
X62743520Y-45029000D02*
X62648282Y-45076619D01*
X62648282Y-45076619D02*
X62362568Y-45076619D01*
X62362568Y-45076619D02*
X62267330Y-45029000D01*
X62267330Y-45029000D02*
X62219711Y-44981380D01*
D11*
X34325112Y-78117819D02*
X33944160Y-78117819D01*
X33944160Y-78117819D02*
X33906064Y-78594009D01*
X33906064Y-78594009D02*
X33944160Y-78546390D01*
X33944160Y-78546390D02*
X34020350Y-78498771D01*
X34020350Y-78498771D02*
X34210826Y-78498771D01*
X34210826Y-78498771D02*
X34287017Y-78546390D01*
X34287017Y-78546390D02*
X34325112Y-78594009D01*
X34325112Y-78594009D02*
X34363207Y-78689247D01*
X34363207Y-78689247D02*
X34363207Y-78927342D01*
X34363207Y-78927342D02*
X34325112Y-79022580D01*
X34325112Y-79022580D02*
X34287017Y-79070200D01*
X34287017Y-79070200D02*
X34210826Y-79117819D01*
X34210826Y-79117819D02*
X34020350Y-79117819D01*
X34020350Y-79117819D02*
X33944160Y-79070200D01*
X33944160Y-79070200D02*
X33906064Y-79022580D01*
X34591779Y-78117819D02*
X34858446Y-79117819D01*
X34858446Y-79117819D02*
X35125112Y-78117819D01*
D12*
G36*
X52051145Y-65024258D02*
G01*
X52070077Y-65043191D01*
X52095428Y-65093892D01*
X52095428Y-65320336D01*
X51821619Y-65320336D01*
X51821619Y-65093892D01*
X51846969Y-65043190D01*
X51865902Y-65024258D01*
X51916604Y-64998908D01*
X52000444Y-64998908D01*
X52051145Y-65024258D01*
G37*
G36*
X52964476Y-65713193D02*
G01*
X51428762Y-65713193D01*
X51428762Y-65445336D01*
X51571619Y-65445336D01*
X51574189Y-65454091D01*
X51572891Y-65463125D01*
X51583957Y-65487357D01*
X51591462Y-65512916D01*
X51598358Y-65518891D01*
X51602150Y-65527194D01*
X51624562Y-65541597D01*
X51644692Y-65559040D01*
X51653724Y-65560338D01*
X51661402Y-65565273D01*
X51696619Y-65570336D01*
X52696619Y-65570336D01*
X52764199Y-65550493D01*
X52810323Y-65497263D01*
X52820347Y-65427547D01*
X52791088Y-65363478D01*
X52731836Y-65325399D01*
X52696619Y-65320336D01*
X52345428Y-65320336D01*
X52345428Y-65272323D01*
X52768302Y-64976312D01*
X52812286Y-64921301D01*
X52819547Y-64851243D01*
X52787780Y-64788381D01*
X52727069Y-64752673D01*
X52656691Y-64755456D01*
X52624936Y-64771504D01*
X52320347Y-64984715D01*
X52284612Y-64913244D01*
X52283017Y-64911529D01*
X52282519Y-64909240D01*
X52261197Y-64880757D01*
X52213578Y-64833139D01*
X52211523Y-64832017D01*
X52210326Y-64830001D01*
X52181091Y-64809723D01*
X52085854Y-64762105D01*
X52074703Y-64760098D01*
X52065169Y-64753971D01*
X52029952Y-64748908D01*
X51887095Y-64748908D01*
X51876222Y-64752100D01*
X51864956Y-64750884D01*
X51831193Y-64762105D01*
X51735955Y-64809724D01*
X51734240Y-64811318D01*
X51731951Y-64811817D01*
X51703468Y-64833139D01*
X51655850Y-64880758D01*
X51654728Y-64882812D01*
X51652712Y-64884010D01*
X51632434Y-64913245D01*
X51584816Y-65008482D01*
X51582809Y-65019632D01*
X51576682Y-65029167D01*
X51571619Y-65064384D01*
X51571619Y-65445336D01*
X51428762Y-65445336D01*
X51428762Y-64445336D01*
X51571619Y-64445336D01*
X51574189Y-64454091D01*
X51572891Y-64463125D01*
X51583957Y-64487357D01*
X51591462Y-64512916D01*
X51598358Y-64518891D01*
X51602150Y-64527194D01*
X51624562Y-64541597D01*
X51644692Y-64559040D01*
X51653724Y-64560338D01*
X51661402Y-64565273D01*
X51696619Y-64570336D01*
X52696619Y-64570336D01*
X52705374Y-64567765D01*
X52714408Y-64569064D01*
X52738640Y-64557997D01*
X52764199Y-64550493D01*
X52770174Y-64543596D01*
X52778477Y-64539805D01*
X52792880Y-64517392D01*
X52810323Y-64497263D01*
X52811621Y-64488230D01*
X52816556Y-64480553D01*
X52821619Y-64445336D01*
X52821619Y-63969146D01*
X52801776Y-63901566D01*
X52748546Y-63855442D01*
X52678830Y-63845418D01*
X52614761Y-63874677D01*
X52576682Y-63933929D01*
X52571619Y-63969146D01*
X52571619Y-64320336D01*
X52297809Y-64320336D01*
X52297809Y-64112003D01*
X52277966Y-64044423D01*
X52224736Y-63998299D01*
X52155020Y-63988275D01*
X52090951Y-64017534D01*
X52052872Y-64076786D01*
X52047809Y-64112003D01*
X52047809Y-64320336D01*
X51821619Y-64320336D01*
X51821619Y-63969146D01*
X51801776Y-63901566D01*
X51748546Y-63855442D01*
X51678830Y-63845418D01*
X51614761Y-63874677D01*
X51576682Y-63933929D01*
X51571619Y-63969146D01*
X51571619Y-64445336D01*
X51428762Y-64445336D01*
X51428762Y-63397717D01*
X51571619Y-63397717D01*
X51574811Y-63408589D01*
X51573595Y-63419855D01*
X51584816Y-63453619D01*
X51632434Y-63548856D01*
X51634030Y-63550571D01*
X51634528Y-63552861D01*
X51655850Y-63581343D01*
X51703468Y-63628962D01*
X51705524Y-63630085D01*
X51706721Y-63632099D01*
X51735955Y-63652377D01*
X51831193Y-63699996D01*
X51842343Y-63702002D01*
X51851878Y-63708130D01*
X51887095Y-63713193D01*
X51982333Y-63713193D01*
X51993205Y-63710000D01*
X52004471Y-63711217D01*
X52038235Y-63699996D01*
X52133472Y-63652378D01*
X52135187Y-63650781D01*
X52137477Y-63650284D01*
X52165959Y-63628962D01*
X52213578Y-63581344D01*
X52214701Y-63579287D01*
X52216715Y-63578091D01*
X52236993Y-63548857D01*
X52284612Y-63453619D01*
X52285387Y-63449308D01*
X52294077Y-63428034D01*
X52338368Y-63250868D01*
X52370778Y-63186047D01*
X52389711Y-63167115D01*
X52440413Y-63141765D01*
X52476634Y-63141765D01*
X52527336Y-63167116D01*
X52546268Y-63186048D01*
X52571619Y-63236749D01*
X52571619Y-63425050D01*
X52530415Y-63548665D01*
X52527869Y-63619051D01*
X52563781Y-63679641D01*
X52626750Y-63711197D01*
X52696784Y-63703700D01*
X52751646Y-63659530D01*
X52767585Y-63627721D01*
X52815204Y-63484865D01*
X52815288Y-63482525D01*
X52816556Y-63480553D01*
X52821619Y-63445336D01*
X52821619Y-63207241D01*
X52818426Y-63196368D01*
X52819643Y-63185102D01*
X52808422Y-63151339D01*
X52760803Y-63056101D01*
X52759208Y-63054386D01*
X52758710Y-63052096D01*
X52737387Y-63023614D01*
X52689767Y-62975995D01*
X52687713Y-62974873D01*
X52686516Y-62972858D01*
X52657281Y-62952580D01*
X52562044Y-62904962D01*
X52550893Y-62902955D01*
X52541359Y-62896828D01*
X52506142Y-62891765D01*
X52410904Y-62891765D01*
X52400031Y-62894957D01*
X52388765Y-62893741D01*
X52355002Y-62904962D01*
X52259764Y-62952581D01*
X52258049Y-62954175D01*
X52255760Y-62954674D01*
X52227277Y-62975996D01*
X52179659Y-63023615D01*
X52178537Y-63025669D01*
X52176521Y-63026867D01*
X52156243Y-63056102D01*
X52108625Y-63151339D01*
X52107849Y-63155650D01*
X52099160Y-63176924D01*
X52054868Y-63354088D01*
X52022458Y-63418909D01*
X52003526Y-63437842D01*
X51952825Y-63463193D01*
X51916604Y-63463193D01*
X51865902Y-63437842D01*
X51846969Y-63418910D01*
X51821619Y-63368209D01*
X51821619Y-63179905D01*
X51862823Y-63056294D01*
X51865369Y-62985907D01*
X51829456Y-62925317D01*
X51766488Y-62893761D01*
X51696454Y-62901259D01*
X51641592Y-62945428D01*
X51625652Y-62977237D01*
X51578034Y-63120094D01*
X51577949Y-63122432D01*
X51576682Y-63124405D01*
X51571619Y-63159622D01*
X51571619Y-63397717D01*
X51428762Y-63397717D01*
X51428762Y-62588193D01*
X51571619Y-62588193D01*
X51574189Y-62596948D01*
X51572891Y-62605982D01*
X51583957Y-62630214D01*
X51591462Y-62655773D01*
X51598358Y-62661748D01*
X51602150Y-62670051D01*
X51624562Y-62684454D01*
X51644692Y-62701897D01*
X51653724Y-62703195D01*
X51661402Y-62708130D01*
X51696619Y-62713193D01*
X52696619Y-62713193D01*
X52705374Y-62710622D01*
X52714408Y-62711921D01*
X52738640Y-62700854D01*
X52764199Y-62693350D01*
X52770174Y-62686453D01*
X52778477Y-62682662D01*
X52792880Y-62660249D01*
X52810323Y-62640120D01*
X52811621Y-62631087D01*
X52816556Y-62623410D01*
X52821619Y-62588193D01*
X52821619Y-62112003D01*
X52801776Y-62044423D01*
X52748546Y-61998299D01*
X52678830Y-61988275D01*
X52614761Y-62017534D01*
X52576682Y-62076786D01*
X52571619Y-62112003D01*
X52571619Y-62463193D01*
X52297809Y-62463193D01*
X52297809Y-62254860D01*
X52277966Y-62187280D01*
X52224736Y-62141156D01*
X52155020Y-62131132D01*
X52090951Y-62160391D01*
X52052872Y-62219643D01*
X52047809Y-62254860D01*
X52047809Y-62463193D01*
X51821619Y-62463193D01*
X51821619Y-62112003D01*
X51801776Y-62044423D01*
X51748546Y-61998299D01*
X51678830Y-61988275D01*
X51614761Y-62017534D01*
X51576682Y-62076786D01*
X51571619Y-62112003D01*
X51571619Y-62588193D01*
X51428762Y-62588193D01*
X51428762Y-61826288D01*
X51571619Y-61826288D01*
X51591462Y-61893868D01*
X51644692Y-61939992D01*
X51714408Y-61950016D01*
X51778477Y-61920757D01*
X51816556Y-61861505D01*
X51821619Y-61826288D01*
X51821619Y-61665574D01*
X52696619Y-61665574D01*
X52764199Y-61645731D01*
X52810323Y-61592501D01*
X52820347Y-61522785D01*
X52791088Y-61458716D01*
X52731836Y-61420637D01*
X52696619Y-61415574D01*
X51821619Y-61415574D01*
X51821619Y-61254860D01*
X51801776Y-61187280D01*
X51748546Y-61141156D01*
X51678830Y-61131132D01*
X51614761Y-61160391D01*
X51576682Y-61219643D01*
X51571619Y-61254860D01*
X51571619Y-61826288D01*
X51428762Y-61826288D01*
X51428762Y-60988275D01*
X52964476Y-60988275D01*
X52964476Y-65713193D01*
G37*
D11*
X40804094Y-25905104D02*
X41280284Y-25905104D01*
X40708856Y-26190819D02*
X41042189Y-25190819D01*
X41042189Y-25190819D02*
X41375522Y-26190819D01*
X41708856Y-25524152D02*
X41708856Y-26190819D01*
X41708856Y-25619390D02*
X41756475Y-25571771D01*
X41756475Y-25571771D02*
X41851713Y-25524152D01*
X41851713Y-25524152D02*
X41994570Y-25524152D01*
X41994570Y-25524152D02*
X42089808Y-25571771D01*
X42089808Y-25571771D02*
X42137427Y-25667009D01*
X42137427Y-25667009D02*
X42137427Y-26190819D01*
X42470761Y-25524152D02*
X42851713Y-25524152D01*
X42613618Y-25190819D02*
X42613618Y-26047961D01*
X42613618Y-26047961D02*
X42661237Y-26143200D01*
X42661237Y-26143200D02*
X42756475Y-26190819D01*
X42756475Y-26190819D02*
X42851713Y-26190819D01*
X43565999Y-26143200D02*
X43470761Y-26190819D01*
X43470761Y-26190819D02*
X43280285Y-26190819D01*
X43280285Y-26190819D02*
X43185047Y-26143200D01*
X43185047Y-26143200D02*
X43137428Y-26047961D01*
X43137428Y-26047961D02*
X43137428Y-25667009D01*
X43137428Y-25667009D02*
X43185047Y-25571771D01*
X43185047Y-25571771D02*
X43280285Y-25524152D01*
X43280285Y-25524152D02*
X43470761Y-25524152D01*
X43470761Y-25524152D02*
X43565999Y-25571771D01*
X43565999Y-25571771D02*
X43613618Y-25667009D01*
X43613618Y-25667009D02*
X43613618Y-25762247D01*
X43613618Y-25762247D02*
X43137428Y-25857485D01*
X44042190Y-25524152D02*
X44042190Y-26190819D01*
X44042190Y-25619390D02*
X44089809Y-25571771D01*
X44089809Y-25571771D02*
X44185047Y-25524152D01*
X44185047Y-25524152D02*
X44327904Y-25524152D01*
X44327904Y-25524152D02*
X44423142Y-25571771D01*
X44423142Y-25571771D02*
X44470761Y-25667009D01*
X44470761Y-25667009D02*
X44470761Y-26190819D01*
X44946952Y-25524152D02*
X44946952Y-26190819D01*
X44946952Y-25619390D02*
X44994571Y-25571771D01*
X44994571Y-25571771D02*
X45089809Y-25524152D01*
X45089809Y-25524152D02*
X45232666Y-25524152D01*
X45232666Y-25524152D02*
X45327904Y-25571771D01*
X45327904Y-25571771D02*
X45375523Y-25667009D01*
X45375523Y-25667009D02*
X45375523Y-26190819D01*
X46280285Y-26190819D02*
X46280285Y-25667009D01*
X46280285Y-25667009D02*
X46232666Y-25571771D01*
X46232666Y-25571771D02*
X46137428Y-25524152D01*
X46137428Y-25524152D02*
X45946952Y-25524152D01*
X45946952Y-25524152D02*
X45851714Y-25571771D01*
X46280285Y-26143200D02*
X46185047Y-26190819D01*
X46185047Y-26190819D02*
X45946952Y-26190819D01*
X45946952Y-26190819D02*
X45851714Y-26143200D01*
X45851714Y-26143200D02*
X45804095Y-26047961D01*
X45804095Y-26047961D02*
X45804095Y-25952723D01*
X45804095Y-25952723D02*
X45851714Y-25857485D01*
X45851714Y-25857485D02*
X45946952Y-25809866D01*
X45946952Y-25809866D02*
X46185047Y-25809866D01*
X46185047Y-25809866D02*
X46280285Y-25762247D01*
X47470762Y-25905104D02*
X47946952Y-25905104D01*
X47375524Y-26190819D02*
X47708857Y-25190819D01*
X47708857Y-25190819D02*
X48042190Y-26190819D01*
X48375524Y-26190819D02*
X48375524Y-25524152D01*
X48375524Y-25714628D02*
X48423143Y-25619390D01*
X48423143Y-25619390D02*
X48470762Y-25571771D01*
X48470762Y-25571771D02*
X48566000Y-25524152D01*
X48566000Y-25524152D02*
X48661238Y-25524152D01*
X49375524Y-26143200D02*
X49280286Y-26190819D01*
X49280286Y-26190819D02*
X49089810Y-26190819D01*
X49089810Y-26190819D02*
X48994572Y-26143200D01*
X48994572Y-26143200D02*
X48946953Y-26047961D01*
X48946953Y-26047961D02*
X48946953Y-25667009D01*
X48946953Y-25667009D02*
X48994572Y-25571771D01*
X48994572Y-25571771D02*
X49089810Y-25524152D01*
X49089810Y-25524152D02*
X49280286Y-25524152D01*
X49280286Y-25524152D02*
X49375524Y-25571771D01*
X49375524Y-25571771D02*
X49423143Y-25667009D01*
X49423143Y-25667009D02*
X49423143Y-25762247D01*
X49423143Y-25762247D02*
X48946953Y-25857485D01*
X50280286Y-26190819D02*
X50280286Y-25667009D01*
X50280286Y-25667009D02*
X50232667Y-25571771D01*
X50232667Y-25571771D02*
X50137429Y-25524152D01*
X50137429Y-25524152D02*
X49946953Y-25524152D01*
X49946953Y-25524152D02*
X49851715Y-25571771D01*
X50280286Y-26143200D02*
X50185048Y-26190819D01*
X50185048Y-26190819D02*
X49946953Y-26190819D01*
X49946953Y-26190819D02*
X49851715Y-26143200D01*
X49851715Y-26143200D02*
X49804096Y-26047961D01*
X49804096Y-26047961D02*
X49804096Y-25952723D01*
X49804096Y-25952723D02*
X49851715Y-25857485D01*
X49851715Y-25857485D02*
X49946953Y-25809866D01*
X49946953Y-25809866D02*
X50185048Y-25809866D01*
X50185048Y-25809866D02*
X50280286Y-25762247D01*
D13*
%TO.C,SW2*%
X46360000Y-66511000D02*
X47560000Y-66511000D01*
X49160000Y-66511000D02*
X50360000Y-66511000D01*
X50360000Y-66511000D02*
X50360000Y-60111000D01*
X46360000Y-60111000D02*
X46360000Y-66511000D01*
X47560000Y-60111000D02*
X46360000Y-60111000D01*
X50360000Y-60111000D02*
X49160000Y-60111000D01*
%TO.C,C6*%
X49008420Y-56767000D02*
X49289580Y-56767000D01*
X49008420Y-57787000D02*
X49289580Y-57787000D01*
%TO.C,J_PWRIN1*%
X22650000Y-36846000D02*
X23900000Y-36846000D01*
X22940000Y-36556000D02*
X28910000Y-36556000D01*
X28910000Y-36556000D02*
X28910000Y-28936000D01*
X22950000Y-36546000D02*
X23700000Y-36546000D01*
X23700000Y-36546000D02*
X23700000Y-34746000D01*
X25200000Y-36546000D02*
X25200000Y-35796000D01*
X25200000Y-35796000D02*
X28150000Y-35796000D01*
X28150000Y-35796000D02*
X28150000Y-32746000D01*
X22650000Y-35596000D02*
X22650000Y-36846000D01*
X22950000Y-34746000D02*
X22950000Y-36546000D01*
X23700000Y-34746000D02*
X22950000Y-34746000D01*
X22950000Y-33246000D02*
X23700000Y-33246000D01*
X23700000Y-33246000D02*
X23700000Y-32246000D01*
X22950000Y-32246000D02*
X22950000Y-33246000D01*
X23700000Y-32246000D02*
X22950000Y-32246000D01*
X22950000Y-30746000D02*
X23700000Y-30746000D01*
X23700000Y-30746000D02*
X23700000Y-28946000D01*
X25200000Y-29696000D02*
X28150000Y-29696000D01*
X28150000Y-29696000D02*
X28150000Y-32746000D01*
X22950000Y-28946000D02*
X22950000Y-30746000D01*
X23700000Y-28946000D02*
X22950000Y-28946000D01*
X25200000Y-28946000D02*
X25200000Y-29696000D01*
X22940000Y-28936000D02*
X22940000Y-36556000D01*
X28910000Y-28936000D02*
X22940000Y-28936000D01*
%TO.C,JST_XH_AIR1*%
X22650000Y-56491000D02*
X23900000Y-56491000D01*
X22940000Y-56201000D02*
X28910000Y-56201000D01*
X28910000Y-56201000D02*
X28910000Y-46081000D01*
X22950000Y-56191000D02*
X23700000Y-56191000D01*
X23700000Y-56191000D02*
X23700000Y-54391000D01*
X25200000Y-56191000D02*
X25200000Y-55441000D01*
X25200000Y-55441000D02*
X28150000Y-55441000D01*
X28150000Y-55441000D02*
X28150000Y-51141000D01*
X22650000Y-55241000D02*
X22650000Y-56491000D01*
X22950000Y-54391000D02*
X22950000Y-56191000D01*
X23700000Y-54391000D02*
X22950000Y-54391000D01*
X22950000Y-52891000D02*
X23700000Y-52891000D01*
X23700000Y-52891000D02*
X23700000Y-49391000D01*
X22950000Y-49391000D02*
X22950000Y-52891000D01*
X23700000Y-49391000D02*
X22950000Y-49391000D01*
X22950000Y-47891000D02*
X23700000Y-47891000D01*
X23700000Y-47891000D02*
X23700000Y-46091000D01*
X25200000Y-46841000D02*
X28150000Y-46841000D01*
X28150000Y-46841000D02*
X28150000Y-51141000D01*
X22950000Y-46091000D02*
X22950000Y-47891000D01*
X23700000Y-46091000D02*
X22950000Y-46091000D01*
X25200000Y-46091000D02*
X25200000Y-46841000D01*
X22940000Y-46081000D02*
X22940000Y-56201000D01*
X28910000Y-46081000D02*
X22940000Y-46081000D01*
%TO.C,C7_MAXDECOUP1*%
X33641420Y-59688000D02*
X33922580Y-59688000D01*
X33641420Y-60708000D02*
X33922580Y-60708000D01*
%TO.C,JST_XH_SOIL5V1*%
X22396000Y-71176000D02*
X23646000Y-71176000D01*
X22686000Y-70886000D02*
X28656000Y-70886000D01*
X28656000Y-70886000D02*
X28656000Y-58266000D01*
X22696000Y-70876000D02*
X23446000Y-70876000D01*
X23446000Y-70876000D02*
X23446000Y-69076000D01*
X24946000Y-70876000D02*
X24946000Y-70126000D01*
X24946000Y-70126000D02*
X27896000Y-70126000D01*
X27896000Y-70126000D02*
X27896000Y-64576000D01*
X22396000Y-69926000D02*
X22396000Y-71176000D01*
X22696000Y-69076000D02*
X22696000Y-70876000D01*
X23446000Y-69076000D02*
X22696000Y-69076000D01*
X22696000Y-67576000D02*
X23446000Y-67576000D01*
X23446000Y-67576000D02*
X23446000Y-61576000D01*
X22696000Y-61576000D02*
X22696000Y-67576000D01*
X23446000Y-61576000D02*
X22696000Y-61576000D01*
X22696000Y-60076000D02*
X23446000Y-60076000D01*
X23446000Y-60076000D02*
X23446000Y-58276000D01*
X24946000Y-59026000D02*
X27896000Y-59026000D01*
X27896000Y-59026000D02*
X27896000Y-64576000D01*
X22696000Y-58276000D02*
X22696000Y-60076000D01*
X23446000Y-58276000D02*
X22696000Y-58276000D01*
X24946000Y-58276000D02*
X24946000Y-59026000D01*
X22686000Y-58266000D02*
X22686000Y-70886000D01*
X28656000Y-58266000D02*
X22686000Y-58266000D01*
%TO.C,R2*%
X41294258Y-58688500D02*
X40819742Y-58688500D01*
X41294258Y-57643500D02*
X40819742Y-57643500D01*
%TO.C,C4*%
X33247000Y-31503252D02*
X33247000Y-30980748D01*
X31777000Y-31503252D02*
X31777000Y-30980748D01*
%TO.C,C5*%
X55879580Y-57914000D02*
X55598420Y-57914000D01*
X55879580Y-56894000D02*
X55598420Y-56894000D01*
%TO.C,J_PROG1*%
X38608000Y-73346000D02*
X30928000Y-73346000D01*
X38608000Y-73346000D02*
X38608000Y-76006000D01*
X30928000Y-73346000D02*
X30928000Y-76006000D01*
X41208000Y-74676000D02*
X41208000Y-76006000D01*
X41208000Y-76006000D02*
X39878000Y-76006000D01*
X38608000Y-76006000D02*
X30928000Y-76006000D01*
%TO.C,U1*%
X24668900Y-40466800D02*
X22868900Y-40466800D01*
X24668900Y-40466800D02*
X25468900Y-40466800D01*
X24668900Y-43586800D02*
X23868900Y-43586800D01*
X24668900Y-43586800D02*
X25468900Y-43586800D01*
%TO.C,SW1*%
X53472000Y-66511000D02*
X54672000Y-66511000D01*
X56272000Y-66511000D02*
X57472000Y-66511000D01*
X57472000Y-66511000D02*
X57472000Y-60111000D01*
X53472000Y-60111000D02*
X53472000Y-66511000D01*
X54672000Y-60111000D02*
X53472000Y-60111000D01*
X57472000Y-60111000D02*
X56272000Y-60111000D01*
%TO.C,J_ACT_OUT1*%
X67266000Y-62174000D02*
X66016000Y-62174000D01*
X66976000Y-62464000D02*
X61006000Y-62464000D01*
X61006000Y-62464000D02*
X61006000Y-70084000D01*
X66966000Y-62474000D02*
X66216000Y-62474000D01*
X66216000Y-62474000D02*
X66216000Y-64274000D01*
X64716000Y-62474000D02*
X64716000Y-63224000D01*
X64716000Y-63224000D02*
X61766000Y-63224000D01*
X61766000Y-63224000D02*
X61766000Y-66274000D01*
X67266000Y-63424000D02*
X67266000Y-62174000D01*
X66966000Y-64274000D02*
X66966000Y-62474000D01*
X66216000Y-64274000D02*
X66966000Y-64274000D01*
X66966000Y-65774000D02*
X66216000Y-65774000D01*
X66216000Y-65774000D02*
X66216000Y-66774000D01*
X66966000Y-66774000D02*
X66966000Y-65774000D01*
X66216000Y-66774000D02*
X66966000Y-66774000D01*
X66966000Y-68274000D02*
X66216000Y-68274000D01*
X66216000Y-68274000D02*
X66216000Y-70074000D01*
X64716000Y-69324000D02*
X61766000Y-69324000D01*
X61766000Y-69324000D02*
X61766000Y-66274000D01*
X66966000Y-70074000D02*
X66966000Y-68274000D01*
X66216000Y-70074000D02*
X66966000Y-70074000D01*
X64716000Y-70074000D02*
X64716000Y-69324000D01*
X66976000Y-70084000D02*
X66976000Y-62464000D01*
X61006000Y-70084000D02*
X66976000Y-70084000D01*
%TO.C,JP1*%
X42451000Y-65338000D02*
X41121000Y-65338000D01*
X42451000Y-64008000D02*
X42451000Y-65338000D01*
X42451000Y-62738000D02*
X42451000Y-60138000D01*
X42451000Y-62738000D02*
X39791000Y-62738000D01*
X42451000Y-60138000D02*
X39791000Y-60138000D01*
X39791000Y-62738000D02*
X39791000Y-60138000D01*
%TO.C,C1*%
X24838420Y-37590000D02*
X25119580Y-37590000D01*
X24838420Y-38610000D02*
X25119580Y-38610000D01*
%TO.C,C2*%
X28475000Y-43073252D02*
X28475000Y-42550748D01*
X29945000Y-43073252D02*
X29945000Y-42550748D01*
%TO.C,J1*%
X68640000Y-55940000D02*
X68640000Y-30420000D01*
X68640000Y-55940000D02*
X66040000Y-55940000D01*
X68640000Y-30420000D02*
X63440000Y-30420000D01*
X66040000Y-55940000D02*
X66040000Y-53340000D01*
X66040000Y-53340000D02*
X63440000Y-53340000D01*
X64770000Y-55940000D02*
X63440000Y-55940000D01*
X63440000Y-55940000D02*
X63440000Y-54610000D01*
X63440000Y-53340000D02*
X63440000Y-30420000D01*
%TO.C,Q1*%
X33782000Y-55844000D02*
X32107000Y-55844000D01*
X33782000Y-55844000D02*
X34432000Y-55844000D01*
X33782000Y-58964000D02*
X33132000Y-58964000D01*
X33782000Y-58964000D02*
X34432000Y-58964000D01*
%TO.C,C3*%
X35154000Y-31128580D02*
X35154000Y-30847420D01*
X34134000Y-31128580D02*
X34134000Y-30847420D01*
%TO.C,JST_XH_CC1*%
X59806000Y-77426000D02*
X59806000Y-76176000D01*
X59516000Y-77136000D02*
X59516000Y-71166000D01*
X59516000Y-71166000D02*
X44396000Y-71166000D01*
X59506000Y-77126000D02*
X59506000Y-76376000D01*
X59506000Y-76376000D02*
X57706000Y-76376000D01*
X59506000Y-74876000D02*
X58756000Y-74876000D01*
X58756000Y-74876000D02*
X58756000Y-71926000D01*
X58756000Y-71926000D02*
X51956000Y-71926000D01*
X58556000Y-77426000D02*
X59806000Y-77426000D01*
X57706000Y-77126000D02*
X59506000Y-77126000D01*
X57706000Y-76376000D02*
X57706000Y-77126000D01*
X56206000Y-77126000D02*
X56206000Y-76376000D01*
X56206000Y-76376000D02*
X47706000Y-76376000D01*
X47706000Y-77126000D02*
X56206000Y-77126000D01*
X47706000Y-76376000D02*
X47706000Y-77126000D01*
X46206000Y-77126000D02*
X46206000Y-76376000D01*
X46206000Y-76376000D02*
X44406000Y-76376000D01*
X45156000Y-74876000D02*
X45156000Y-71926000D01*
X45156000Y-71926000D02*
X51956000Y-71926000D01*
X44406000Y-77126000D02*
X46206000Y-77126000D01*
X44406000Y-76376000D02*
X44406000Y-77126000D01*
X44406000Y-74876000D02*
X45156000Y-74876000D01*
X44396000Y-77136000D02*
X59516000Y-77136000D01*
X44396000Y-71166000D02*
X44396000Y-77136000D01*
%TO.C,U2*%
X36566000Y-22736000D02*
X36566000Y-29486000D01*
X36566000Y-22736000D02*
X54566000Y-22736000D01*
X36566000Y-47486000D02*
X36566000Y-48236000D01*
X36566000Y-48236000D02*
X37316000Y-48236000D01*
X37316000Y-48236000D02*
X39066000Y-48236000D01*
X53816000Y-48236000D02*
X52066000Y-48236000D01*
X54566000Y-22736000D02*
X54566000Y-29486000D01*
X54566000Y-28676000D02*
X36566000Y-28676000D01*
X54566000Y-47486000D02*
X54566000Y-48236000D01*
X54566000Y-48236000D02*
X53816000Y-48236000D01*
D14*
%TO.C,U3*%
X36410900Y-67144900D02*
X36410900Y-62903100D01*
X31153100Y-62903100D02*
X31153100Y-67144900D01*
D13*
%TO.C,D1*%
X39534500Y-55399000D02*
X39534500Y-56869000D01*
X39534500Y-56869000D02*
X41819500Y-56869000D01*
X41819500Y-55399000D02*
X39534500Y-55399000D01*
%TO.C,R1*%
X56150742Y-54189100D02*
X56625258Y-54189100D01*
X56150742Y-55234100D02*
X56625258Y-55234100D01*
%TD*%
%LPC*%
D15*
%TO.C,SW2*%
X48360000Y-67186000D03*
X48360000Y-59436000D03*
%TD*%
D16*
%TO.C,C6*%
X48374000Y-57277000D03*
X49924000Y-57277000D03*
%TD*%
D17*
%TO.C,J_PWRIN1*%
X25400000Y-33996000D03*
D18*
X25400000Y-31496000D03*
%TD*%
D19*
%TO.C,JST_XH_AIR1*%
X25400000Y-53641000D03*
D20*
X25400000Y-51141000D03*
X25400000Y-48641000D03*
%TD*%
D16*
%TO.C,C7_MAXDECOUP1*%
X33007000Y-60198000D03*
X34557000Y-60198000D03*
%TD*%
D21*
%TO.C,H4*%
X65532000Y-24384000D03*
%TD*%
D19*
%TO.C,JST_XH_SOIL5V1*%
X25146000Y-68326000D03*
D20*
X25146000Y-65826000D03*
X25146000Y-63326000D03*
X25146000Y-60826000D03*
%TD*%
D22*
%TO.C,R2*%
X41882000Y-58166000D03*
X40232000Y-58166000D03*
%TD*%
D23*
%TO.C,C4*%
X32512000Y-30292000D03*
X32512000Y-32192000D03*
%TD*%
D24*
%TO.C,C5*%
X56514000Y-57404000D03*
X54964000Y-57404000D03*
%TD*%
D25*
%TO.C,J_PROG1*%
X39878000Y-74676000D03*
D26*
X37338000Y-74676000D03*
X34798000Y-74676000D03*
X32258000Y-74676000D03*
%TD*%
D27*
%TO.C,U1*%
X23531400Y-41076800D03*
X23531400Y-42026800D03*
X23531400Y-42976800D03*
X25806400Y-42976800D03*
X25806400Y-41076800D03*
%TD*%
D15*
%TO.C,SW1*%
X55472000Y-67186000D03*
X55472000Y-59436000D03*
%TD*%
D28*
%TO.C,J_ACT_OUT1*%
X64516000Y-65024000D03*
D18*
X64516000Y-67524000D03*
%TD*%
D25*
%TO.C,JP1*%
X41121000Y-64008000D03*
D26*
X41121000Y-61468000D03*
%TD*%
D16*
%TO.C,C1*%
X24204000Y-38100000D03*
X25754000Y-38100000D03*
%TD*%
D23*
%TO.C,C2*%
X29210000Y-43762000D03*
X29210000Y-41862000D03*
%TD*%
D25*
%TO.C,J1*%
X64770000Y-54610000D03*
D26*
X67310000Y-54610000D03*
X64770000Y-52070000D03*
X67310000Y-52070000D03*
X64770000Y-49530000D03*
X67310000Y-49530000D03*
X64770000Y-46990000D03*
X67310000Y-46990000D03*
X64770000Y-44450000D03*
X67310000Y-44450000D03*
X64770000Y-41910000D03*
X67310000Y-41910000D03*
X64770000Y-39370000D03*
X67310000Y-39370000D03*
X64770000Y-36830000D03*
X67310000Y-36830000D03*
X64770000Y-34290000D03*
X67310000Y-34290000D03*
X64770000Y-31750000D03*
X67310000Y-31750000D03*
%TD*%
D29*
%TO.C,Q1*%
X32844500Y-56454000D03*
X32844500Y-58354000D03*
X34719500Y-57404000D03*
%TD*%
D30*
%TO.C,C3*%
X34644000Y-30213000D03*
X34644000Y-31763000D03*
%TD*%
D21*
%TO.C,H3*%
X24384000Y-24384000D03*
%TD*%
%TO.C,H2*%
X65632000Y-75692000D03*
%TD*%
D31*
%TO.C,JST_XH_CC1*%
X56956000Y-74676000D03*
D32*
X54456000Y-74676000D03*
X51956000Y-74676000D03*
X49456000Y-74676000D03*
X46956000Y-74676000D03*
%TD*%
D33*
%TO.C,U2*%
X36816000Y-30226000D03*
X36816000Y-31496000D03*
X36816000Y-32766000D03*
X36816000Y-34036000D03*
X36816000Y-35306000D03*
X36816000Y-36576000D03*
X36816000Y-37846000D03*
X36816000Y-39116000D03*
X36816000Y-40386000D03*
X36816000Y-41656000D03*
X36816000Y-42926000D03*
X36816000Y-44196000D03*
X36816000Y-45466000D03*
X36816000Y-46736000D03*
D34*
X39846000Y-47986000D03*
X41116000Y-47986000D03*
X42386000Y-47986000D03*
X43656000Y-47986000D03*
X44926000Y-47986000D03*
X46196000Y-47986000D03*
X47466000Y-47986000D03*
X48736000Y-47986000D03*
X50006000Y-47986000D03*
X51276000Y-47986000D03*
D33*
X54316000Y-46736000D03*
X54316000Y-45466000D03*
X54316000Y-44196000D03*
X54316000Y-42926000D03*
X54316000Y-41656000D03*
X54316000Y-40386000D03*
X54316000Y-39116000D03*
X54316000Y-37846000D03*
X54316000Y-36576000D03*
X54316000Y-35306000D03*
X54316000Y-34036000D03*
X54316000Y-32766000D03*
X54316000Y-31496000D03*
X54316000Y-30226000D03*
D35*
X42666000Y-36546000D03*
X42666000Y-36546000D03*
X42666000Y-37946000D03*
X42666000Y-39346000D03*
X42666000Y-39346000D03*
X44066000Y-36546000D03*
X44066000Y-37946000D03*
X44066000Y-39346000D03*
X44066000Y-39346000D03*
X45466000Y-36546000D03*
X45466000Y-37946000D03*
X45466000Y-39346000D03*
%TD*%
D36*
%TO.C,U3*%
X31877000Y-67748150D03*
X33147000Y-67748150D03*
X34417000Y-67748150D03*
X35687000Y-67748150D03*
X35687000Y-62299850D03*
X34417000Y-62299850D03*
X33147000Y-62299850D03*
X31877000Y-62299850D03*
%TD*%
D21*
%TO.C,H1*%
X24384000Y-75692000D03*
%TD*%
D37*
%TO.C,D1*%
X40232000Y-56134000D03*
X41807000Y-56134000D03*
%TD*%
D38*
%TO.C,R1*%
X55563000Y-54711600D03*
X57213000Y-54711600D03*
%TD*%
%LPD*%
M02*
