%TF.GenerationSoftware,KiCad,Pcbnew,7.0.9*%
%TF.CreationDate,2023-12-28T10:44:23-05:00*%
%TF.ProjectId,esp32_sensor_node,65737033-325f-4736-956e-736f725f6e6f,rev?*%
%TF.SameCoordinates,Original*%
%TF.FileFunction,Drillmap*%
%TF.FilePolarity,Positive*%
%FSLAX45Y45*%
G04 Gerber Fmt 4.5, Leading zero omitted, Abs format (unit mm)*
G04 Created by KiCad (PCBNEW 7.0.9) date 2023-12-28 10:44:23*
%MOMM*%
%LPD*%
G01*
G04 APERTURE LIST*
%ADD10C,0.100000*%
%ADD11C,0.200000*%
G04 APERTURE END LIST*
D10*
X6995000Y-2438400D02*
G75*
G03*
X6563200Y-2006600I-431800J0D01*
G01*
X2006600Y-7569200D02*
X2006600Y-2438400D01*
X2438400Y-2006600D02*
G75*
G03*
X2006600Y-2438400I0J-431800D01*
G01*
X2006600Y-7569200D02*
G75*
G03*
X2438400Y-8001000I431800J0D01*
G01*
X6563200Y-2006600D02*
X2438400Y-2006600D01*
X6995000Y-7569200D02*
X6995000Y-2438400D01*
X2438400Y-8001000D02*
X6563200Y-8001000D01*
X6563200Y-8001000D02*
G75*
G03*
X6995000Y-7569200I0J431800D01*
G01*
D11*
D10*
X2230200Y-5725400D02*
X2260200Y-5755400D01*
X2260200Y-5725400D02*
X2230200Y-5755400D01*
X2448800Y-4186160D02*
X2478800Y-4216160D01*
X2478800Y-4186160D02*
X2448800Y-4216160D01*
X2839800Y-3795000D02*
X2869800Y-3825000D01*
X2869800Y-3795000D02*
X2839800Y-3825000D01*
X2982200Y-4506200D02*
X3012200Y-4536200D01*
X3012200Y-4506200D02*
X2982200Y-4536200D01*
X2982200Y-5623800D02*
X3012200Y-5653800D01*
X3012200Y-5623800D02*
X2982200Y-5653800D01*
X3160000Y-6004800D02*
X3190000Y-6034800D01*
X3190000Y-6004800D02*
X3160000Y-6034800D01*
X3182700Y-5446000D02*
X3212700Y-5476000D01*
X3212700Y-5446000D02*
X3182700Y-5476000D01*
X3236200Y-3325100D02*
X3266200Y-3355100D01*
X3266200Y-3325100D02*
X3236200Y-3355100D01*
X3373200Y-4150600D02*
X3403200Y-4180600D01*
X3403200Y-4150600D02*
X3373200Y-4180600D01*
X3429240Y-6589000D02*
X3459240Y-6619000D01*
X3459240Y-6589000D02*
X3429240Y-6619000D01*
X3541000Y-6589000D02*
X3571000Y-6619000D01*
X3571000Y-6589000D02*
X3541000Y-6619000D01*
X3881200Y-4480800D02*
X3911200Y-4510800D01*
X3911200Y-4480800D02*
X3881200Y-4510800D01*
X3906600Y-3515600D02*
X3936600Y-3545600D01*
X3936600Y-3515600D02*
X3906600Y-3545600D01*
X3906600Y-3642600D02*
X3936600Y-3672600D01*
X3936600Y-3642600D02*
X3906600Y-3672600D01*
X3906600Y-4188700D02*
X3936600Y-4218700D01*
X3936600Y-4188700D02*
X3906600Y-4218700D01*
X3909251Y-4350250D02*
X3939251Y-4380250D01*
X3939251Y-4350250D02*
X3909251Y-4380250D01*
X3932000Y-3896600D02*
X3962000Y-3926600D01*
X3962000Y-3896600D02*
X3932000Y-3926600D01*
X3969600Y-4938000D02*
X3999600Y-4968000D01*
X3999600Y-4938000D02*
X3969600Y-4968000D01*
X4059000Y-4607800D02*
X4089000Y-4637800D01*
X4089000Y-4607800D02*
X4059000Y-4637800D01*
X4150600Y-5471400D02*
X4180600Y-5501400D01*
X4180600Y-5471400D02*
X4150600Y-5501400D01*
X4176000Y-6792200D02*
X4206000Y-6822200D01*
X4206000Y-6792200D02*
X4176000Y-6822200D01*
X4176000Y-6995400D02*
X4206000Y-7025400D01*
X4206000Y-6995400D02*
X4176000Y-7025400D01*
X4186000Y-3083800D02*
X4216000Y-3113800D01*
X4216000Y-3083800D02*
X4186000Y-3113800D01*
X4211400Y-4099800D02*
X4241400Y-4129800D01*
X4241400Y-4099800D02*
X4211400Y-4129800D01*
X4211400Y-4607800D02*
X4241400Y-4637800D01*
X4241400Y-4607800D02*
X4211400Y-4637800D01*
X4275950Y-6792200D02*
X4305950Y-6822200D01*
X4305950Y-6792200D02*
X4275950Y-6822200D01*
X4287760Y-6990320D02*
X4317760Y-7020320D01*
X4317760Y-6990320D02*
X4287760Y-7020320D01*
X4300300Y-2931400D02*
X4330300Y-2961400D01*
X4330300Y-2931400D02*
X4300300Y-2961400D01*
X4313000Y-3718800D02*
X4343000Y-3748800D01*
X4343000Y-3718800D02*
X4313000Y-3748800D01*
X4338400Y-3845800D02*
X4368400Y-3875800D01*
X4368400Y-3845800D02*
X4338400Y-3875800D01*
X4389200Y-5205550D02*
X4419200Y-5235550D01*
X4419200Y-5205550D02*
X4389200Y-5235550D01*
X4389200Y-6944600D02*
X4419200Y-6974600D01*
X4419200Y-6944600D02*
X4389200Y-6974600D01*
X4480750Y-3718800D02*
X4510750Y-3748800D01*
X4510750Y-3718800D02*
X4480750Y-3748800D01*
X4480750Y-3845800D02*
X4510750Y-3875800D01*
X4510750Y-3845800D02*
X4480750Y-3875800D01*
X4490800Y-3414000D02*
X4520800Y-3444000D01*
X4520800Y-3414000D02*
X4490800Y-3444000D01*
X4490800Y-4277600D02*
X4520800Y-4307600D01*
X4520800Y-4277600D02*
X4490800Y-4307600D01*
X4511280Y-5232640D02*
X4541280Y-5262640D01*
X4541280Y-5232640D02*
X4511280Y-5262640D01*
X4628120Y-4338560D02*
X4658120Y-4368560D01*
X4658120Y-4338560D02*
X4628120Y-4368560D01*
X4630500Y-5306300D02*
X4660500Y-5336300D01*
X4660500Y-5306300D02*
X4630500Y-5336300D01*
X4770200Y-4404600D02*
X4800200Y-4434600D01*
X4800200Y-4404600D02*
X4770200Y-4434600D01*
X4775440Y-4089640D02*
X4805440Y-4119640D01*
X4805440Y-4089640D02*
X4775440Y-4119640D01*
X4851640Y-3099040D02*
X4881640Y-3129040D01*
X4881640Y-3099040D02*
X4851640Y-3129040D01*
X4871800Y-3541000D02*
X4901800Y-3571000D01*
X4901800Y-3541000D02*
X4871800Y-3571000D01*
X4877040Y-3408920D02*
X4907040Y-3438920D01*
X4907040Y-3408920D02*
X4877040Y-3438920D01*
X4934450Y-6525500D02*
X4964450Y-6555500D01*
X4964450Y-6525500D02*
X4934450Y-6555500D01*
X4998800Y-3388600D02*
X5028800Y-3418600D01*
X5028800Y-3388600D02*
X4998800Y-3418600D01*
X4998800Y-4963400D02*
X5028800Y-4993400D01*
X5028800Y-4963400D02*
X4998800Y-4993400D01*
X4998800Y-5369800D02*
X5028800Y-5399800D01*
X5028800Y-5369800D02*
X4998800Y-5399800D01*
X5042206Y-6520486D02*
X5072206Y-6550486D01*
X5072206Y-6520486D02*
X5042206Y-6550486D01*
X5049600Y-4125200D02*
X5079600Y-4155200D01*
X5079600Y-4125200D02*
X5049600Y-4155200D01*
X5065850Y-5623800D02*
X5095850Y-5653800D01*
X5095850Y-5623800D02*
X5065850Y-5653800D01*
X5068650Y-4614150D02*
X5098650Y-4644150D01*
X5098650Y-4614150D02*
X5068650Y-4644150D01*
X5075000Y-4404600D02*
X5105000Y-4434600D01*
X5105000Y-4404600D02*
X5075000Y-4434600D01*
X5090400Y-3104120D02*
X5120400Y-3134120D01*
X5120400Y-3104120D02*
X5090400Y-3134120D01*
X5125800Y-6690600D02*
X5155800Y-6720600D01*
X5155800Y-6690600D02*
X5125800Y-6720600D01*
X5161520Y-5222480D02*
X5191520Y-5252480D01*
X5191520Y-5222480D02*
X5161520Y-5252480D01*
X5163900Y-5573000D02*
X5193900Y-5603000D01*
X5193900Y-5573000D02*
X5163900Y-5603000D01*
X5204700Y-3315950D02*
X5234700Y-3345950D01*
X5234700Y-3315950D02*
X5204700Y-3345950D01*
X5222480Y-4496040D02*
X5252480Y-4526040D01*
X5252480Y-4496040D02*
X5222480Y-4526040D01*
X5227400Y-3947400D02*
X5257400Y-3977400D01*
X5257400Y-3947400D02*
X5227400Y-3977400D01*
X5227400Y-4201400D02*
X5257400Y-4231400D01*
X5257400Y-4201400D02*
X5227400Y-4231400D01*
X5252800Y-5141200D02*
X5282800Y-5171200D01*
X5282800Y-5141200D02*
X5252800Y-5171200D01*
X5278200Y-4404600D02*
X5308200Y-4434600D01*
X5308200Y-4404600D02*
X5278200Y-4434600D01*
X5532200Y-5534900D02*
X5562200Y-5564900D01*
X5562200Y-5534900D02*
X5532200Y-5564900D01*
X5547600Y-3007600D02*
X5577600Y-3037600D01*
X5577600Y-3007600D02*
X5547600Y-3037600D01*
X5555955Y-5206591D02*
X5585955Y-5236591D01*
X5585955Y-5206591D02*
X5555955Y-5236591D01*
X5623800Y-3668000D02*
X5653800Y-3698000D01*
X5653800Y-3668000D02*
X5623800Y-3698000D01*
X5623800Y-3896600D02*
X5653800Y-3926600D01*
X5653800Y-3896600D02*
X5623800Y-3926600D01*
X5623800Y-4099800D02*
X5653800Y-4129800D01*
X5653800Y-4099800D02*
X5623800Y-4129800D01*
X5633960Y-5319000D02*
X5663960Y-5349000D01*
X5663960Y-5319000D02*
X5633960Y-5349000D01*
X5669520Y-3454640D02*
X5699520Y-3484640D01*
X5699520Y-3454640D02*
X5669520Y-3484640D01*
X5710000Y-4658600D02*
X5740000Y-4688600D01*
X5740000Y-4658600D02*
X5710000Y-4688600D01*
X5712700Y-5204700D02*
X5742700Y-5234700D01*
X5742700Y-5204700D02*
X5712700Y-5234700D01*
X5725400Y-3134600D02*
X5755400Y-3164600D01*
X5755400Y-3134600D02*
X5725400Y-3164600D01*
X5725400Y-4264900D02*
X5755400Y-4294900D01*
X5755400Y-4264900D02*
X5725400Y-4294900D01*
X5801600Y-4861800D02*
X5831600Y-4891800D01*
X5831600Y-4861800D02*
X5801600Y-4891800D01*
X5837000Y-5623800D02*
X5867000Y-5653800D01*
X5867000Y-5623800D02*
X5837000Y-5653800D01*
X5887800Y-3287000D02*
X5917800Y-3317000D01*
X5917800Y-3287000D02*
X5887800Y-3317000D01*
X5903200Y-3007600D02*
X5933200Y-3037600D01*
X5933200Y-3007600D02*
X5903200Y-3037600D01*
X5903200Y-4518900D02*
X5933200Y-4548900D01*
X5933200Y-4518900D02*
X5903200Y-4548900D01*
X5915900Y-5204700D02*
X5945900Y-5234700D01*
X5945900Y-5204700D02*
X5915900Y-5234700D01*
X5954000Y-5903200D02*
X5984000Y-5933200D01*
X5984000Y-5903200D02*
X5954000Y-5933200D01*
X5979400Y-4315700D02*
X6009400Y-4345700D01*
X6009400Y-4315700D02*
X5979400Y-4345700D01*
X2562100Y-6082600D02*
G75*
G03*
X2562100Y-6082600I-47500J0D01*
G01*
X2562100Y-6332600D02*
G75*
G03*
X2562100Y-6332600I-47500J0D01*
G01*
X2562100Y-6582600D02*
G75*
G03*
X2562100Y-6582600I-47500J0D01*
G01*
X2562100Y-6832600D02*
G75*
G03*
X2562100Y-6832600I-47500J0D01*
G01*
X2587500Y-4864100D02*
G75*
G03*
X2587500Y-4864100I-47500J0D01*
G01*
X2587500Y-5114100D02*
G75*
G03*
X2587500Y-5114100I-47500J0D01*
G01*
X2587500Y-5364100D02*
G75*
G03*
X2587500Y-5364100I-47500J0D01*
G01*
X4743100Y-7467600D02*
G75*
G03*
X4743100Y-7467600I-47500J0D01*
G01*
X4993100Y-7467600D02*
G75*
G03*
X4993100Y-7467600I-47500J0D01*
G01*
X5243100Y-7467600D02*
G75*
G03*
X5243100Y-7467600I-47500J0D01*
G01*
X5493100Y-7467600D02*
G75*
G03*
X5493100Y-7467600I-47500J0D01*
G01*
X5743100Y-7467600D02*
G75*
G03*
X5743100Y-7467600I-47500J0D01*
G01*
X2540000Y-3099600D02*
X2540000Y-3199600D01*
X2490000Y-3149600D02*
X2590000Y-3149600D01*
X2540000Y-3349600D02*
X2540000Y-3449600D01*
X2490000Y-3399600D02*
X2590000Y-3399600D01*
X3225800Y-7417600D02*
X3225800Y-7517600D01*
X3175800Y-7467600D02*
X3275800Y-7467600D01*
X3479800Y-7417600D02*
X3479800Y-7517600D01*
X3429800Y-7467600D02*
X3529800Y-7467600D01*
X3733800Y-7417600D02*
X3733800Y-7517600D01*
X3683800Y-7467600D02*
X3783800Y-7467600D01*
X3987800Y-7417600D02*
X3987800Y-7517600D01*
X3937800Y-7467600D02*
X4037800Y-7467600D01*
X4112100Y-6096800D02*
X4112100Y-6196800D01*
X4062100Y-6146800D02*
X4162100Y-6146800D01*
X4112100Y-6350800D02*
X4112100Y-6450800D01*
X4062100Y-6400800D02*
X4162100Y-6400800D01*
X6451600Y-6452400D02*
X6451600Y-6552400D01*
X6401600Y-6502400D02*
X6501600Y-6502400D01*
X6451600Y-6702400D02*
X6451600Y-6802400D01*
X6401600Y-6752400D02*
X6501600Y-6752400D01*
X6477000Y-3125000D02*
X6477000Y-3225000D01*
X6427000Y-3175000D02*
X6527000Y-3175000D01*
X6477000Y-3379000D02*
X6477000Y-3479000D01*
X6427000Y-3429000D02*
X6527000Y-3429000D01*
X6477000Y-3633000D02*
X6477000Y-3733000D01*
X6427000Y-3683000D02*
X6527000Y-3683000D01*
X6477000Y-3887000D02*
X6477000Y-3987000D01*
X6427000Y-3937000D02*
X6527000Y-3937000D01*
X6477000Y-4141000D02*
X6477000Y-4241000D01*
X6427000Y-4191000D02*
X6527000Y-4191000D01*
X6477000Y-4395000D02*
X6477000Y-4495000D01*
X6427000Y-4445000D02*
X6527000Y-4445000D01*
X6477000Y-4649000D02*
X6477000Y-4749000D01*
X6427000Y-4699000D02*
X6527000Y-4699000D01*
X6477000Y-4903000D02*
X6477000Y-5003000D01*
X6427000Y-4953000D02*
X6527000Y-4953000D01*
X6477000Y-5157000D02*
X6477000Y-5257000D01*
X6427000Y-5207000D02*
X6527000Y-5207000D01*
X6477000Y-5411000D02*
X6477000Y-5511000D01*
X6427000Y-5461000D02*
X6527000Y-5461000D01*
X6731000Y-3125000D02*
X6731000Y-3225000D01*
X6681000Y-3175000D02*
X6781000Y-3175000D01*
X6731000Y-3379000D02*
X6731000Y-3479000D01*
X6681000Y-3429000D02*
X6781000Y-3429000D01*
X6731000Y-3633000D02*
X6731000Y-3733000D01*
X6681000Y-3683000D02*
X6781000Y-3683000D01*
X6731000Y-3887000D02*
X6731000Y-3987000D01*
X6681000Y-3937000D02*
X6781000Y-3937000D01*
X6731000Y-4141000D02*
X6731000Y-4241000D01*
X6681000Y-4191000D02*
X6781000Y-4191000D01*
X6731000Y-4395000D02*
X6731000Y-4495000D01*
X6681000Y-4445000D02*
X6781000Y-4445000D01*
X6731000Y-4649000D02*
X6731000Y-4749000D01*
X6681000Y-4699000D02*
X6781000Y-4699000D01*
X6731000Y-4903000D02*
X6731000Y-5003000D01*
X6681000Y-4953000D02*
X6781000Y-4953000D01*
X6731000Y-5157000D02*
X6731000Y-5257000D01*
X6681000Y-5207000D02*
X6781000Y-5207000D01*
X6731000Y-5411000D02*
X6731000Y-5511000D01*
X6681000Y-5461000D02*
X6781000Y-5461000D01*
D11*
X2262377Y-8317484D02*
X2262377Y-8117484D01*
X2262377Y-8117484D02*
X2309996Y-8117484D01*
X2309996Y-8117484D02*
X2338567Y-8127008D01*
X2338567Y-8127008D02*
X2357615Y-8146055D01*
X2357615Y-8146055D02*
X2367139Y-8165103D01*
X2367139Y-8165103D02*
X2376663Y-8203198D01*
X2376663Y-8203198D02*
X2376663Y-8231769D01*
X2376663Y-8231769D02*
X2367139Y-8269865D01*
X2367139Y-8269865D02*
X2357615Y-8288912D01*
X2357615Y-8288912D02*
X2338567Y-8307960D01*
X2338567Y-8307960D02*
X2309996Y-8317484D01*
X2309996Y-8317484D02*
X2262377Y-8317484D01*
X2462377Y-8317484D02*
X2462377Y-8184150D01*
X2462377Y-8222246D02*
X2471901Y-8203198D01*
X2471901Y-8203198D02*
X2481424Y-8193674D01*
X2481424Y-8193674D02*
X2500472Y-8184150D01*
X2500472Y-8184150D02*
X2519520Y-8184150D01*
X2586186Y-8317484D02*
X2586186Y-8184150D01*
X2586186Y-8117484D02*
X2576663Y-8127008D01*
X2576663Y-8127008D02*
X2586186Y-8136531D01*
X2586186Y-8136531D02*
X2595710Y-8127008D01*
X2595710Y-8127008D02*
X2586186Y-8117484D01*
X2586186Y-8117484D02*
X2586186Y-8136531D01*
X2709996Y-8317484D02*
X2690948Y-8307960D01*
X2690948Y-8307960D02*
X2681424Y-8288912D01*
X2681424Y-8288912D02*
X2681424Y-8117484D01*
X2814758Y-8317484D02*
X2795710Y-8307960D01*
X2795710Y-8307960D02*
X2786186Y-8288912D01*
X2786186Y-8288912D02*
X2786186Y-8117484D01*
X3043329Y-8317484D02*
X3043329Y-8117484D01*
X3043329Y-8117484D02*
X3109996Y-8260341D01*
X3109996Y-8260341D02*
X3176662Y-8117484D01*
X3176662Y-8117484D02*
X3176662Y-8317484D01*
X3357615Y-8317484D02*
X3357615Y-8212722D01*
X3357615Y-8212722D02*
X3348091Y-8193674D01*
X3348091Y-8193674D02*
X3329043Y-8184150D01*
X3329043Y-8184150D02*
X3290948Y-8184150D01*
X3290948Y-8184150D02*
X3271901Y-8193674D01*
X3357615Y-8307960D02*
X3338567Y-8317484D01*
X3338567Y-8317484D02*
X3290948Y-8317484D01*
X3290948Y-8317484D02*
X3271901Y-8307960D01*
X3271901Y-8307960D02*
X3262377Y-8288912D01*
X3262377Y-8288912D02*
X3262377Y-8269865D01*
X3262377Y-8269865D02*
X3271901Y-8250817D01*
X3271901Y-8250817D02*
X3290948Y-8241293D01*
X3290948Y-8241293D02*
X3338567Y-8241293D01*
X3338567Y-8241293D02*
X3357615Y-8231769D01*
X3452853Y-8184150D02*
X3452853Y-8384150D01*
X3452853Y-8193674D02*
X3471901Y-8184150D01*
X3471901Y-8184150D02*
X3509996Y-8184150D01*
X3509996Y-8184150D02*
X3529043Y-8193674D01*
X3529043Y-8193674D02*
X3538567Y-8203198D01*
X3538567Y-8203198D02*
X3548091Y-8222246D01*
X3548091Y-8222246D02*
X3548091Y-8279388D01*
X3548091Y-8279388D02*
X3538567Y-8298436D01*
X3538567Y-8298436D02*
X3529043Y-8307960D01*
X3529043Y-8307960D02*
X3509996Y-8317484D01*
X3509996Y-8317484D02*
X3471901Y-8317484D01*
X3471901Y-8317484D02*
X3452853Y-8307960D01*
X3633805Y-8298436D02*
X3643329Y-8307960D01*
X3643329Y-8307960D02*
X3633805Y-8317484D01*
X3633805Y-8317484D02*
X3624282Y-8307960D01*
X3624282Y-8307960D02*
X3633805Y-8298436D01*
X3633805Y-8298436D02*
X3633805Y-8317484D01*
X3633805Y-8193674D02*
X3643329Y-8203198D01*
X3643329Y-8203198D02*
X3633805Y-8212722D01*
X3633805Y-8212722D02*
X3624282Y-8203198D01*
X3624282Y-8203198D02*
X3633805Y-8193674D01*
X3633805Y-8193674D02*
X3633805Y-8212722D01*
D10*
X1971600Y-8631000D02*
X2001600Y-8661000D01*
X2001600Y-8631000D02*
X1971600Y-8661000D01*
D11*
X2300472Y-8537484D02*
X2319520Y-8537484D01*
X2319520Y-8537484D02*
X2338567Y-8547008D01*
X2338567Y-8547008D02*
X2348091Y-8556531D01*
X2348091Y-8556531D02*
X2357615Y-8575579D01*
X2357615Y-8575579D02*
X2367139Y-8613674D01*
X2367139Y-8613674D02*
X2367139Y-8661293D01*
X2367139Y-8661293D02*
X2357615Y-8699389D01*
X2357615Y-8699389D02*
X2348091Y-8718436D01*
X2348091Y-8718436D02*
X2338567Y-8727960D01*
X2338567Y-8727960D02*
X2319520Y-8737484D01*
X2319520Y-8737484D02*
X2300472Y-8737484D01*
X2300472Y-8737484D02*
X2281424Y-8727960D01*
X2281424Y-8727960D02*
X2271901Y-8718436D01*
X2271901Y-8718436D02*
X2262377Y-8699389D01*
X2262377Y-8699389D02*
X2252853Y-8661293D01*
X2252853Y-8661293D02*
X2252853Y-8613674D01*
X2252853Y-8613674D02*
X2262377Y-8575579D01*
X2262377Y-8575579D02*
X2271901Y-8556531D01*
X2271901Y-8556531D02*
X2281424Y-8547008D01*
X2281424Y-8547008D02*
X2300472Y-8537484D01*
X2452853Y-8718436D02*
X2462377Y-8727960D01*
X2462377Y-8727960D02*
X2452853Y-8737484D01*
X2452853Y-8737484D02*
X2443329Y-8727960D01*
X2443329Y-8727960D02*
X2452853Y-8718436D01*
X2452853Y-8718436D02*
X2452853Y-8737484D01*
X2529044Y-8537484D02*
X2652853Y-8537484D01*
X2652853Y-8537484D02*
X2586186Y-8613674D01*
X2586186Y-8613674D02*
X2614758Y-8613674D01*
X2614758Y-8613674D02*
X2633805Y-8623198D01*
X2633805Y-8623198D02*
X2643329Y-8632722D01*
X2643329Y-8632722D02*
X2652853Y-8651770D01*
X2652853Y-8651770D02*
X2652853Y-8699389D01*
X2652853Y-8699389D02*
X2643329Y-8718436D01*
X2643329Y-8718436D02*
X2633805Y-8727960D01*
X2633805Y-8727960D02*
X2614758Y-8737484D01*
X2614758Y-8737484D02*
X2557615Y-8737484D01*
X2557615Y-8737484D02*
X2538567Y-8727960D01*
X2538567Y-8727960D02*
X2529044Y-8718436D01*
X2776663Y-8537484D02*
X2795710Y-8537484D01*
X2795710Y-8537484D02*
X2814758Y-8547008D01*
X2814758Y-8547008D02*
X2824282Y-8556531D01*
X2824282Y-8556531D02*
X2833805Y-8575579D01*
X2833805Y-8575579D02*
X2843329Y-8613674D01*
X2843329Y-8613674D02*
X2843329Y-8661293D01*
X2843329Y-8661293D02*
X2833805Y-8699389D01*
X2833805Y-8699389D02*
X2824282Y-8718436D01*
X2824282Y-8718436D02*
X2814758Y-8727960D01*
X2814758Y-8727960D02*
X2795710Y-8737484D01*
X2795710Y-8737484D02*
X2776663Y-8737484D01*
X2776663Y-8737484D02*
X2757615Y-8727960D01*
X2757615Y-8727960D02*
X2748091Y-8718436D01*
X2748091Y-8718436D02*
X2738567Y-8699389D01*
X2738567Y-8699389D02*
X2729044Y-8661293D01*
X2729044Y-8661293D02*
X2729044Y-8613674D01*
X2729044Y-8613674D02*
X2738567Y-8575579D01*
X2738567Y-8575579D02*
X2748091Y-8556531D01*
X2748091Y-8556531D02*
X2757615Y-8547008D01*
X2757615Y-8547008D02*
X2776663Y-8537484D01*
X2967139Y-8537484D02*
X2986186Y-8537484D01*
X2986186Y-8537484D02*
X3005234Y-8547008D01*
X3005234Y-8547008D02*
X3014758Y-8556531D01*
X3014758Y-8556531D02*
X3024282Y-8575579D01*
X3024282Y-8575579D02*
X3033805Y-8613674D01*
X3033805Y-8613674D02*
X3033805Y-8661293D01*
X3033805Y-8661293D02*
X3024282Y-8699389D01*
X3024282Y-8699389D02*
X3014758Y-8718436D01*
X3014758Y-8718436D02*
X3005234Y-8727960D01*
X3005234Y-8727960D02*
X2986186Y-8737484D01*
X2986186Y-8737484D02*
X2967139Y-8737484D01*
X2967139Y-8737484D02*
X2948091Y-8727960D01*
X2948091Y-8727960D02*
X2938567Y-8718436D01*
X2938567Y-8718436D02*
X2929043Y-8699389D01*
X2929043Y-8699389D02*
X2919520Y-8661293D01*
X2919520Y-8661293D02*
X2919520Y-8613674D01*
X2919520Y-8613674D02*
X2929043Y-8575579D01*
X2929043Y-8575579D02*
X2938567Y-8556531D01*
X2938567Y-8556531D02*
X2948091Y-8547008D01*
X2948091Y-8547008D02*
X2967139Y-8537484D01*
X3119520Y-8737484D02*
X3119520Y-8604150D01*
X3119520Y-8623198D02*
X3129043Y-8613674D01*
X3129043Y-8613674D02*
X3148091Y-8604150D01*
X3148091Y-8604150D02*
X3176663Y-8604150D01*
X3176663Y-8604150D02*
X3195710Y-8613674D01*
X3195710Y-8613674D02*
X3205234Y-8632722D01*
X3205234Y-8632722D02*
X3205234Y-8737484D01*
X3205234Y-8632722D02*
X3214758Y-8613674D01*
X3214758Y-8613674D02*
X3233805Y-8604150D01*
X3233805Y-8604150D02*
X3262377Y-8604150D01*
X3262377Y-8604150D02*
X3281424Y-8613674D01*
X3281424Y-8613674D02*
X3290948Y-8632722D01*
X3290948Y-8632722D02*
X3290948Y-8737484D01*
X3386186Y-8737484D02*
X3386186Y-8604150D01*
X3386186Y-8623198D02*
X3395710Y-8613674D01*
X3395710Y-8613674D02*
X3414758Y-8604150D01*
X3414758Y-8604150D02*
X3443329Y-8604150D01*
X3443329Y-8604150D02*
X3462377Y-8613674D01*
X3462377Y-8613674D02*
X3471901Y-8632722D01*
X3471901Y-8632722D02*
X3471901Y-8737484D01*
X3471901Y-8632722D02*
X3481424Y-8613674D01*
X3481424Y-8613674D02*
X3500472Y-8604150D01*
X3500472Y-8604150D02*
X3529043Y-8604150D01*
X3529043Y-8604150D02*
X3548091Y-8613674D01*
X3548091Y-8613674D02*
X3557615Y-8632722D01*
X3557615Y-8632722D02*
X3557615Y-8737484D01*
X3948091Y-8527960D02*
X3776663Y-8785103D01*
X4205234Y-8537484D02*
X4224282Y-8537484D01*
X4224282Y-8537484D02*
X4243329Y-8547008D01*
X4243329Y-8547008D02*
X4252853Y-8556531D01*
X4252853Y-8556531D02*
X4262377Y-8575579D01*
X4262377Y-8575579D02*
X4271901Y-8613674D01*
X4271901Y-8613674D02*
X4271901Y-8661293D01*
X4271901Y-8661293D02*
X4262377Y-8699389D01*
X4262377Y-8699389D02*
X4252853Y-8718436D01*
X4252853Y-8718436D02*
X4243329Y-8727960D01*
X4243329Y-8727960D02*
X4224282Y-8737484D01*
X4224282Y-8737484D02*
X4205234Y-8737484D01*
X4205234Y-8737484D02*
X4186186Y-8727960D01*
X4186186Y-8727960D02*
X4176663Y-8718436D01*
X4176663Y-8718436D02*
X4167139Y-8699389D01*
X4167139Y-8699389D02*
X4157615Y-8661293D01*
X4157615Y-8661293D02*
X4157615Y-8613674D01*
X4157615Y-8613674D02*
X4167139Y-8575579D01*
X4167139Y-8575579D02*
X4176663Y-8556531D01*
X4176663Y-8556531D02*
X4186186Y-8547008D01*
X4186186Y-8547008D02*
X4205234Y-8537484D01*
X4357615Y-8718436D02*
X4367139Y-8727960D01*
X4367139Y-8727960D02*
X4357615Y-8737484D01*
X4357615Y-8737484D02*
X4348091Y-8727960D01*
X4348091Y-8727960D02*
X4357615Y-8718436D01*
X4357615Y-8718436D02*
X4357615Y-8737484D01*
X4490948Y-8537484D02*
X4509996Y-8537484D01*
X4509996Y-8537484D02*
X4529044Y-8547008D01*
X4529044Y-8547008D02*
X4538568Y-8556531D01*
X4538568Y-8556531D02*
X4548091Y-8575579D01*
X4548091Y-8575579D02*
X4557615Y-8613674D01*
X4557615Y-8613674D02*
X4557615Y-8661293D01*
X4557615Y-8661293D02*
X4548091Y-8699389D01*
X4548091Y-8699389D02*
X4538568Y-8718436D01*
X4538568Y-8718436D02*
X4529044Y-8727960D01*
X4529044Y-8727960D02*
X4509996Y-8737484D01*
X4509996Y-8737484D02*
X4490948Y-8737484D01*
X4490948Y-8737484D02*
X4471901Y-8727960D01*
X4471901Y-8727960D02*
X4462377Y-8718436D01*
X4462377Y-8718436D02*
X4452853Y-8699389D01*
X4452853Y-8699389D02*
X4443329Y-8661293D01*
X4443329Y-8661293D02*
X4443329Y-8613674D01*
X4443329Y-8613674D02*
X4452853Y-8575579D01*
X4452853Y-8575579D02*
X4462377Y-8556531D01*
X4462377Y-8556531D02*
X4471901Y-8547008D01*
X4471901Y-8547008D02*
X4490948Y-8537484D01*
X4748091Y-8737484D02*
X4633806Y-8737484D01*
X4690948Y-8737484D02*
X4690948Y-8537484D01*
X4690948Y-8537484D02*
X4671901Y-8566055D01*
X4671901Y-8566055D02*
X4652853Y-8585103D01*
X4652853Y-8585103D02*
X4633806Y-8594627D01*
X4938568Y-8737484D02*
X4824282Y-8737484D01*
X4881425Y-8737484D02*
X4881425Y-8537484D01*
X4881425Y-8537484D02*
X4862377Y-8566055D01*
X4862377Y-8566055D02*
X4843329Y-8585103D01*
X4843329Y-8585103D02*
X4824282Y-8594627D01*
X5052853Y-8623198D02*
X5033806Y-8613674D01*
X5033806Y-8613674D02*
X5024282Y-8604150D01*
X5024282Y-8604150D02*
X5014758Y-8585103D01*
X5014758Y-8585103D02*
X5014758Y-8575579D01*
X5014758Y-8575579D02*
X5024282Y-8556531D01*
X5024282Y-8556531D02*
X5033806Y-8547008D01*
X5033806Y-8547008D02*
X5052853Y-8537484D01*
X5052853Y-8537484D02*
X5090949Y-8537484D01*
X5090949Y-8537484D02*
X5109996Y-8547008D01*
X5109996Y-8547008D02*
X5119520Y-8556531D01*
X5119520Y-8556531D02*
X5129044Y-8575579D01*
X5129044Y-8575579D02*
X5129044Y-8585103D01*
X5129044Y-8585103D02*
X5119520Y-8604150D01*
X5119520Y-8604150D02*
X5109996Y-8613674D01*
X5109996Y-8613674D02*
X5090949Y-8623198D01*
X5090949Y-8623198D02*
X5052853Y-8623198D01*
X5052853Y-8623198D02*
X5033806Y-8632722D01*
X5033806Y-8632722D02*
X5024282Y-8642246D01*
X5024282Y-8642246D02*
X5014758Y-8661293D01*
X5014758Y-8661293D02*
X5014758Y-8699389D01*
X5014758Y-8699389D02*
X5024282Y-8718436D01*
X5024282Y-8718436D02*
X5033806Y-8727960D01*
X5033806Y-8727960D02*
X5052853Y-8737484D01*
X5052853Y-8737484D02*
X5090949Y-8737484D01*
X5090949Y-8737484D02*
X5109996Y-8727960D01*
X5109996Y-8727960D02*
X5119520Y-8718436D01*
X5119520Y-8718436D02*
X5129044Y-8699389D01*
X5129044Y-8699389D02*
X5129044Y-8661293D01*
X5129044Y-8661293D02*
X5119520Y-8642246D01*
X5119520Y-8642246D02*
X5109996Y-8632722D01*
X5109996Y-8632722D02*
X5090949Y-8623198D01*
X5205234Y-8537484D02*
X5205234Y-8575579D01*
X5281425Y-8537484D02*
X5281425Y-8575579D01*
X5576663Y-8813674D02*
X5567139Y-8804150D01*
X5567139Y-8804150D02*
X5548091Y-8775579D01*
X5548091Y-8775579D02*
X5538568Y-8756531D01*
X5538568Y-8756531D02*
X5529044Y-8727960D01*
X5529044Y-8727960D02*
X5519520Y-8680341D01*
X5519520Y-8680341D02*
X5519520Y-8642246D01*
X5519520Y-8642246D02*
X5529044Y-8594627D01*
X5529044Y-8594627D02*
X5538568Y-8566055D01*
X5538568Y-8566055D02*
X5548091Y-8547008D01*
X5548091Y-8547008D02*
X5567139Y-8518436D01*
X5567139Y-8518436D02*
X5576663Y-8508912D01*
X5681425Y-8623198D02*
X5662377Y-8613674D01*
X5662377Y-8613674D02*
X5652853Y-8604150D01*
X5652853Y-8604150D02*
X5643329Y-8585103D01*
X5643329Y-8585103D02*
X5643329Y-8575579D01*
X5643329Y-8575579D02*
X5652853Y-8556531D01*
X5652853Y-8556531D02*
X5662377Y-8547008D01*
X5662377Y-8547008D02*
X5681425Y-8537484D01*
X5681425Y-8537484D02*
X5719520Y-8537484D01*
X5719520Y-8537484D02*
X5738568Y-8547008D01*
X5738568Y-8547008D02*
X5748091Y-8556531D01*
X5748091Y-8556531D02*
X5757615Y-8575579D01*
X5757615Y-8575579D02*
X5757615Y-8585103D01*
X5757615Y-8585103D02*
X5748091Y-8604150D01*
X5748091Y-8604150D02*
X5738568Y-8613674D01*
X5738568Y-8613674D02*
X5719520Y-8623198D01*
X5719520Y-8623198D02*
X5681425Y-8623198D01*
X5681425Y-8623198D02*
X5662377Y-8632722D01*
X5662377Y-8632722D02*
X5652853Y-8642246D01*
X5652853Y-8642246D02*
X5643329Y-8661293D01*
X5643329Y-8661293D02*
X5643329Y-8699389D01*
X5643329Y-8699389D02*
X5652853Y-8718436D01*
X5652853Y-8718436D02*
X5662377Y-8727960D01*
X5662377Y-8727960D02*
X5681425Y-8737484D01*
X5681425Y-8737484D02*
X5719520Y-8737484D01*
X5719520Y-8737484D02*
X5738568Y-8727960D01*
X5738568Y-8727960D02*
X5748091Y-8718436D01*
X5748091Y-8718436D02*
X5757615Y-8699389D01*
X5757615Y-8699389D02*
X5757615Y-8661293D01*
X5757615Y-8661293D02*
X5748091Y-8642246D01*
X5748091Y-8642246D02*
X5738568Y-8632722D01*
X5738568Y-8632722D02*
X5719520Y-8623198D01*
X5824282Y-8537484D02*
X5948091Y-8537484D01*
X5948091Y-8537484D02*
X5881425Y-8613674D01*
X5881425Y-8613674D02*
X5909996Y-8613674D01*
X5909996Y-8613674D02*
X5929044Y-8623198D01*
X5929044Y-8623198D02*
X5938568Y-8632722D01*
X5938568Y-8632722D02*
X5948091Y-8651770D01*
X5948091Y-8651770D02*
X5948091Y-8699389D01*
X5948091Y-8699389D02*
X5938568Y-8718436D01*
X5938568Y-8718436D02*
X5929044Y-8727960D01*
X5929044Y-8727960D02*
X5909996Y-8737484D01*
X5909996Y-8737484D02*
X5852853Y-8737484D01*
X5852853Y-8737484D02*
X5833806Y-8727960D01*
X5833806Y-8727960D02*
X5824282Y-8718436D01*
X6186187Y-8737484D02*
X6186187Y-8537484D01*
X6271901Y-8737484D02*
X6271901Y-8632722D01*
X6271901Y-8632722D02*
X6262377Y-8613674D01*
X6262377Y-8613674D02*
X6243330Y-8604150D01*
X6243330Y-8604150D02*
X6214758Y-8604150D01*
X6214758Y-8604150D02*
X6195710Y-8613674D01*
X6195710Y-8613674D02*
X6186187Y-8623198D01*
X6395710Y-8737484D02*
X6376663Y-8727960D01*
X6376663Y-8727960D02*
X6367139Y-8718436D01*
X6367139Y-8718436D02*
X6357615Y-8699389D01*
X6357615Y-8699389D02*
X6357615Y-8642246D01*
X6357615Y-8642246D02*
X6367139Y-8623198D01*
X6367139Y-8623198D02*
X6376663Y-8613674D01*
X6376663Y-8613674D02*
X6395710Y-8604150D01*
X6395710Y-8604150D02*
X6424282Y-8604150D01*
X6424282Y-8604150D02*
X6443330Y-8613674D01*
X6443330Y-8613674D02*
X6452853Y-8623198D01*
X6452853Y-8623198D02*
X6462377Y-8642246D01*
X6462377Y-8642246D02*
X6462377Y-8699389D01*
X6462377Y-8699389D02*
X6452853Y-8718436D01*
X6452853Y-8718436D02*
X6443330Y-8727960D01*
X6443330Y-8727960D02*
X6424282Y-8737484D01*
X6424282Y-8737484D02*
X6395710Y-8737484D01*
X6576663Y-8737484D02*
X6557615Y-8727960D01*
X6557615Y-8727960D02*
X6548091Y-8708912D01*
X6548091Y-8708912D02*
X6548091Y-8537484D01*
X6729044Y-8727960D02*
X6709996Y-8737484D01*
X6709996Y-8737484D02*
X6671901Y-8737484D01*
X6671901Y-8737484D02*
X6652853Y-8727960D01*
X6652853Y-8727960D02*
X6643330Y-8708912D01*
X6643330Y-8708912D02*
X6643330Y-8632722D01*
X6643330Y-8632722D02*
X6652853Y-8613674D01*
X6652853Y-8613674D02*
X6671901Y-8604150D01*
X6671901Y-8604150D02*
X6709996Y-8604150D01*
X6709996Y-8604150D02*
X6729044Y-8613674D01*
X6729044Y-8613674D02*
X6738568Y-8632722D01*
X6738568Y-8632722D02*
X6738568Y-8651770D01*
X6738568Y-8651770D02*
X6643330Y-8670817D01*
X6814758Y-8727960D02*
X6833806Y-8737484D01*
X6833806Y-8737484D02*
X6871901Y-8737484D01*
X6871901Y-8737484D02*
X6890949Y-8727960D01*
X6890949Y-8727960D02*
X6900472Y-8708912D01*
X6900472Y-8708912D02*
X6900472Y-8699389D01*
X6900472Y-8699389D02*
X6890949Y-8680341D01*
X6890949Y-8680341D02*
X6871901Y-8670817D01*
X6871901Y-8670817D02*
X6843330Y-8670817D01*
X6843330Y-8670817D02*
X6824282Y-8661293D01*
X6824282Y-8661293D02*
X6814758Y-8642246D01*
X6814758Y-8642246D02*
X6814758Y-8632722D01*
X6814758Y-8632722D02*
X6824282Y-8613674D01*
X6824282Y-8613674D02*
X6843330Y-8604150D01*
X6843330Y-8604150D02*
X6871901Y-8604150D01*
X6871901Y-8604150D02*
X6890949Y-8613674D01*
X6967139Y-8813674D02*
X6976663Y-8804150D01*
X6976663Y-8804150D02*
X6995711Y-8775579D01*
X6995711Y-8775579D02*
X7005234Y-8756531D01*
X7005234Y-8756531D02*
X7014758Y-8727960D01*
X7014758Y-8727960D02*
X7024282Y-8680341D01*
X7024282Y-8680341D02*
X7024282Y-8642246D01*
X7024282Y-8642246D02*
X7014758Y-8594627D01*
X7014758Y-8594627D02*
X7005234Y-8566055D01*
X7005234Y-8566055D02*
X6995711Y-8547008D01*
X6995711Y-8547008D02*
X6976663Y-8518436D01*
X6976663Y-8518436D02*
X6967139Y-8508912D01*
D10*
X2001600Y-8910000D02*
G75*
G03*
X2001600Y-8910000I-47500J0D01*
G01*
D11*
X2300472Y-8801484D02*
X2319520Y-8801484D01*
X2319520Y-8801484D02*
X2338567Y-8811008D01*
X2338567Y-8811008D02*
X2348091Y-8820531D01*
X2348091Y-8820531D02*
X2357615Y-8839579D01*
X2357615Y-8839579D02*
X2367139Y-8877674D01*
X2367139Y-8877674D02*
X2367139Y-8925293D01*
X2367139Y-8925293D02*
X2357615Y-8963389D01*
X2357615Y-8963389D02*
X2348091Y-8982436D01*
X2348091Y-8982436D02*
X2338567Y-8991960D01*
X2338567Y-8991960D02*
X2319520Y-9001484D01*
X2319520Y-9001484D02*
X2300472Y-9001484D01*
X2300472Y-9001484D02*
X2281424Y-8991960D01*
X2281424Y-8991960D02*
X2271901Y-8982436D01*
X2271901Y-8982436D02*
X2262377Y-8963389D01*
X2262377Y-8963389D02*
X2252853Y-8925293D01*
X2252853Y-8925293D02*
X2252853Y-8877674D01*
X2252853Y-8877674D02*
X2262377Y-8839579D01*
X2262377Y-8839579D02*
X2271901Y-8820531D01*
X2271901Y-8820531D02*
X2281424Y-8811008D01*
X2281424Y-8811008D02*
X2300472Y-8801484D01*
X2452853Y-8982436D02*
X2462377Y-8991960D01*
X2462377Y-8991960D02*
X2452853Y-9001484D01*
X2452853Y-9001484D02*
X2443329Y-8991960D01*
X2443329Y-8991960D02*
X2452853Y-8982436D01*
X2452853Y-8982436D02*
X2452853Y-9001484D01*
X2557615Y-9001484D02*
X2595710Y-9001484D01*
X2595710Y-9001484D02*
X2614758Y-8991960D01*
X2614758Y-8991960D02*
X2624282Y-8982436D01*
X2624282Y-8982436D02*
X2643329Y-8953865D01*
X2643329Y-8953865D02*
X2652853Y-8915770D01*
X2652853Y-8915770D02*
X2652853Y-8839579D01*
X2652853Y-8839579D02*
X2643329Y-8820531D01*
X2643329Y-8820531D02*
X2633805Y-8811008D01*
X2633805Y-8811008D02*
X2614758Y-8801484D01*
X2614758Y-8801484D02*
X2576663Y-8801484D01*
X2576663Y-8801484D02*
X2557615Y-8811008D01*
X2557615Y-8811008D02*
X2548091Y-8820531D01*
X2548091Y-8820531D02*
X2538567Y-8839579D01*
X2538567Y-8839579D02*
X2538567Y-8887198D01*
X2538567Y-8887198D02*
X2548091Y-8906246D01*
X2548091Y-8906246D02*
X2557615Y-8915770D01*
X2557615Y-8915770D02*
X2576663Y-8925293D01*
X2576663Y-8925293D02*
X2614758Y-8925293D01*
X2614758Y-8925293D02*
X2633805Y-8915770D01*
X2633805Y-8915770D02*
X2643329Y-8906246D01*
X2643329Y-8906246D02*
X2652853Y-8887198D01*
X2833805Y-8801484D02*
X2738567Y-8801484D01*
X2738567Y-8801484D02*
X2729044Y-8896722D01*
X2729044Y-8896722D02*
X2738567Y-8887198D01*
X2738567Y-8887198D02*
X2757615Y-8877674D01*
X2757615Y-8877674D02*
X2805234Y-8877674D01*
X2805234Y-8877674D02*
X2824282Y-8887198D01*
X2824282Y-8887198D02*
X2833805Y-8896722D01*
X2833805Y-8896722D02*
X2843329Y-8915770D01*
X2843329Y-8915770D02*
X2843329Y-8963389D01*
X2843329Y-8963389D02*
X2833805Y-8982436D01*
X2833805Y-8982436D02*
X2824282Y-8991960D01*
X2824282Y-8991960D02*
X2805234Y-9001484D01*
X2805234Y-9001484D02*
X2757615Y-9001484D01*
X2757615Y-9001484D02*
X2738567Y-8991960D01*
X2738567Y-8991960D02*
X2729044Y-8982436D01*
X2967139Y-8801484D02*
X2986186Y-8801484D01*
X2986186Y-8801484D02*
X3005234Y-8811008D01*
X3005234Y-8811008D02*
X3014758Y-8820531D01*
X3014758Y-8820531D02*
X3024282Y-8839579D01*
X3024282Y-8839579D02*
X3033805Y-8877674D01*
X3033805Y-8877674D02*
X3033805Y-8925293D01*
X3033805Y-8925293D02*
X3024282Y-8963389D01*
X3024282Y-8963389D02*
X3014758Y-8982436D01*
X3014758Y-8982436D02*
X3005234Y-8991960D01*
X3005234Y-8991960D02*
X2986186Y-9001484D01*
X2986186Y-9001484D02*
X2967139Y-9001484D01*
X2967139Y-9001484D02*
X2948091Y-8991960D01*
X2948091Y-8991960D02*
X2938567Y-8982436D01*
X2938567Y-8982436D02*
X2929043Y-8963389D01*
X2929043Y-8963389D02*
X2919520Y-8925293D01*
X2919520Y-8925293D02*
X2919520Y-8877674D01*
X2919520Y-8877674D02*
X2929043Y-8839579D01*
X2929043Y-8839579D02*
X2938567Y-8820531D01*
X2938567Y-8820531D02*
X2948091Y-8811008D01*
X2948091Y-8811008D02*
X2967139Y-8801484D01*
X3119520Y-9001484D02*
X3119520Y-8868150D01*
X3119520Y-8887198D02*
X3129043Y-8877674D01*
X3129043Y-8877674D02*
X3148091Y-8868150D01*
X3148091Y-8868150D02*
X3176663Y-8868150D01*
X3176663Y-8868150D02*
X3195710Y-8877674D01*
X3195710Y-8877674D02*
X3205234Y-8896722D01*
X3205234Y-8896722D02*
X3205234Y-9001484D01*
X3205234Y-8896722D02*
X3214758Y-8877674D01*
X3214758Y-8877674D02*
X3233805Y-8868150D01*
X3233805Y-8868150D02*
X3262377Y-8868150D01*
X3262377Y-8868150D02*
X3281424Y-8877674D01*
X3281424Y-8877674D02*
X3290948Y-8896722D01*
X3290948Y-8896722D02*
X3290948Y-9001484D01*
X3386186Y-9001484D02*
X3386186Y-8868150D01*
X3386186Y-8887198D02*
X3395710Y-8877674D01*
X3395710Y-8877674D02*
X3414758Y-8868150D01*
X3414758Y-8868150D02*
X3443329Y-8868150D01*
X3443329Y-8868150D02*
X3462377Y-8877674D01*
X3462377Y-8877674D02*
X3471901Y-8896722D01*
X3471901Y-8896722D02*
X3471901Y-9001484D01*
X3471901Y-8896722D02*
X3481424Y-8877674D01*
X3481424Y-8877674D02*
X3500472Y-8868150D01*
X3500472Y-8868150D02*
X3529043Y-8868150D01*
X3529043Y-8868150D02*
X3548091Y-8877674D01*
X3548091Y-8877674D02*
X3557615Y-8896722D01*
X3557615Y-8896722D02*
X3557615Y-9001484D01*
X3948091Y-8791960D02*
X3776663Y-9049103D01*
X4205234Y-8801484D02*
X4224282Y-8801484D01*
X4224282Y-8801484D02*
X4243329Y-8811008D01*
X4243329Y-8811008D02*
X4252853Y-8820531D01*
X4252853Y-8820531D02*
X4262377Y-8839579D01*
X4262377Y-8839579D02*
X4271901Y-8877674D01*
X4271901Y-8877674D02*
X4271901Y-8925293D01*
X4271901Y-8925293D02*
X4262377Y-8963389D01*
X4262377Y-8963389D02*
X4252853Y-8982436D01*
X4252853Y-8982436D02*
X4243329Y-8991960D01*
X4243329Y-8991960D02*
X4224282Y-9001484D01*
X4224282Y-9001484D02*
X4205234Y-9001484D01*
X4205234Y-9001484D02*
X4186186Y-8991960D01*
X4186186Y-8991960D02*
X4176663Y-8982436D01*
X4176663Y-8982436D02*
X4167139Y-8963389D01*
X4167139Y-8963389D02*
X4157615Y-8925293D01*
X4157615Y-8925293D02*
X4157615Y-8877674D01*
X4157615Y-8877674D02*
X4167139Y-8839579D01*
X4167139Y-8839579D02*
X4176663Y-8820531D01*
X4176663Y-8820531D02*
X4186186Y-8811008D01*
X4186186Y-8811008D02*
X4205234Y-8801484D01*
X4357615Y-8982436D02*
X4367139Y-8991960D01*
X4367139Y-8991960D02*
X4357615Y-9001484D01*
X4357615Y-9001484D02*
X4348091Y-8991960D01*
X4348091Y-8991960D02*
X4357615Y-8982436D01*
X4357615Y-8982436D02*
X4357615Y-9001484D01*
X4490948Y-8801484D02*
X4509996Y-8801484D01*
X4509996Y-8801484D02*
X4529044Y-8811008D01*
X4529044Y-8811008D02*
X4538568Y-8820531D01*
X4538568Y-8820531D02*
X4548091Y-8839579D01*
X4548091Y-8839579D02*
X4557615Y-8877674D01*
X4557615Y-8877674D02*
X4557615Y-8925293D01*
X4557615Y-8925293D02*
X4548091Y-8963389D01*
X4548091Y-8963389D02*
X4538568Y-8982436D01*
X4538568Y-8982436D02*
X4529044Y-8991960D01*
X4529044Y-8991960D02*
X4509996Y-9001484D01*
X4509996Y-9001484D02*
X4490948Y-9001484D01*
X4490948Y-9001484D02*
X4471901Y-8991960D01*
X4471901Y-8991960D02*
X4462377Y-8982436D01*
X4462377Y-8982436D02*
X4452853Y-8963389D01*
X4452853Y-8963389D02*
X4443329Y-8925293D01*
X4443329Y-8925293D02*
X4443329Y-8877674D01*
X4443329Y-8877674D02*
X4452853Y-8839579D01*
X4452853Y-8839579D02*
X4462377Y-8820531D01*
X4462377Y-8820531D02*
X4471901Y-8811008D01*
X4471901Y-8811008D02*
X4490948Y-8801484D01*
X4624282Y-8801484D02*
X4748091Y-8801484D01*
X4748091Y-8801484D02*
X4681425Y-8877674D01*
X4681425Y-8877674D02*
X4709996Y-8877674D01*
X4709996Y-8877674D02*
X4729044Y-8887198D01*
X4729044Y-8887198D02*
X4738568Y-8896722D01*
X4738568Y-8896722D02*
X4748091Y-8915770D01*
X4748091Y-8915770D02*
X4748091Y-8963389D01*
X4748091Y-8963389D02*
X4738568Y-8982436D01*
X4738568Y-8982436D02*
X4729044Y-8991960D01*
X4729044Y-8991960D02*
X4709996Y-9001484D01*
X4709996Y-9001484D02*
X4652853Y-9001484D01*
X4652853Y-9001484D02*
X4633806Y-8991960D01*
X4633806Y-8991960D02*
X4624282Y-8982436D01*
X4814758Y-8801484D02*
X4948091Y-8801484D01*
X4948091Y-8801484D02*
X4862377Y-9001484D01*
X5109996Y-8868150D02*
X5109996Y-9001484D01*
X5062377Y-8791960D02*
X5014758Y-8934817D01*
X5014758Y-8934817D02*
X5138568Y-8934817D01*
X5205234Y-8801484D02*
X5205234Y-8839579D01*
X5281425Y-8801484D02*
X5281425Y-8839579D01*
X5576663Y-9077674D02*
X5567139Y-9068150D01*
X5567139Y-9068150D02*
X5548091Y-9039579D01*
X5548091Y-9039579D02*
X5538568Y-9020531D01*
X5538568Y-9020531D02*
X5529044Y-8991960D01*
X5529044Y-8991960D02*
X5519520Y-8944341D01*
X5519520Y-8944341D02*
X5519520Y-8906246D01*
X5519520Y-8906246D02*
X5529044Y-8858627D01*
X5529044Y-8858627D02*
X5538568Y-8830055D01*
X5538568Y-8830055D02*
X5548091Y-8811008D01*
X5548091Y-8811008D02*
X5567139Y-8782436D01*
X5567139Y-8782436D02*
X5576663Y-8772912D01*
X5757615Y-9001484D02*
X5643329Y-9001484D01*
X5700472Y-9001484D02*
X5700472Y-8801484D01*
X5700472Y-8801484D02*
X5681425Y-8830055D01*
X5681425Y-8830055D02*
X5662377Y-8849103D01*
X5662377Y-8849103D02*
X5643329Y-8858627D01*
X5833806Y-8820531D02*
X5843329Y-8811008D01*
X5843329Y-8811008D02*
X5862377Y-8801484D01*
X5862377Y-8801484D02*
X5909996Y-8801484D01*
X5909996Y-8801484D02*
X5929044Y-8811008D01*
X5929044Y-8811008D02*
X5938568Y-8820531D01*
X5938568Y-8820531D02*
X5948091Y-8839579D01*
X5948091Y-8839579D02*
X5948091Y-8858627D01*
X5948091Y-8858627D02*
X5938568Y-8887198D01*
X5938568Y-8887198D02*
X5824282Y-9001484D01*
X5824282Y-9001484D02*
X5948091Y-9001484D01*
X6186187Y-9001484D02*
X6186187Y-8801484D01*
X6271901Y-9001484D02*
X6271901Y-8896722D01*
X6271901Y-8896722D02*
X6262377Y-8877674D01*
X6262377Y-8877674D02*
X6243330Y-8868150D01*
X6243330Y-8868150D02*
X6214758Y-8868150D01*
X6214758Y-8868150D02*
X6195710Y-8877674D01*
X6195710Y-8877674D02*
X6186187Y-8887198D01*
X6395710Y-9001484D02*
X6376663Y-8991960D01*
X6376663Y-8991960D02*
X6367139Y-8982436D01*
X6367139Y-8982436D02*
X6357615Y-8963389D01*
X6357615Y-8963389D02*
X6357615Y-8906246D01*
X6357615Y-8906246D02*
X6367139Y-8887198D01*
X6367139Y-8887198D02*
X6376663Y-8877674D01*
X6376663Y-8877674D02*
X6395710Y-8868150D01*
X6395710Y-8868150D02*
X6424282Y-8868150D01*
X6424282Y-8868150D02*
X6443330Y-8877674D01*
X6443330Y-8877674D02*
X6452853Y-8887198D01*
X6452853Y-8887198D02*
X6462377Y-8906246D01*
X6462377Y-8906246D02*
X6462377Y-8963389D01*
X6462377Y-8963389D02*
X6452853Y-8982436D01*
X6452853Y-8982436D02*
X6443330Y-8991960D01*
X6443330Y-8991960D02*
X6424282Y-9001484D01*
X6424282Y-9001484D02*
X6395710Y-9001484D01*
X6576663Y-9001484D02*
X6557615Y-8991960D01*
X6557615Y-8991960D02*
X6548091Y-8972912D01*
X6548091Y-8972912D02*
X6548091Y-8801484D01*
X6729044Y-8991960D02*
X6709996Y-9001484D01*
X6709996Y-9001484D02*
X6671901Y-9001484D01*
X6671901Y-9001484D02*
X6652853Y-8991960D01*
X6652853Y-8991960D02*
X6643330Y-8972912D01*
X6643330Y-8972912D02*
X6643330Y-8896722D01*
X6643330Y-8896722D02*
X6652853Y-8877674D01*
X6652853Y-8877674D02*
X6671901Y-8868150D01*
X6671901Y-8868150D02*
X6709996Y-8868150D01*
X6709996Y-8868150D02*
X6729044Y-8877674D01*
X6729044Y-8877674D02*
X6738568Y-8896722D01*
X6738568Y-8896722D02*
X6738568Y-8915770D01*
X6738568Y-8915770D02*
X6643330Y-8934817D01*
X6814758Y-8991960D02*
X6833806Y-9001484D01*
X6833806Y-9001484D02*
X6871901Y-9001484D01*
X6871901Y-9001484D02*
X6890949Y-8991960D01*
X6890949Y-8991960D02*
X6900472Y-8972912D01*
X6900472Y-8972912D02*
X6900472Y-8963389D01*
X6900472Y-8963389D02*
X6890949Y-8944341D01*
X6890949Y-8944341D02*
X6871901Y-8934817D01*
X6871901Y-8934817D02*
X6843330Y-8934817D01*
X6843330Y-8934817D02*
X6824282Y-8925293D01*
X6824282Y-8925293D02*
X6814758Y-8906246D01*
X6814758Y-8906246D02*
X6814758Y-8896722D01*
X6814758Y-8896722D02*
X6824282Y-8877674D01*
X6824282Y-8877674D02*
X6843330Y-8868150D01*
X6843330Y-8868150D02*
X6871901Y-8868150D01*
X6871901Y-8868150D02*
X6890949Y-8877674D01*
X6967139Y-9077674D02*
X6976663Y-9068150D01*
X6976663Y-9068150D02*
X6995711Y-9039579D01*
X6995711Y-9039579D02*
X7005234Y-9020531D01*
X7005234Y-9020531D02*
X7014758Y-8991960D01*
X7014758Y-8991960D02*
X7024282Y-8944341D01*
X7024282Y-8944341D02*
X7024282Y-8906246D01*
X7024282Y-8906246D02*
X7014758Y-8858627D01*
X7014758Y-8858627D02*
X7005234Y-8830055D01*
X7005234Y-8830055D02*
X6995711Y-8811008D01*
X6995711Y-8811008D02*
X6976663Y-8782436D01*
X6976663Y-8782436D02*
X6967139Y-8772912D01*
D10*
X1951600Y-9124000D02*
X1951600Y-9224000D01*
X1901600Y-9174000D02*
X2001600Y-9174000D01*
D11*
X2367139Y-9265484D02*
X2252853Y-9265484D01*
X2309996Y-9265484D02*
X2309996Y-9065484D01*
X2309996Y-9065484D02*
X2290948Y-9094055D01*
X2290948Y-9094055D02*
X2271901Y-9113103D01*
X2271901Y-9113103D02*
X2252853Y-9122627D01*
X2452853Y-9246436D02*
X2462377Y-9255960D01*
X2462377Y-9255960D02*
X2452853Y-9265484D01*
X2452853Y-9265484D02*
X2443329Y-9255960D01*
X2443329Y-9255960D02*
X2452853Y-9246436D01*
X2452853Y-9246436D02*
X2452853Y-9265484D01*
X2586186Y-9065484D02*
X2605234Y-9065484D01*
X2605234Y-9065484D02*
X2624282Y-9075008D01*
X2624282Y-9075008D02*
X2633805Y-9084531D01*
X2633805Y-9084531D02*
X2643329Y-9103579D01*
X2643329Y-9103579D02*
X2652853Y-9141674D01*
X2652853Y-9141674D02*
X2652853Y-9189293D01*
X2652853Y-9189293D02*
X2643329Y-9227389D01*
X2643329Y-9227389D02*
X2633805Y-9246436D01*
X2633805Y-9246436D02*
X2624282Y-9255960D01*
X2624282Y-9255960D02*
X2605234Y-9265484D01*
X2605234Y-9265484D02*
X2586186Y-9265484D01*
X2586186Y-9265484D02*
X2567139Y-9255960D01*
X2567139Y-9255960D02*
X2557615Y-9246436D01*
X2557615Y-9246436D02*
X2548091Y-9227389D01*
X2548091Y-9227389D02*
X2538567Y-9189293D01*
X2538567Y-9189293D02*
X2538567Y-9141674D01*
X2538567Y-9141674D02*
X2548091Y-9103579D01*
X2548091Y-9103579D02*
X2557615Y-9084531D01*
X2557615Y-9084531D02*
X2567139Y-9075008D01*
X2567139Y-9075008D02*
X2586186Y-9065484D01*
X2776663Y-9065484D02*
X2795710Y-9065484D01*
X2795710Y-9065484D02*
X2814758Y-9075008D01*
X2814758Y-9075008D02*
X2824282Y-9084531D01*
X2824282Y-9084531D02*
X2833805Y-9103579D01*
X2833805Y-9103579D02*
X2843329Y-9141674D01*
X2843329Y-9141674D02*
X2843329Y-9189293D01*
X2843329Y-9189293D02*
X2833805Y-9227389D01*
X2833805Y-9227389D02*
X2824282Y-9246436D01*
X2824282Y-9246436D02*
X2814758Y-9255960D01*
X2814758Y-9255960D02*
X2795710Y-9265484D01*
X2795710Y-9265484D02*
X2776663Y-9265484D01*
X2776663Y-9265484D02*
X2757615Y-9255960D01*
X2757615Y-9255960D02*
X2748091Y-9246436D01*
X2748091Y-9246436D02*
X2738567Y-9227389D01*
X2738567Y-9227389D02*
X2729044Y-9189293D01*
X2729044Y-9189293D02*
X2729044Y-9141674D01*
X2729044Y-9141674D02*
X2738567Y-9103579D01*
X2738567Y-9103579D02*
X2748091Y-9084531D01*
X2748091Y-9084531D02*
X2757615Y-9075008D01*
X2757615Y-9075008D02*
X2776663Y-9065484D01*
X2967139Y-9065484D02*
X2986186Y-9065484D01*
X2986186Y-9065484D02*
X3005234Y-9075008D01*
X3005234Y-9075008D02*
X3014758Y-9084531D01*
X3014758Y-9084531D02*
X3024282Y-9103579D01*
X3024282Y-9103579D02*
X3033805Y-9141674D01*
X3033805Y-9141674D02*
X3033805Y-9189293D01*
X3033805Y-9189293D02*
X3024282Y-9227389D01*
X3024282Y-9227389D02*
X3014758Y-9246436D01*
X3014758Y-9246436D02*
X3005234Y-9255960D01*
X3005234Y-9255960D02*
X2986186Y-9265484D01*
X2986186Y-9265484D02*
X2967139Y-9265484D01*
X2967139Y-9265484D02*
X2948091Y-9255960D01*
X2948091Y-9255960D02*
X2938567Y-9246436D01*
X2938567Y-9246436D02*
X2929043Y-9227389D01*
X2929043Y-9227389D02*
X2919520Y-9189293D01*
X2919520Y-9189293D02*
X2919520Y-9141674D01*
X2919520Y-9141674D02*
X2929043Y-9103579D01*
X2929043Y-9103579D02*
X2938567Y-9084531D01*
X2938567Y-9084531D02*
X2948091Y-9075008D01*
X2948091Y-9075008D02*
X2967139Y-9065484D01*
X3119520Y-9265484D02*
X3119520Y-9132150D01*
X3119520Y-9151198D02*
X3129043Y-9141674D01*
X3129043Y-9141674D02*
X3148091Y-9132150D01*
X3148091Y-9132150D02*
X3176663Y-9132150D01*
X3176663Y-9132150D02*
X3195710Y-9141674D01*
X3195710Y-9141674D02*
X3205234Y-9160722D01*
X3205234Y-9160722D02*
X3205234Y-9265484D01*
X3205234Y-9160722D02*
X3214758Y-9141674D01*
X3214758Y-9141674D02*
X3233805Y-9132150D01*
X3233805Y-9132150D02*
X3262377Y-9132150D01*
X3262377Y-9132150D02*
X3281424Y-9141674D01*
X3281424Y-9141674D02*
X3290948Y-9160722D01*
X3290948Y-9160722D02*
X3290948Y-9265484D01*
X3386186Y-9265484D02*
X3386186Y-9132150D01*
X3386186Y-9151198D02*
X3395710Y-9141674D01*
X3395710Y-9141674D02*
X3414758Y-9132150D01*
X3414758Y-9132150D02*
X3443329Y-9132150D01*
X3443329Y-9132150D02*
X3462377Y-9141674D01*
X3462377Y-9141674D02*
X3471901Y-9160722D01*
X3471901Y-9160722D02*
X3471901Y-9265484D01*
X3471901Y-9160722D02*
X3481424Y-9141674D01*
X3481424Y-9141674D02*
X3500472Y-9132150D01*
X3500472Y-9132150D02*
X3529043Y-9132150D01*
X3529043Y-9132150D02*
X3548091Y-9141674D01*
X3548091Y-9141674D02*
X3557615Y-9160722D01*
X3557615Y-9160722D02*
X3557615Y-9265484D01*
X3948091Y-9055960D02*
X3776663Y-9313103D01*
X4205234Y-9065484D02*
X4224282Y-9065484D01*
X4224282Y-9065484D02*
X4243329Y-9075008D01*
X4243329Y-9075008D02*
X4252853Y-9084531D01*
X4252853Y-9084531D02*
X4262377Y-9103579D01*
X4262377Y-9103579D02*
X4271901Y-9141674D01*
X4271901Y-9141674D02*
X4271901Y-9189293D01*
X4271901Y-9189293D02*
X4262377Y-9227389D01*
X4262377Y-9227389D02*
X4252853Y-9246436D01*
X4252853Y-9246436D02*
X4243329Y-9255960D01*
X4243329Y-9255960D02*
X4224282Y-9265484D01*
X4224282Y-9265484D02*
X4205234Y-9265484D01*
X4205234Y-9265484D02*
X4186186Y-9255960D01*
X4186186Y-9255960D02*
X4176663Y-9246436D01*
X4176663Y-9246436D02*
X4167139Y-9227389D01*
X4167139Y-9227389D02*
X4157615Y-9189293D01*
X4157615Y-9189293D02*
X4157615Y-9141674D01*
X4157615Y-9141674D02*
X4167139Y-9103579D01*
X4167139Y-9103579D02*
X4176663Y-9084531D01*
X4176663Y-9084531D02*
X4186186Y-9075008D01*
X4186186Y-9075008D02*
X4205234Y-9065484D01*
X4357615Y-9246436D02*
X4367139Y-9255960D01*
X4367139Y-9255960D02*
X4357615Y-9265484D01*
X4357615Y-9265484D02*
X4348091Y-9255960D01*
X4348091Y-9255960D02*
X4357615Y-9246436D01*
X4357615Y-9246436D02*
X4357615Y-9265484D01*
X4490948Y-9065484D02*
X4509996Y-9065484D01*
X4509996Y-9065484D02*
X4529044Y-9075008D01*
X4529044Y-9075008D02*
X4538568Y-9084531D01*
X4538568Y-9084531D02*
X4548091Y-9103579D01*
X4548091Y-9103579D02*
X4557615Y-9141674D01*
X4557615Y-9141674D02*
X4557615Y-9189293D01*
X4557615Y-9189293D02*
X4548091Y-9227389D01*
X4548091Y-9227389D02*
X4538568Y-9246436D01*
X4538568Y-9246436D02*
X4529044Y-9255960D01*
X4529044Y-9255960D02*
X4509996Y-9265484D01*
X4509996Y-9265484D02*
X4490948Y-9265484D01*
X4490948Y-9265484D02*
X4471901Y-9255960D01*
X4471901Y-9255960D02*
X4462377Y-9246436D01*
X4462377Y-9246436D02*
X4452853Y-9227389D01*
X4452853Y-9227389D02*
X4443329Y-9189293D01*
X4443329Y-9189293D02*
X4443329Y-9141674D01*
X4443329Y-9141674D02*
X4452853Y-9103579D01*
X4452853Y-9103579D02*
X4462377Y-9084531D01*
X4462377Y-9084531D02*
X4471901Y-9075008D01*
X4471901Y-9075008D02*
X4490948Y-9065484D01*
X4624282Y-9065484D02*
X4748091Y-9065484D01*
X4748091Y-9065484D02*
X4681425Y-9141674D01*
X4681425Y-9141674D02*
X4709996Y-9141674D01*
X4709996Y-9141674D02*
X4729044Y-9151198D01*
X4729044Y-9151198D02*
X4738568Y-9160722D01*
X4738568Y-9160722D02*
X4748091Y-9179770D01*
X4748091Y-9179770D02*
X4748091Y-9227389D01*
X4748091Y-9227389D02*
X4738568Y-9246436D01*
X4738568Y-9246436D02*
X4729044Y-9255960D01*
X4729044Y-9255960D02*
X4709996Y-9265484D01*
X4709996Y-9265484D02*
X4652853Y-9265484D01*
X4652853Y-9265484D02*
X4633806Y-9255960D01*
X4633806Y-9255960D02*
X4624282Y-9246436D01*
X4843329Y-9265484D02*
X4881425Y-9265484D01*
X4881425Y-9265484D02*
X4900472Y-9255960D01*
X4900472Y-9255960D02*
X4909996Y-9246436D01*
X4909996Y-9246436D02*
X4929044Y-9217865D01*
X4929044Y-9217865D02*
X4938568Y-9179770D01*
X4938568Y-9179770D02*
X4938568Y-9103579D01*
X4938568Y-9103579D02*
X4929044Y-9084531D01*
X4929044Y-9084531D02*
X4919520Y-9075008D01*
X4919520Y-9075008D02*
X4900472Y-9065484D01*
X4900472Y-9065484D02*
X4862377Y-9065484D01*
X4862377Y-9065484D02*
X4843329Y-9075008D01*
X4843329Y-9075008D02*
X4833806Y-9084531D01*
X4833806Y-9084531D02*
X4824282Y-9103579D01*
X4824282Y-9103579D02*
X4824282Y-9151198D01*
X4824282Y-9151198D02*
X4833806Y-9170246D01*
X4833806Y-9170246D02*
X4843329Y-9179770D01*
X4843329Y-9179770D02*
X4862377Y-9189293D01*
X4862377Y-9189293D02*
X4900472Y-9189293D01*
X4900472Y-9189293D02*
X4919520Y-9179770D01*
X4919520Y-9179770D02*
X4929044Y-9170246D01*
X4929044Y-9170246D02*
X4938568Y-9151198D01*
X5109996Y-9132150D02*
X5109996Y-9265484D01*
X5062377Y-9055960D02*
X5014758Y-9198817D01*
X5014758Y-9198817D02*
X5138568Y-9198817D01*
X5205234Y-9065484D02*
X5205234Y-9103579D01*
X5281425Y-9065484D02*
X5281425Y-9103579D01*
X5576663Y-9341674D02*
X5567139Y-9332150D01*
X5567139Y-9332150D02*
X5548091Y-9303579D01*
X5548091Y-9303579D02*
X5538568Y-9284531D01*
X5538568Y-9284531D02*
X5529044Y-9255960D01*
X5529044Y-9255960D02*
X5519520Y-9208341D01*
X5519520Y-9208341D02*
X5519520Y-9170246D01*
X5519520Y-9170246D02*
X5529044Y-9122627D01*
X5529044Y-9122627D02*
X5538568Y-9094055D01*
X5538568Y-9094055D02*
X5548091Y-9075008D01*
X5548091Y-9075008D02*
X5567139Y-9046436D01*
X5567139Y-9046436D02*
X5576663Y-9036912D01*
X5633806Y-9065484D02*
X5757615Y-9065484D01*
X5757615Y-9065484D02*
X5690948Y-9141674D01*
X5690948Y-9141674D02*
X5719520Y-9141674D01*
X5719520Y-9141674D02*
X5738568Y-9151198D01*
X5738568Y-9151198D02*
X5748091Y-9160722D01*
X5748091Y-9160722D02*
X5757615Y-9179770D01*
X5757615Y-9179770D02*
X5757615Y-9227389D01*
X5757615Y-9227389D02*
X5748091Y-9246436D01*
X5748091Y-9246436D02*
X5738568Y-9255960D01*
X5738568Y-9255960D02*
X5719520Y-9265484D01*
X5719520Y-9265484D02*
X5662377Y-9265484D01*
X5662377Y-9265484D02*
X5643329Y-9255960D01*
X5643329Y-9255960D02*
X5633806Y-9246436D01*
X5881425Y-9065484D02*
X5900472Y-9065484D01*
X5900472Y-9065484D02*
X5919520Y-9075008D01*
X5919520Y-9075008D02*
X5929044Y-9084531D01*
X5929044Y-9084531D02*
X5938568Y-9103579D01*
X5938568Y-9103579D02*
X5948091Y-9141674D01*
X5948091Y-9141674D02*
X5948091Y-9189293D01*
X5948091Y-9189293D02*
X5938568Y-9227389D01*
X5938568Y-9227389D02*
X5929044Y-9246436D01*
X5929044Y-9246436D02*
X5919520Y-9255960D01*
X5919520Y-9255960D02*
X5900472Y-9265484D01*
X5900472Y-9265484D02*
X5881425Y-9265484D01*
X5881425Y-9265484D02*
X5862377Y-9255960D01*
X5862377Y-9255960D02*
X5852853Y-9246436D01*
X5852853Y-9246436D02*
X5843329Y-9227389D01*
X5843329Y-9227389D02*
X5833806Y-9189293D01*
X5833806Y-9189293D02*
X5833806Y-9141674D01*
X5833806Y-9141674D02*
X5843329Y-9103579D01*
X5843329Y-9103579D02*
X5852853Y-9084531D01*
X5852853Y-9084531D02*
X5862377Y-9075008D01*
X5862377Y-9075008D02*
X5881425Y-9065484D01*
X6186187Y-9265484D02*
X6186187Y-9065484D01*
X6271901Y-9265484D02*
X6271901Y-9160722D01*
X6271901Y-9160722D02*
X6262377Y-9141674D01*
X6262377Y-9141674D02*
X6243330Y-9132150D01*
X6243330Y-9132150D02*
X6214758Y-9132150D01*
X6214758Y-9132150D02*
X6195710Y-9141674D01*
X6195710Y-9141674D02*
X6186187Y-9151198D01*
X6395710Y-9265484D02*
X6376663Y-9255960D01*
X6376663Y-9255960D02*
X6367139Y-9246436D01*
X6367139Y-9246436D02*
X6357615Y-9227389D01*
X6357615Y-9227389D02*
X6357615Y-9170246D01*
X6357615Y-9170246D02*
X6367139Y-9151198D01*
X6367139Y-9151198D02*
X6376663Y-9141674D01*
X6376663Y-9141674D02*
X6395710Y-9132150D01*
X6395710Y-9132150D02*
X6424282Y-9132150D01*
X6424282Y-9132150D02*
X6443330Y-9141674D01*
X6443330Y-9141674D02*
X6452853Y-9151198D01*
X6452853Y-9151198D02*
X6462377Y-9170246D01*
X6462377Y-9170246D02*
X6462377Y-9227389D01*
X6462377Y-9227389D02*
X6452853Y-9246436D01*
X6452853Y-9246436D02*
X6443330Y-9255960D01*
X6443330Y-9255960D02*
X6424282Y-9265484D01*
X6424282Y-9265484D02*
X6395710Y-9265484D01*
X6576663Y-9265484D02*
X6557615Y-9255960D01*
X6557615Y-9255960D02*
X6548091Y-9236912D01*
X6548091Y-9236912D02*
X6548091Y-9065484D01*
X6729044Y-9255960D02*
X6709996Y-9265484D01*
X6709996Y-9265484D02*
X6671901Y-9265484D01*
X6671901Y-9265484D02*
X6652853Y-9255960D01*
X6652853Y-9255960D02*
X6643330Y-9236912D01*
X6643330Y-9236912D02*
X6643330Y-9160722D01*
X6643330Y-9160722D02*
X6652853Y-9141674D01*
X6652853Y-9141674D02*
X6671901Y-9132150D01*
X6671901Y-9132150D02*
X6709996Y-9132150D01*
X6709996Y-9132150D02*
X6729044Y-9141674D01*
X6729044Y-9141674D02*
X6738568Y-9160722D01*
X6738568Y-9160722D02*
X6738568Y-9179770D01*
X6738568Y-9179770D02*
X6643330Y-9198817D01*
X6814758Y-9255960D02*
X6833806Y-9265484D01*
X6833806Y-9265484D02*
X6871901Y-9265484D01*
X6871901Y-9265484D02*
X6890949Y-9255960D01*
X6890949Y-9255960D02*
X6900472Y-9236912D01*
X6900472Y-9236912D02*
X6900472Y-9227389D01*
X6900472Y-9227389D02*
X6890949Y-9208341D01*
X6890949Y-9208341D02*
X6871901Y-9198817D01*
X6871901Y-9198817D02*
X6843330Y-9198817D01*
X6843330Y-9198817D02*
X6824282Y-9189293D01*
X6824282Y-9189293D02*
X6814758Y-9170246D01*
X6814758Y-9170246D02*
X6814758Y-9160722D01*
X6814758Y-9160722D02*
X6824282Y-9141674D01*
X6824282Y-9141674D02*
X6843330Y-9132150D01*
X6843330Y-9132150D02*
X6871901Y-9132150D01*
X6871901Y-9132150D02*
X6890949Y-9141674D01*
X6967139Y-9341674D02*
X6976663Y-9332150D01*
X6976663Y-9332150D02*
X6995711Y-9303579D01*
X6995711Y-9303579D02*
X7005234Y-9284531D01*
X7005234Y-9284531D02*
X7014758Y-9255960D01*
X7014758Y-9255960D02*
X7024282Y-9208341D01*
X7024282Y-9208341D02*
X7024282Y-9170246D01*
X7024282Y-9170246D02*
X7014758Y-9122627D01*
X7014758Y-9122627D02*
X7005234Y-9094055D01*
X7005234Y-9094055D02*
X6995711Y-9075008D01*
X6995711Y-9075008D02*
X6976663Y-9046436D01*
X6976663Y-9046436D02*
X6967139Y-9036912D01*
M02*
